<svg xmlns="http://www.w3.org/2000/svg" viewBox="0 0 434.62 536.46"><defs><style>.cls-1{fill:#484746;}.cls-2{fill:#fdfdfd;}.cls-3{fill:#7bc9d9;}.cls-4{fill:#f5e4c0;}.cls-5{fill:#5ebaa8;}.cls-6{fill:#f4dfc0;}.cls-7{fill:#327b42;}.cls-8{fill:#3e7a59;}.cls-9{fill:#40563f;}.cls-10{fill:#79b547;}.cls-11{fill:#99bea9;}.cls-12{fill:#968c5c;}.cls-13{fill:#e8d6c7;}.cls-14{fill:#7d9183;}.cls-15{fill:#645e51;}</style></defs><title>error</title><g id="Capa_2" data-name="Capa 2"><g id="Capa_1-2" data-name="Capa 1"><path class="cls-1" d="M301.63,475.37c3.68-3.93,6.88-7.41,10.13-10.83,5.51-5.82,10.92-11.73,16.63-17.33,2.13-2.09,1.53-2.93-.5-4.28a218.72,218.72,0,0,0-20.34-11.63c-6.55-3.38-8.73-6.65-7.88-12.61.79-5.44,5.59-10.11,11.54-11.39,4.22-.91,8.13.28,11.84,1.87,25.6,10.94,44.4,28.52,53.46,55.43A70.87,70.87,0,0,1,379,475c.3,1.67-.29,2.39-1.82,2.72-6.87,1.46-13.74,2.92-20.6,4.46-2,.45-2.65-.5-3.07-2.18a74.88,74.88,0,0,0-4.83-14.63c-.89-1.82-1.5-2.12-3.13-.71-9.33,8.1-18.77,16.09-28.13,24.16a13.82,13.82,0,0,1-6.45,3.33c-16.85,3.53-33.67,7.19-50.49,10.85a5.21,5.21,0,0,1-4.18-.71,168.31,168.31,0,0,0-28.48-13.92c-2.35-.9-3.89-1.09-5.59,1.5-2.9,4.41-7.15,7.62-11.58,10.48-1.56,1-2.21,2-1.57,3.86.73,2.15,1.06,4.43,1.75,6.6.57,1.79.21,2.87-1.73,3.26l-23.28,4.66c-2.38.48-2.5-1.52-2.92-2.92-.6-2-.75-4.13-3.77-3.71a2.73,2.73,0,0,1-2-1.07c-1.9-2.47-3.92-1.95-6.42-.89q-27.16,11.52-54.42,22.82c-5.23,2.18-10.6,4-16.4,3.44-7.14-.66-14.78-5.12-15.15-14.94-.36-9.57,1.33-18.95,2.43-28.38,2.37-20.44,5-40.85,7.52-61.29,4.13-34,8.31-68,12.22-102,.93-8.15,5.13-13.32,12.09-17,11.37-6,22.6-12.27,33.94-18.33,1.8-1,2.39-1.86,1.63-3.93-1.18-3.23-1.14-7.32-3.18-9.74s-6.22-1.95-9.39-3a55.34,55.34,0,0,1-11.27-5.26,3.87,3.87,0,0,0-4.32-.17c-6,3-12.06,5.92-18.14,8.78-2.74,1.28-3.39.84-3.6-2.27-.32-4.94-.67-9.88-.82-14.82-.07-2.06-.68-2.28-2.46-1.57-8.63,3.43-17.3,6.78-26,10.14-1.06.41-2.15,1.4-3.31.47s-.55-2.24-.39-3.36c.83-5.68,1.65-11.36,2.65-17,.4-2.31-.14-3.12-2.6-3.21-11-.41-22-1-32.92-1.54-4.82-.23-5.06-.62-2.65-4.95Q45.93,225.47,55.76,208c1.58-2.82,1.61-2.83-1.62-3.17q-22.87-2.46-45.76-4.91c-1-.11-2.35.18-2.88-1.06s.62-2,1.34-2.73c10.88-11.24,21.74-22.49,32.72-33.63,1.6-1.62,1.44-2.51,0-4Q21.15,138.76,2.85,118.9c-.6-.65-1.24-1.28-1.8-2-1.7-2.07-1.38-2.93,1.28-3.6,17.75-4.45,35.48-8.92,53.24-13.29,2.27-.56,2.79-1.21,1.85-3.57C48.5,74.17,40.15,51.64,30.49,29.64c-.43-1-1-1.95-1.39-2.95s-1.59-2.05-.62-3.24,2.17-.41,3.29-.09a116.45,116.45,0,0,1,20,8.16,570.66,570.66,0,0,1,52.51,30c1.34.85,2.46,1.94,3.86-.15,9.58-14.34,18.71-28.9,23.69-45.62a48.68,48.68,0,0,0,2.34-13.11c0-1.09,0-2.29,1.45-2.58s1.63.91,2.15,1.68C145.3,12.78,149.27,25.28,152.66,38c2.21,8.32,4,16.73,5.53,25.2.26,1.5.59,2,2.25,1.54,14.16-4,27.21-10.12,38.17-20.19.75-.69,1.32-2,2.63-1.56s1.13,2,1.27,3.08a42.87,42.87,0,0,1-.59,11.53C200,71,196,83.84,191.21,96.44c-.66,1.74-.51,2.56,1.24,3.35a84.05,84.05,0,0,0,35.23,7.09,2.89,2.89,0,0,0,2.4-1.44C239.57,93,249,80.59,258.6,68.24c5.09-6.56,10.49-12.89,15.57-19.46,2.73-3.52,6.26-4.37,10.28-3.73,14.34,2.28,24.29,10.76,31.46,22.9,2.52,4.26,2.15,8.35-.91,12.42-6.11,8.14-12.21,16.29-18.22,24.48-6.82,9.31-13.69,18.6-20.41,28-4.88,6.83-10.08,13.43-15.22,20.07a29.57,29.57,0,0,1-9.08,8c-2.11,1.16-2.12,2.14-.55,3.95a8.39,8.39,0,0,0,5.36,3.21c20,3.06,38.89,10.26,58.05,16.4,11.39,3.65,22.86,7.07,34.23,10.8,4.95,1.63,9.87,3.6,14.82,5,10.4,2.84,20.5,6.56,30.84,9.53,8.46,2.43,16.92,4.86,25.26,7.65,14.64,4.89,19.31,22.49,9,33.36-3.38,3.55-8.14,4.45-12.53,5.72-27.63,8-55.45,15.34-82.9,24l-69.9,22c-3.3,1-6.58,2.14-9.92,3-2.13.55-2.87,1.27-2.12,3.66,3.31,10.57,6.38,21.21,9.55,31.82q12.11,40.5,24.21,81C290.74,439.58,296.11,457.17,301.63,475.37ZM239.12,138.82l0,0-.59-.57a23.92,23.92,0,0,1-7.72-6.56l-.59-.59h0l-.6-.6h0a1.66,1.66,0,0,0-1.78-1.78h0c-.34-2.92-2.73-4.62-4.13-6.91a6.36,6.36,0,0,0-.7.34c-1.67.59-1.43,2.83-2.89,3.5-4,1.84-4.09,6.13-6,9.29a6,6,0,0,0-.62,5.28c.61,1.82,1.71,3.57.9,5.7a1.48,1.48,0,0,0,1.22,1.77c2.46.51,4.27,2.33,6.63,3.12,3.34,1.11,5.47,6.13,4.05,8.69-1.64,3-1.64,3,1.75,3.51.49.07,1,.16,1.46.24,1,1.72.55,3.76,1,6,4.53-3.28,8.82-6.25,13.84-7.71a19.57,19.57,0,0,0,7.93-4.28c2.55-.59,1.38-2.68,1.7-4.17l1.11,0c.13.44.18,1,.82.91s1-.82,1.06-1.49c.86-.6,1.94-1,1.82-2.38a1.27,1.27,0,0,0,.9-2c-.79-1.39-2.06-1.25-3.32-.59l-1.76.18-.09-1.09c-1.21-2.28-3.52-1.45-5.37-1.88l-.47,0-.64-.52-.06-.05a.94.94,0,0,0-1.12-.55l-.08-.05a8.36,8.36,0,0,0-5.27-2.93l-.07,0a1.57,1.57,0,0,0-1.75-1.15v0Zm98.07,328,0,0c.18-.21.37-.42.56-.62l0-.05,1.23-1.13,0,0a3.71,3.71,0,0,0,1.73-1.81l.06-.05.58-.55h0a1,1,0,0,0,.64-1.18l0,0a.62.62,0,0,0,.62-.62l0,0c.93.11,1.37-.49,1.72-1.21l.65-.61a2.09,2.09,0,0,0,1.83-1.8l1.79-1.72c1-1,.18-2,.06-3-.27-2.49-1.29-2.73-3.13-1.24a26.47,26.47,0,0,0-4.71,4.75l0,0c-3.92,3.58-7.71,7.3-11.26,11.25l0,0c-3.64,2.41-6,6.17-9.13,9.06-1.27,1.15-2.91,2.11-3.34,4h0c-1.61,1.31-4.28,1.83-3.61,4.84l.74,1.19c1.85,1.6,1.84-.31,2.34-1.25l0,0a1.22,1.22,0,0,0,1.2-.64l0,0,.62-.59h0l.61-.6h0l.62-.59h0a1.24,1.24,0,0,0,1.18-.65l0,0c.57-.2.71-.71.9-1.19h.23l.7-.6c4.1-2.49,7.16-6.18,10.69-9.33l1.2-1.36h0a8.25,8.25,0,0,0,2.38-2.4h0ZM257.53,74.61l-.57.63a5.16,5.16,0,0,0-1.81,2.34,4.64,4.64,0,0,0-2,2.72,1.62,1.62,0,0,0-1,1.4,4,4,0,0,0-1.77,2.4,4.66,4.66,0,0,0-1.75,2.39,11.1,11.1,0,0,0-2.92,3.61,2.28,2.28,0,0,0-1.29,1.7,13,13,0,0,0-3.58,4.74l-.56.66a13.12,13.12,0,0,0-3.12,4,19,19,0,0,0-3.29,4.17,14,14,0,0,1-2.47,3.66c-.75.13-1.19.53-1.1,1.34a1,1,0,0,0-.12.35c-2.19.92-2.94,3.08-4.16,4.83-1.91,2.15-.62,4,.58,5.84A59.64,59.64,0,0,0,238,134.18c6.79,5.65,14.36,9.7,23.54,9.93,2.35.06,3.78-.65,4.35-2.94l0,0,.59-.62,0,0a20.07,20.07,0,0,0,4.77-6h0a2.94,2.94,0,0,0,1.79-2.95h0c1.94-.42,2.42-2,2.94-3.61l0,0a2.06,2.06,0,0,0,1.29-1.84.24.24,0,0,0,0-.3l.59-.2.69-.61,4.08-5.39c1.1-.15,1.79-.63,1.54-1.88l0-.1c1.76-.22,2.37-1.29,2.18-3l.1-.08c.8,0,.78-.54.75-1.09a.62.62,0,0,1,.22-.42c1.68-.62,3-1.54,2.73-3.61l.06-.08c2-.13,2.16-1.6,2.29-3.1a.45.45,0,0,1,.21-.35c2.31-.73,3.28-2.46,3.51-4.74a2.84,2.84,0,0,0,2.32-1.85c1.13-.39,1.24-1.33,1.23-2.33,1.35-.91,2.4-2,2.12-3.8l.07,0,.42,0-.28-.3.49-1.23a.52.52,0,0,0,.14-.48c.91-.25,1.83-.71,1.58-1.76-.19-.8-1.19-.37-1.83-.51-1.73-.39-3.51-.66-5.19-1.2-6-1.91-12.09-4-16.79-8.32-4.89-4.56-9.55-9.39-13.12-15.14-1.25-2-1.71-.71-2,.64l-.73,1c-.61-.1-.77.29-.84.77a.91.91,0,0,0-.24.48c-1.79.93-2.73,2.58-3.59,4.29A4,4,0,0,0,258.08,74ZM173.17,491.8c-.08-.31-.16-.63-.59-.62l0,0a.84.84,0,0,0-1.08-.73l0,0c.09-.6-.25-.89-.75-1.07v0l-.6-.62h0l-1.59-2.9-.52.19.38,2.71A20.4,20.4,0,0,0,173,500.51a17.74,17.74,0,0,0,6.18,8.39c.61.49,1.46,1.07,2,.18s-.53-1-1-1.33c-5.54-3.41-7-7.18-5.08-13.45.29-1,.61-1.72-.77-1.93l0,0a1.32,1.32,0,0,0-1.22-.61Zm64.2-49.29h0a1.07,1.07,0,0,0,.59-1.19h0c2.79-2,4.16-7.84,2.12-10.87-.89-1.34-.23-3.88-2.8-4-.89-1.18-2.95-.65-3.47-2.38-3.33-2.74-11.21-.38-13.75,4.12h0a18.56,18.56,0,0,0-7.72,8.32h0a21.68,21.68,0,0,0-5.93,7.72l0,0a3.25,3.25,0,0,0-1.79,2.95h0c-2.12.76-1,1.65-.09,2.54.54,1.21.63,2.81,2.48,2.89-1,2.08.31,3.89,1.54,4.87,1.07.85,3-1.15,3.15-1.86.7-3,3.23-2.24,5-3,.74-.32,1.52.59,2.24-.08a4.19,4.19,0,0,1,3.63,1.63c1.34,1.68,2.3,1.13,3.54-.12,3.52-3.55,7.13-7,10.71-10.49ZM80.46,123.88l0,0L80,122.72c-1-4.18.39-7.47,3.38-10.44,5.4-5.34,11.75-9.27,18.36-12.8,11.59-6.22,23.34-12.1,35.86-16.27l8.13-1.85c-15.35-6.52-29.7-3.74-43.53,4.16l-.17,0c-1,.54-2.08.82-2.78,1.76l-.2.06A52.27,52.27,0,0,0,85.16,97.77h0a3.61,3.61,0,0,0-1.82,1.75h0l-.63.64-.53.59a28.06,28.06,0,0,0-7.29,9.41h0a4.8,4.8,0,0,0-.76.88c-6.59,12.45-7.7,25.55-4.57,39.13a199.41,199.41,0,0,0,4.7,21.47l-.12,0c1,4.49,1.74,9.08,3.73,13.31,2.24,9.73,5.92,19,9.93,28.06.66,1.5,1.11,3.46,2.67,4.1,1.23.5,2.45-1,3.72-1.45.19-.06.37-.15.56-.21a1.27,1.27,0,0,1,1.55.51,1.21,1.21,0,0,1-.41,1.8c-.81.53-1.73.91-2.59,1.39-3.19,1.77-6.41,3.52-8.2,6.94-3.1,3.36-3.64,7.25-2.41,11.51.1,2.91,1.72,5.23,3.14,7.57,2.88,4.74,8,6.51,13.34,5a33.4,33.4,0,0,0,9.1-4.23c.89-.57,1.86-1.59,2.78-.23.78,1.17-.33,1.94-1.12,2.34-2.21,1.13-1.1,2.13-.13,3.35,5.2,6.46,11.65,11.51,18.4,16.19a57.07,57.07,0,0,0,23.9,9.78c16.12,2.5,30.24-2.59,43.22-11.72a47.19,47.19,0,0,0,14.71-16c2.37-2.91,3.6-6.36,4.77-9.85a.49.49,0,0,0,.24-.5,8.11,8.11,0,0,0,1.08-3.45l-.05-.08a46.75,46.75,0,0,0,2.21-22.13l-.17-1.78c-.36-2.13-.75-4.26-1.09-6.39-.27-1.66-.92-2.54-2.88-2.55a11.64,11.64,0,0,1-6.76-1.86c-1.3-.92-2-.65-2.92.42-3,3.41-5.66,6.85-6.92,11.44-.71,2.54-.21,2.43,1.69,2l.65.18c4.42,3.48,5.2,6.26,2.95,11.31a7.5,7.5,0,0,0-.37,4.58c.74,4.51-2,7.49-5.91,6.6-.45-.18-.93-1-1.33-.42s.13,1,.86,1c2.07,2.71,1.76,5.6.65,8.55v0c-.37.41-.75.82-1.12,1.24h0c-3.44,1.58-5.36,1.36-7.19-.84-2.08-2.49-2.54-7.6-.75-9.76,1.3-1.56,3-2.38,5-1.17.66.41,1.5.78,1.65-.07.24-1.36-1.24-2.09-1.79-3.21s-1.2-.83-1.94-.3c-1,.72-2.1,1.12-2.67-.31-.48-1.21.48-1.71,1.49-2.35,3-1.92,5.77-4.24,5.82-8.27,0-1.66-.37-3.21-2.58-1.76-2,1.28-3.86,1-5.9.1-3.58-1.57-6.27-4.24-8.95-6.93-3.68-3.68-3.79-4.75-.94-9.28a2.72,2.72,0,0,0,.42-2.52c-.38-.79-1.46-.42-2.18-.22-2,.58-4.26.75-5.52,3-.59,1-1.85,1.83-3,.77-1.36-1.25.11-2,.82-2.87.49-.57,1.44-.82,1.23-1.85l0,0c4-1.07,7.81-2.84,12.11-2,.73.14,1.21-.61,1.63-1.14,1.46-1.87,2.8-3.85,4.36-5.64s1.84-3.27-.14-5.34c-2.38-2.49-5-6.06-3-9.27s1.7-5.72.39-8.71a3.75,3.75,0,0,1-.2-2.05c.45-2.64-.87-2.7-2.85-2.15a31.11,31.11,0,0,1-9,1.48c-1.16,0-2-.48-2-1.69s1-1.06,1.79-1c4.56.24,8.78-1.39,13.05-2.58,2-.56,3.67-1.78,3.14-4.5-1-5.24.45-7.86,5.43-10,.7-.31,1.71-.37,1.31-1.51-.69-2-1-4.13-2.72-6-.43,1.58-.67,2.84-1.12,4s-.28,3-2.24,2.37c-1.64-.53-.87-1.93-.59-3a56,56,0,0,0,2.16-15.52c-.09-3.3-1.46-4.12-4.39-4.26-14-.69-26.37,3.2-36.76,12.84-5.16,4.79-5.06,4.21-.52,9.4,4.15,4.74,9.7,7.38,15.51,9.53,1,.38,2.69.63,2.14,2.24s-1.92.75-3,.37a50.87,50.87,0,0,1-9.64-4.56c-15.84-9.59-17.64-24.54-10.12-39.24.48-.94,1.11-2.52,2.62-1.57,1.31.81.29,1.88-.17,2.84-3,6.19-4.63,12.63-3.35,19.55.16.85.35,2.14.89,2.37,1,.43,1.63-.77,2.3-1.43,11.37-11.25,25-16.29,40.95-14.88,2.36.2,2.18-.7,1.51-2.3-2.92-6.9-8.25-10.87-15.28-12.93-1.52-.44-4.83,0-2.53-3.43.13-.2-.3-.89-.59-1.26-1.86-2.44-3.76-4.84-5.61-7.28-.71-.94-1.25-1.22-2.35-.33a16,16,0,0,1-6.5,2.79c-8.07,1.93-16.33,3-24.27,5.56a92.86,92.86,0,0,0-17.2,7.5,16.77,16.77,0,0,0-5.66,3.59l-.22.12A43.13,43.13,0,0,0,99.17,118a.44.44,0,0,0-.32.31l-4.21,3.23h0c-3.85,1.62-7.34,4.25-11.8,4.14l0,0-1.8-1.19,0,0ZM305.67,59.76h0c0-.76-.39-1.19-1.18-1.18l0,0c-.59-2.09-2.24-2.7-4.13-3,0-.17,0-.34,0-.5l-.59-.65h0a6.62,6.62,0,0,0-5.36-3h-.56a1.08,1.08,0,0,0-1.2-1.19h0c-.43-.71-1.13-.58-1.79-.59h0c-.61-.88-1.55-.5-2.36-.59h-.61a2.92,2.92,0,0,0-2.39-1.14h-.55c-1.69-.69-3.4-1.6-4.77.54l0,0-.56.56a3.62,3.62,0,0,0,.79,4.34,140.36,140.36,0,0,0,14.85,12.79,83.77,83.77,0,0,0,11.47,7.38c2,1.06,4.17,2.55,6.77,1.64,2-1.58,1.57-3.16,0-4.74,0-.18,0-.36,0-.55a8.16,8.16,0,0,0-3.57-6h0a1.07,1.07,0,0,0-1.19-1.18h0A1.67,1.67,0,0,0,306.86,61h0A1.08,1.08,0,0,0,305.67,59.76Zm57.67,384.39-.6-.49h0a1.75,1.75,0,0,0-1.78-1.79h0a.9.9,0,0,0-.6-1.19h0c-.39-1.2-.85-2.32-2.38-2.39v0a.94.94,0,0,0-.6-1.2h0c-.36-.84-.7-1.69-1.8-1.79h0a.57.57,0,0,0-.6-.6h0a1.7,1.7,0,0,0-1.78-1.78h0c-.84-1.83-1.85-3.46-4.17-3.57h0A2.3,2.3,0,0,0,346.7,427h0a3.66,3.66,0,0,0-3-2.37h0a1.67,1.67,0,0,0-1.78-1.19h0c-.16-.68-.62-.76-1.2-.61h0c-1.07-2.3-3.06-3.43-5.35-4.16h0a13.07,13.07,0,0,0-7.13-3.58h0c-1.31-2.08-3.76-2.35-5.72-3.19-1.35-.57-.62.75-.23,1.33,1.13,3.18.68,6.43.48,9.66l-2.32,4.13c-2.48.24-3.65,2.51-5.54,3.68-1,.61.05,1,.73,1.22,3.85,2.35,7.92,4.42,11.48,7.15s6.87,4.28,10.84,1a22.05,22.05,0,0,1,6.32.58,35.24,35.24,0,0,1,6.5,8.33l.55.61c.22.58.43,1.16.65,1.75-1.23,2.72.71,5.43,0,8.15-2,.55-2,1.75-1.23,3.38a58.86,58.86,0,0,1,5,13.78c.66,3.23,1.87,2.77,3.83,1.41l3.62-.44,12-2.54c1.57-.25,1.13-1.34.86-2.24a93.61,93.61,0,0,0-2.91-9.2c-1-2.36-1.25-5.1-3.29-7h0a1.4,1.4,0,0,0-.61-1.78h0c-1.27-3.29-2.56-6.56-5.35-8.93v0A1.86,1.86,0,0,0,363.34,444.15ZM296.18,70.48l0,0a1.7,1.7,0,0,0-1.75-1.16l0,0a10.05,10.05,0,0,0-4.79-3.56,90.16,90.16,0,0,1-8.8-7.16l-.65-.55,0,0a1.59,1.59,0,0,0-1.75-1.76l0,0c-.51-1.65-.73-3.77-2.76-4s-2.33,2-3.32,3.26a4.09,4.09,0,0,0-.4.78l-.07.62c-1.13.09-1.18.9-1.15,1.76l0,0c-1.26.26-2.42.61-1.79,2.33,1,1.73,2,3.51,3.09,5.18,4.89,7.38,11.68,12.69,19.39,16.66,4.59,2.36,9.56,4.36,15,3.8a2.58,2.58,0,0,0,2.35-2.4l0,0A4.62,4.62,0,0,0,311,80.58v0c1.52-1.5,2.43-2.75-.81-3.15-1.32-.16-2.52-1-3.93-1l0,0a2.93,2.93,0,0,0-2.35-1.15l0,0A2.88,2.88,0,0,0,301.54,74l-.05,0a.94.94,0,0,0-1.13-.56l-.05,0C300.15,72,299,71.85,298,71.67l-.05,0C297.56,70.91,296.82,70.77,296.18,70.48ZM231.4,476.36c-1.3-.55-2.32-2.93-4.07-.64-1.13,4.42,2.26,5.24,5.15,6.44s6,2.47,9,3.71c4.43,1.83,8.75,3.91,13.05,6.05,1.45.72,3.6,2.11,4.21-1.14.28-.34.73-.66.79-1s-.41-.53-.81-.34h0c-.91-2.26-3.19-2.24-5-3l-.07,0c-5.2-3.58-11-5.77-17-7.74l0,0c-1.61-1.21-3.2-2.47-5.38-2.4Zm73.7,6.52h0c-.44-1.91-2.1-2.34-3.6-3l0,0a19.84,19.84,0,0,0-11.07-4.8,11,11,0,0,0-6.83,1.21c-.47.29-1.07.71-.75,1.39.24.52.85.32,1.33.3a31,31,0,0,1,16.59,12.08c.34.47.84,1.1,1.43.85,2.07-.91,4.45-.49,6.45-1.6.86-.55,3.8.95,2.3-1.78a8.59,8.59,0,0,0-4.68-4.11h0C306.12,482.8,305.68,482.68,305.1,482.88Zm-104-281.67,1.18-1.19.64-.65c1.56-1.91,1.33-3.7-.68-5.29l-1.16-.61c-1.55-2.11-3.9-1.49-6-1.74-.68-.08-1.37-.13-2-.24-1.28-.22-5.65,2.38-5.5,3.57.31,2.41-1.44,3.34-2.68,4.76-1.77,2-5.44,2.65-4.83,6.46,0,.13-.19.34-.33.46-2.31,1.8-1.07,3.57.26,5a24.62,24.62,0,0,0,6,4.74c4.07,2.35,3.57,1.94,6.24-1.35s3-7.94,6-11.07c2,.1,2.36-1.48,2.89-2.89Zm-6.68,87.84a4.83,4.83,0,0,0-2.32,1.71l-.11,0a7.85,7.85,0,0,0-1.62.61c-7.9,5.14-16.61,6.29-25.76,5.32-1.63-.17-4.19-1.44-4.66-.53-.88,1.71.27,3.9,1.21,5.73a.25.25,0,0,0,.08.36,14.62,14.62,0,0,0,1.16,4.68,13,13,0,0,0,.26,1.75Q174,350.25,185.5,391.79q7.11,25.84,14.2,51.7c.25.88,0,2.31,1.2,2.45s1.37-1.25,1.94-2c5.07-6.67,9.77-13.67,16.31-19.06,4.54-3.74,9.5-6,15.59-4,3,1,4.55,3.66,6.72,5.6l1.89,4.09c1.06,7.63-2.28,13.3-7.76,18.23-3.15,2.84-5.87,6.16-8.8,9.28,4.5,2.15,9,4.81,13.5,7.41,5.71,3.3,11.52,6.41,17.29,9.61.36.43.55,1.1,1.64.9-.75-2.44-1.48-4.85-2.24-7.24q-10.53-33-21.05-66.09-5.09-16-10.15-31.92c-2.39-7.51-4.5-15.11-7.42-22.45a.21.21,0,0,0-.05-.3c-1.81-5.94-3.56-11.9-5.45-17.81-2.48-7.81-5.06-15.58-7.59-23.36-1.17-1.31-.82-3.23-1.84-4.6-.49-5.1-2.64-9.72-4.1-14.54-.33-.88,0-2.6-1.89-1.6a11.58,11.58,0,0,0-3,2.88Zm114.23,122.5c-2.8.4-3.75,2.74-5,4.75-2.11,5.53-1,9.34,3.48,11.52,4.94,2.43,8.45,1.13,11.65-4.34,2.69-4.61,1.87-9.66-2.06-12.54-2-1.94-5.43-1.68-8.06.61Zm-102.22,94c-.09-1.58-1-1.47-2-.92-1.53.85-3,1.79-4.53,2.69l-5.32,1.81c-3.24.1-6.46,1.11-9.75.32-.2-.05-.17.64.09,1,.72,5.35.72,5.36,5.78,4.68,1.17-.16,2.32-.41,3.48-.62,2.65-.12,5.06-1.18,7.56-1.89,1.91,0,3.88.35,5.42-1.25.78,0,1-.38.76-1.11C207.36,508.65,206.88,507.09,206.4,505.53Zm-13-266.35h0c-.73-1.16-1.74-2-3.11-1.47s-1.79,2-1.57,3.43c.13.86.37,1.71.56,2.56a1.73,1.73,0,0,0,.62,1.53l.35.54c2,2.14,3.06,2,4.62-.75C195.11,242.9,196.23,240.53,193.39,239.18ZM180.11,492.29l0,0c-4.19,3.22-4.42,7.54-.63,11.68l-.05,0c1,1.62,2.73,1.86,4.39,2.22a16.82,16.82,0,0,0,10.7,0c1.51-.57,3.23-.57,4.57-1.63l.22,0c6.08-2.78,6.47-3.41,4.85-8.06l-2.91,2a22.79,22.79,0,0,1-11.84,4.22c-1.48.1-2.56-.2-2.62-1.95L188,500a2.44,2.44,0,0,0,1.85-.2c5.5-.52,10.23-2.44,13.41-7.24a6.37,6.37,0,0,0-4-6c-4.61-1.58-15.22,1.39-18.55,5.19l.05,0ZM194.42,231a6.87,6.87,0,0,0,1.85,3c.74.7,1.22,2.27,2.39,1.79a2.91,2.91,0,0,0,1.47-3.55c-.85-2.9-.07-5.43,1.06-8a5.34,5.34,0,0,0-.54-5.35c-.33-.5-.68-1-1.38-.93s-1.06.77-1.09,1.52c0,1.38-.07,2.76-.11,4.14a19.53,19.53,0,0,1-3,5.26C194.66,229.44,193.48,229.93,194.42,231Zm-38.95,51.1c.26,1.16.44,2.33.78,3.46,2.69,9.07.34,7.33,10,8.51,11.37,1.38,21.49-1.9,29.48-10.52.92-1,1.9-2,1.41-3.63-.72-2.46-1.25-5-1.85-7.45.17-2.76-1-2.92-3-1.61-1.3.84-2.67,1.59-4,2.32-9.8,5.19-20.14,8.12-31.34,7.49C155.91,280.6,154.64,280.33,155.47,282.09Zm120.85-107A48.41,48.41,0,0,1,281.57,188c1.92,8.51,3.21,17-1.76,25-1,1.63.3,1.57,1.17,1.81l53.57,14.48q30.07,8.13,60.16,16.27c1,.26,2.42.41,2,2s-1.62,1-2.69.77c-1.91-.42-3.7-1.5-6.15-1.24a10.82,10.82,0,0,0,5.44,3c1.43.37,2.91.57,4.36.86.9.18,1.89.4,1.68,1.61-.18,1-1.11,1-1.91.92-5.38-.48-10.41-1.76-13.59-6.64a5.19,5.19,0,0,0-3.27-2.26c-4.78-1.29-9.58-2.49-14.29-4a13.59,13.59,0,0,0-8.66.18q-24.43,7.8-49,15.31c-15.59,4.78-31.19,9.55-46.86,14.08-9.39,2.7-18.57,6.26-28.4,7.37s-19.74,3.16-29.62,4.69c-2.37.36-3.05.95-2.21,3.52,4.13,12.7,8,25.48,12,38.2q12.52,39.47,25.13,78.89,10.19,31.94,20.42,63.86c1.67,5.2,3.41,10.37,5.21,15.82a35.4,35.4,0,0,1,9.08-6.76,2.56,2.56,0,0,0,1.49-2.84q-1.67-35.16-3.28-70.32a3.92,3.92,0,0,0-2.38-3.68c-7.78-4.09-15.45-8.41-23.23-12.51-2.2-1.16-2.93-2.16-1.83-4.8,3.63-8.66,6.87-17.48,10.33-26.21a3.07,3.07,0,0,0-.46-3.46c-5.47-7.26-10.81-14.63-16.22-21.94q-14.56-19.67-29.16-39.32c-.86-1.15-3-2.47-1.14-3.89s2.4,1.1,3.13,2.09q23.25,31.14,46.41,62.35a3.59,3.59,0,0,1,.5,4c-3.41,8.54-6.67,17.14-10.1,25.67-.77,1.89-.67,2.84,1.33,3.88,7.55,3.89,15,8.07,22.47,12a5.17,5.17,0,0,1,3.21,5c.24,8.91.75,17.81,1.17,26.71.65,13.94,1.36,27.88,1.93,41.83.1,2.42.31,3.67,3.26,2.65a22.28,22.28,0,0,1,9.72-.67c2.32.26,4.61.75,7.21,1.19-.43-1.55-.73-2.77-1.1-4-4.34-14.39-8.74-28.76-13-43.16-7.05-23.7-13.79-47.48-21.09-71.1q-8.25-26.73-15.86-53.63c-.36-1.26-1.84-3.23.22-3.84,2.26-.68,2.17,1.9,2.45,3.21.52,2.36,1.51,2.66,3.67,2,17.24-5.53,34.53-10.88,51.75-16.45,22-7.12,44.23-13.69,66.46-20.16,16.41-4.78,33.05-8.78,49.35-14a14.48,14.48,0,0,0,9.86-9.38c3.65-10.11-1.77-20.08-12.64-23.32-7.3-2.18-14.61-4.3-21.87-6.58-11.45-3.59-22.86-7.3-34.29-10.93q-33.09-10.53-66.17-21C289.44,179.17,283.31,177.28,276.32,175.1ZM174.37,457.8c.46-7.63,1.55-9.12,8.85-11.32A31.64,31.64,0,0,1,194,444.86c2.8.16,2.73-.83,2.12-3q-9.51-34-18.84-68.06-10.25-37.48-20.31-75c-.61-2.29-1.21-2.7-3.45-1.46-11,6.1-22,12.13-33.13,17.91-6,3.09-10.11,7.16-10.42,14.25-.08,1.78-.41,3.54-.63,5.31-3.33,26.91-6.73,53.81-10,80.73-2.93,24.27-5.5,48.57-8.69,72.81-1.39,10.58-3.41,21.12-3.25,31.87.12,8,4.94,12.89,12.92,13.37A30.42,30.42,0,0,0,114,530.87c18.89-7.86,37.74-15.82,56.62-23.68,1.77-.74,2-1.39.88-3-5.4-8-7.63-16.66-5.32-26.23.11-.45.32-1-.34-1.35a9.31,9.31,0,0,0-1,.29q-25.15,9.82-50.29,19.67c-4.88,1.91-9.74,3.86-14.61,5.8-1,.38-2,.83-2.52-.47s.67-1.67,1.55-2.05c1.92-.8,3.86-1.52,5.79-2.31,4-1.65,8.07-3.32,12.69-5.22a23.21,23.21,0,0,0-8.56-1.65c-.95,0-2.23.12-2.3-1.24-.08-1.54,1.23-1.54,2.33-1.53a23.22,23.22,0,0,1,10.67,2.24c2.44,1.26,2.79.39,3-1.83,2.71-34.25,5.33-68.5,8.58-102.7.65-6.9,1.21-13.81,1.85-20.71.1-1.13,0-2.73,1.69-2.58s1.21,1.76,1.15,2.84c-.12,2.27-.43,4.54-.56,6.81-.25,4.61-1.17,9.12-.07,13.85,3.57,15.41,6.79,30.91,10.17,46.37,3.12,14.3,6.32,28.58,9.38,42.9.46,2.14,1.16,2.53,3.11,1.59a46.49,46.49,0,0,1,7.17-2.84c2.88-.84,3.86-2.78,3.94-5.48.06-2.14.45-4.25,2.16-5.64s1.35-2.43.49-4c-3.92-7.32-7.63-14.76-11.61-22.05a6.06,6.06,0,0,1-.33-5.83c3.7-8.74,7.2-17.57,10.91-26.3.77-1.82.7-2.75-1.19-3.69-6.19-3.07-12.27-6.4-18.49-9.44-2.48-1.22-3.65-2.67-3.61-5.64.18-12.27.08-24.54.09-36.81q0-20.49,0-41c0-1.18-.13-2.71,1.58-2.59,1.5.11,1.16,1.57,1.16,2.62,0,4.36,0,8.72,0,13.07q0,32.24.05,64.47c0,1.18-.47,2.5,1.27,3.22,7.24,3,13.91,7.09,21,10.44,2.08,1,2.69,2.07,1.7,4.37-3.56,8.27-6.67,16.74-10.45,24.89-1.7,3.66-1.64,6.46.37,9.9C167.65,444.69,170.92,451.3,174.37,457.8ZM125.61,269.28c-1.17-1-2.07-1.94-3.11-2.66a62.84,62.84,0,0,1-14-12.76c-1.84-2.38-3.47-3-6.42-1.83-4.88,2-10,2-14.5-1.09a19.37,19.37,0,0,1-4.19-27.35,26.61,26.61,0,0,1,3.5-3.62c.85-.76.81-1.32.3-2.27C80.58,205.33,76.42,192,73,178.5c-3.24-12.75-6.69-25.51-7.61-38.69-1.06-15.31,3.32-29,13.95-40.3a82.58,82.58,0,0,1,31.8-21.2c12.25-4.53,24.57-4.91,36.69.42a27.48,27.48,0,0,0,8.72,2.4c3.82.37,7.25,1.57,7.77,6.26.06.5.61,1,1,1.41,2.41,3.14,5,6.18,7.18,9.45a13.08,13.08,0,0,0,5.77,4.79c9,4.11,13.74,11.4,14.55,21.09.45,5.37.13,10.76,3.3,15.58.76,1.15,1.06,1.48,2.38,1a39.88,39.88,0,0,1,9.46-2.37c1-.1,2.18-.13,2.63-1.5,3.07-9.28,8.95-16.88,14.73-24.54.46-.61,1.1-1.53.93-2-.35-1-1.55-.54-2.37-.57-11.89-.51-23.34-2.74-34.09-8.13-2.23-1.13-2.73-2.24-1.82-4.6a217.07,217.07,0,0,0,10.32-33.73c1-4.95,2-9.92,1.59-15.36-.73.48-1.08.67-1.38.91-11.52,9.42-24.67,15.5-39,19.22-2.48.64-3.41.12-3.84-2.33-1-5.55-2.14-11.07-3.3-16.59-2.79-13.3-6.59-26.28-12.54-38.56-.65-1.34-1.23-2.76-2.74-3.5-.35,1.84-.59,3.5-1,5.12-5.07,19.36-15.13,36.17-26.56,52.31-1.46,2-2.6,2-4.59.78-9.3-5.81-18.59-11.64-28.14-17.06C65.77,42,54.78,35.91,43.33,30.72c-3.34-1.5-6.64-3.21-10.47-3.8A5.66,5.66,0,0,0,33,28.05C38.62,40.92,44,53.89,49,67c3.71,9.7,7.69,19.29,11.43,29,2.06,5.32,1.91,5.22-3.81,6.64-16.68,4.12-33.32,8.4-50,12.53-2,.49-2.38,1.06-.91,2.56.49.49.93,1,1.4,1.53,12,13,24,26,36.16,38.86C45,160,45,161.17,43.2,163c-10.43,10.56-20.75,21.21-31.09,31.84-.59.6-1.75,1.13-1.34,2.09s1.57.62,2.44.71q22.14,2.35,44.27,4.69c4.34.46,4.5.81,2.35,4.6-6.68,11.78-13.29,23.59-20,35.35-1.2,2.1-1.36,2.91,1.55,3,9.6.33,19.18.91,28.77,1.37,8.22.39,8.17.37,6.74,8.59-.82,4.64-1.45,9.32-2.2,14.28,1.3-.37,2.16-.55,3-.86q12.48-4.71,24.94-9.45c3.63-1.39,4-1.2,4.24,2.77.19,3.06.21,6.13.39,9.2.44,7.3.49,7.36,6.94,4C117.89,273.29,122,272,125.61,269.28ZM355.54,238.5a1.64,1.64,0,0,0-1.29-1q-36.5-9.87-73-19.73c-2.25-.61-4.47-1.67-6.92-1.29-5,.77-8.61-1.32-11.42-5.25a43.15,43.15,0,0,1-6.64-15.74c-.52-2.24-4.13-4.15-5.65-2.74-4.17,3.89-9.53,5.14-14.61,7-2,.74-2.18,1.34-1.09,3,1,1.47,1.6,3.17,2.47,4.72,1.17,2.08.74,3.26-1.7,3.8-2.65.58-5.41.78-8.31,2,2.84,2.43,5.5,4.6,8,6.92,1,.94,2.88,1.6,2.46,3.37-.38,1.56-2.19,1.47-3.45,1.88-3.47,1.14-6.95,2.3-10.49,3.2-2.21.56-3.09,1.71-3.63,3.93-2.84,11.78-7.82,22.55-17.45,30.27-4.54,3.64-5.9,7.28-3.72,12.48a6.31,6.31,0,0,1,.45,2c.17,2.3,1.35,2.64,3.38,2.09s4.09-.72,6.14-1c10.93-1.79,22-2.92,32.76-5.52,14.39-3.49,28.54-8,42.73-12.29,17.79-5.38,35.51-11,53.26-16.51C343.74,242.26,349.62,240.37,355.54,238.5ZM133.84,393.78c-.8.65-.61,1.26-.66,1.79q-2.22,24.84-4.4,49.68c-1.18,13.7-2.24,27.42-3.46,41.12-.23,2.59.45,2.78,2.66,1.88q11.13-4.5,22.39-8.71c1.7-.64,1.93-1.51,1.55-3.15-1.07-4.52-2-9.09-2.92-13.63-4.11-19.34-8.89-38.54-12.59-58C135.71,401.15,134.73,397.55,133.84,393.78Zm84.22-193.23A73,73,0,0,0,244,193.72c11-5,13-20.58,4.07-28.73a3,3,0,0,0-3.43-.74c-5.74,1.94-10.38,5.68-15.15,9.17-1.05.77-2,2.16-.43,3.48,4.07,3.38,8.4,6,14,4.74,1.1-.24,2.64-.92,3,.69s-1.4,1.58-2.39,2a6.23,6.23,0,0,1-2,.36,17.55,17.55,0,0,1-13.08-4.58c-1.79-1.54-2.34-1.09-3.21.77a46.56,46.56,0,0,1-6.08,9.45c-.65.8-1.47,1.53-2.49.58s-.2-1.6.32-2.33c.81-1.12,1.62-2.24,2.38-3.4,3.16-4.8,6.23-9.65,7.65-15.31.36-1.42.91-3.25-.29-4.23s-2.76.28-4,.94c-8.49,4.33-13.26,11.62-16,20.41C204,196.07,207.33,200.47,218.06,200.55Zm-135.52-81c0,3,1.12,3.86,3.83,2.8A33.36,33.36,0,0,0,95.9,117c5.84-4.86,11.63-9.81,18.52-13.22a119.54,119.54,0,0,1,35.16-11c3.39-.52,6.86-1.07,9.85-3,1.06-.7,2.26-1.41,2-3s-1.47-2.06-2.71-2.45a21.3,21.3,0,0,0-8.52-.64,70.46,70.46,0,0,0-19.75,5,285.21,285.21,0,0,0-26.73,12.71c-6.65,3.48-13.07,7.4-18.5,12.7A7.5,7.5,0,0,0,82.54,119.56ZM209.63,483c-2.17,3.9-2.46,8.08-2.1,12.37.28,3.35.54,3.53,3.25,1.49,14.41-10.84,16.6-20.26,12.19-36.64-.63-2.34-1.69-4.66-4.44-5-2.6-.35-4.41,1.24-6,3.17-5.27,6.48-4.26,13.44-1.6,20.49.48,1.29,1,3.25,2.62,3.19,1.38-.05,1.77-2,2.3-3.2A56.33,56.33,0,0,0,219,467.46c.19-1,.49-2.06,1.84-1.89s1.29,1.3,1.09,2.28c-.93,4.56-1.88,9.11-4.05,13.29C215.53,485.67,213.59,486.12,209.63,483Zm46.91-304.49a19,19,0,0,1-2.59,9.34c-.75,1.41-.89,1.86,1,2.25,7.73,1.62,15.43,3.37,23.11,5.18,1.86.44,2.25,0,2-1.81a46.9,46.9,0,0,0-4.41-14.09c-1.17-2.29-2.65-4.7-5.19-5.45-4.34-1.29-8.84-2.05-13.27-3.05-1.41-.32-1.83.14-1.32,1.5A18.41,18.41,0,0,1,256.54,178.55ZM186.83,472.93c-3.59.21-7,.51-10.24,2-3,1.39-5.56,3.19-5.84,6.83s2.12,6,4.8,8c1.13.86,2.1.8,3.35-.26,5.12-4.36,11.24-6,17.86-6.1a10.81,10.81,0,0,1,5.86,1.81c.61.38,1.06,1.52,1.92.95s.74-1.56.71-2.46a4.74,4.74,0,0,0-1.48-3.44A26.89,26.89,0,0,0,186.83,472.93Zm20.63,6.33c-.94-3.05-.24-6.46-2.62-9a29.89,29.89,0,0,0-15.43-8.9,21.47,21.47,0,0,0-13.95,1.38,5.74,5.74,0,0,0-3.61,4.38c-.77,4.56,1.16,6.17,5.43,4.7a27.13,27.13,0,0,1,17.77,0C199.72,473.3,203.59,476.09,207.46,479.26Zm-1.67-12.68c.51-1.73,1.48-3.39.72-5.34a49,49,0,0,0-5.57-11.09,3.84,3.84,0,0,0-2.19-1.88,27.71,27.71,0,0,0-19.5,2.89c-2.46,1.37-1.54,4.08-1.07,6.24s2.29.92,3.45.84c5.34-.39,10.49.15,15.21,2.85C199.84,462.8,202.73,464.69,205.79,466.58ZM272.45,213.9a6.52,6.52,0,0,0,6.28-4.16c1.33-2.84,1.55-5.9,1.8-9,.14-1.68-.71-2.44-2.35-2.78q-8.55-1.75-17.06-3.74c-2.19-.52-2,.49-1.66,2a50.15,50.15,0,0,0,4.44,11.28C265.7,210.88,268.06,213.85,272.45,213.9ZM213.74,169c2.21-.15,4.65-3.28,7.8-5,1.16-.62.17-1.72-.81-2.2-1.75-.86-3.68-.74-5.54-.77-8.61-.15-15.41-3.29-19.15-11.47-.7-1.53-1.58-1.48-2.82-.88-2.52,1.25-3.38,4-2.21,7.17C193.67,163,202.9,168.79,213.74,169ZM217,158.41c1.81-.11,3.29-.19,4.77-.29,2.29-.16,2.27-1.43,1.45-3.07a4.78,4.78,0,0,0-2.49-2q-4.42-2.08-8.92-4c-3.71-1.6-3.79-1.63-1.07-4.57.9-1,.59-1.67.22-2.63a1.49,1.49,0,0,0-2.08-1c-2.68.67-5.4,1.21-8.06,2-3.22.9-3.68,1.83-2.46,4.93,2.24,5.7,6.28,9.27,12.46,10.12C213,158.11,215.17,158.23,217,158.41Zm-5.53,13.37c-8.26-.45-14.71-3.95-20.05-9.63-2.13-2.27-2.82-2.17-4.23.61a6.86,6.86,0,0,0-.51,3.76c.48,6.59,5.76,10.27,12,12C204.5,180.06,207.79,178.12,211.49,171.78Zm10.29,47.5c-.15,2.46-.25,4.14-.35,5.81-.07,1.21.33,1.56,1.58,1.13,2.88-1,5.8-1.86,8.7-2.78,1.62-.51,1.83-1.14.4-2.31-2.74-2.25-5.39-4.62-8.05-7-.64-.57-1.43-1.16-1.11-2.22s1.15-1,1.91-1.15c2.68-.62,5.37-1.26,8.07-1.81,1.31-.27,1.56-.69.95-2-2.64-5.65-2.59-5.67-8.87-4.68a29.05,29.05,0,0,1-2.94.33c-1.82.11-2.56.62-2,2.76A51.17,51.17,0,0,1,221.78,219.28Zm-20.69-29.4c.91,0,1.94.31,2.32-1.12.56-2.09,1.26-4.15,1.94-6.2.27-.84.21-1.47-.84-1.25-6.1,1.31-10.95-1.41-15.61-4.77-1.81-1.3-2.53-.12-2.83,1.43a5.51,5.51,0,0,0,.62,3.15C189.34,187.56,195.05,189,201.09,189.88Z"/><path class="cls-2" d="M276.32,175.1c7,2.18,13.12,4.07,19.22,6q33.09,10.5,66.17,21c11.43,3.63,22.84,7.34,34.29,10.93,7.26,2.28,14.57,4.4,21.87,6.58,10.87,3.24,16.29,13.21,12.64,23.32a14.48,14.48,0,0,1-9.86,9.38c-16.3,5.21-32.94,9.21-49.35,14-22.23,6.47-44.43,13-66.46,20.16-17.22,5.57-34.51,10.92-51.75,16.45-2.16.7-3.15.4-3.67-2-.28-1.31-.19-3.89-2.45-3.21-2.06.61-.58,2.58-.22,3.84q7.65,26.89,15.86,53.63c7.3,23.62,14,47.4,21.09,71.1,4.28,14.4,8.68,28.77,13,43.16.37,1.21.67,2.43,1.1,4-2.6-.44-4.89-.93-7.21-1.19a22.28,22.28,0,0,0-9.72.67c-2.95,1-3.16-.23-3.26-2.65-.57-13.95-1.28-27.89-1.93-41.83-.42-8.9-.93-17.8-1.17-26.71a5.17,5.17,0,0,0-3.21-5c-7.52-3.94-14.92-8.12-22.47-12-2-1-2.1-2-1.33-3.88,3.43-8.53,6.69-17.13,10.1-25.67a3.59,3.59,0,0,0-.5-4Q233.89,320,210.71,288.79c-.73-1-1.39-3.43-3.13-2.09s.28,2.74,1.14,3.89q14.55,19.68,29.16,39.32c5.41,7.31,10.75,14.68,16.22,21.94a3.07,3.07,0,0,1,.46,3.46c-3.46,8.73-6.7,17.55-10.33,26.21-1.1,2.64-.37,3.64,1.83,4.8,7.78,4.1,15.45,8.42,23.23,12.51a3.92,3.92,0,0,1,2.38,3.68q1.62,35.16,3.28,70.32a2.56,2.56,0,0,1-1.49,2.84,35.4,35.4,0,0,0-9.08,6.76c-1.8-5.45-3.54-10.62-5.21-15.82q-10.23-31.92-20.42-63.86-12.58-39.44-25.13-78.89c-4-12.72-7.9-25.5-12-38.2-.84-2.57-.16-3.16,2.21-3.52,9.88-1.53,19.68-3.57,29.62-4.69s19-4.67,28.4-7.37c15.67-4.53,31.27-9.3,46.86-14.08q24.54-7.51,49-15.31a13.59,13.59,0,0,1,8.66-.18c4.71,1.5,9.51,2.7,14.29,4a5.19,5.19,0,0,1,3.27,2.26c3.18,4.88,8.21,6.16,13.59,6.64.8.07,1.73.09,1.91-.92.21-1.21-.78-1.43-1.68-1.61-1.45-.29-2.93-.49-4.36-.86a10.82,10.82,0,0,1-5.44-3c2.45-.26,4.24.82,6.15,1.24,1.07.24,2.3.77,2.69-.77s-1.05-1.7-2-2q-30.07-8.16-60.16-16.27L281,214.78c-.87-.24-2.18-.18-1.17-1.81,5-8,3.68-16.51,1.76-25A48.41,48.41,0,0,0,276.32,175.1Z"/><path class="cls-2" d="M174.37,457.8c-3.45-6.5-6.72-13.11-10.44-19.46-2-3.44-2.07-6.24-.37-9.9,3.78-8.15,6.89-16.62,10.45-24.89,1-2.3.38-3.39-1.7-4.37-7.05-3.35-13.72-7.47-21-10.44-1.74-.72-1.27-2-1.27-3.22q-.06-32.24-.05-64.47c0-4.35,0-8.71,0-13.07,0-1.05.34-2.51-1.16-2.62-1.71-.12-1.58,1.41-1.58,2.59q0,20.49,0,41c0,12.27.09,24.54-.09,36.81,0,3,1.13,4.42,3.61,5.64,6.22,3,12.3,6.37,18.49,9.44,1.89.94,2,1.87,1.19,3.69-3.71,8.73-7.21,17.56-10.91,26.3a6.06,6.06,0,0,0,.33,5.83c4,7.29,7.69,14.73,11.61,22.05.86,1.61,1.12,2.72-.49,4s-2.1,3.5-2.16,5.64c-.08,2.7-1.06,4.64-3.94,5.48a46.49,46.49,0,0,0-7.17,2.84c-1.95.94-2.65.55-3.11-1.59-3.06-14.32-6.26-28.6-9.38-42.9-3.38-15.46-6.6-31-10.17-46.37-1.1-4.73-.18-9.24.07-13.85.13-2.27.44-4.54.56-6.81.06-1.08.62-2.69-1.15-2.84s-1.59,1.45-1.69,2.58c-.64,6.9-1.2,13.81-1.85,20.71-3.25,34.2-5.87,68.45-8.58,102.7-.17,2.22-.52,3.09-3,1.83a23.22,23.22,0,0,0-10.67-2.24c-1.1,0-2.41,0-2.33,1.53.07,1.36,1.35,1.22,2.3,1.24a23.21,23.21,0,0,1,8.56,1.65c-4.62,1.9-8.65,3.57-12.69,5.22-1.93.79-3.87,1.51-5.79,2.31-.88.38-2.08.72-1.55,2.05s1.57.85,2.52.47c4.87-1.94,9.73-3.89,14.61-5.8q25.14-9.85,50.29-19.67a9.31,9.31,0,0,1,1-.29c.66.4.45.9.34,1.35-2.31,9.57-.08,18.24,5.32,26.23,1.08,1.6.89,2.25-.88,3C151.71,515.05,132.86,523,114,530.87a30.42,30.42,0,0,1-13.59,2.67c-8-.48-12.8-5.36-12.92-13.37-.16-10.75,1.86-21.29,3.25-31.87,3.19-24.24,5.76-48.54,8.69-72.81,3.24-26.92,6.64-53.82,10-80.73.22-1.77.55-3.53.63-5.31.31-7.09,4.46-11.16,10.42-14.25,11.14-5.78,22.16-11.81,33.13-17.91,2.24-1.24,2.84-.83,3.45,1.46q10.08,37.53,20.31,75,9.31,34.07,18.84,68.06c.61,2.19.68,3.18-2.12,3a31.64,31.64,0,0,0-10.81,1.62C175.92,448.68,174.83,450.17,174.37,457.8Z"/><path class="cls-3" d="M125.61,269.28c-3.65,2.69-7.72,4-11.46,5.93-6.45,3.31-6.5,3.25-6.94-4-.18-3.07-.2-6.14-.39-9.2-.25-4-.61-4.16-4.24-2.77q-12.47,4.74-24.94,9.45c-.81.31-1.67.49-3,.86.75-5,1.38-9.64,2.2-14.28,1.43-8.22,1.48-8.2-6.74-8.59-9.59-.46-19.17-1-28.77-1.37-2.91-.09-2.75-.9-1.55-3,6.73-11.76,13.34-23.57,20-35.35,2.15-3.79,2-4.14-2.35-4.6Q35.34,200,13.21,197.62c-.87-.09-2.06.14-2.44-.71s.75-1.49,1.34-2.09C22.45,184.19,32.77,173.54,43.2,163c1.79-1.81,1.81-3,.06-4.89C31.15,145.19,19.14,132.2,7.1,119.23c-.47-.5-.91-1-1.4-1.53-1.47-1.5-1.08-2.07.91-2.56,16.68-4.13,33.32-8.41,50-12.53,5.72-1.42,5.87-1.32,3.81-6.64C56.68,86.29,52.7,76.7,49,67,44,53.89,38.62,40.92,33,28.05a5.66,5.66,0,0,1-.17-1.13c3.83.59,7.13,2.3,10.47,3.8C54.78,35.91,65.77,42,76.7,48.16c9.55,5.42,18.84,11.25,28.14,17.06,2,1.24,3.13,1.26,4.59-.78C120.86,48.3,130.92,31.49,136,12.13c.42-1.62.66-3.28,1-5.12,1.51.74,2.09,2.16,2.74,3.5,5.95,12.28,9.75,25.26,12.54,38.56,1.16,5.52,2.31,11,3.3,16.59.43,2.45,1.36,3,3.84,2.33,14.35-3.72,27.5-9.8,39-19.22.3-.24.65-.43,1.38-.91.41,5.44-.55,10.41-1.59,15.36A217.07,217.07,0,0,1,187.91,97c-.91,2.36-.41,3.47,1.82,4.6,10.75,5.39,22.2,7.62,34.09,8.13.82,0,2-.45,2.37.57.17.52-.47,1.44-.93,2-5.78,7.66-11.66,15.26-14.73,24.54-.45,1.37-1.61,1.4-2.63,1.5a39.88,39.88,0,0,0-9.46,2.37c-1.32.48-1.62.15-2.38-1-3.17-4.82-2.85-10.21-3.3-15.58-.81-9.69-5.55-17-14.55-21.09a13.08,13.08,0,0,1-5.77-4.79c-2.2-3.27-4.77-6.31-7.18-9.45-.35-.45-.9-.91-1-1.41-.52-4.69-4-5.89-7.77-6.26a27.48,27.48,0,0,1-8.72-2.4c-12.12-5.33-24.44-5-36.69-.42a82.58,82.58,0,0,0-31.8,21.2c-10.63,11.31-15,25-13.95,40.3C66.29,153,69.74,165.75,73,178.5c3.44,13.53,7.6,26.83,14.24,39.2.51,1,.55,1.51-.3,2.27a26.61,26.61,0,0,0-3.5,3.62,19.37,19.37,0,0,0,4.19,27.35c4.5,3.12,9.62,3.07,14.5,1.09,3-1.2,4.58-.55,6.42,1.83a62.84,62.84,0,0,0,14,12.76C123.54,267.34,124.44,268.27,125.61,269.28Z"/><path class="cls-4" d="M210.09,249.69a47.19,47.19,0,0,1-14.71,16c-13,9.13-27.1,14.22-43.22,11.72a57.07,57.07,0,0,1-23.9-9.78c-6.75-4.68-13.2-9.73-18.4-16.19-1-1.22-2.08-2.22.13-3.35.79-.4,1.9-1.17,1.12-2.34-.92-1.36-1.89-.34-2.78.23a33.4,33.4,0,0,1-9.1,4.23c-5.38,1.51-10.46-.26-13.34-5-1.42-2.34-3-4.66-3.14-7.57q1.2-5.76,2.41-11.51c1.79-3.42,5-5.17,8.2-6.94.86-.48,1.78-.86,2.59-1.39a1.21,1.21,0,0,0,.41-1.8,1.27,1.27,0,0,0-1.55-.51c-.19.06-.37.15-.56.21-1.27.48-2.49,2-3.72,1.45-1.56-.64-2-2.6-2.67-4.1-4-9.1-7.69-18.33-9.93-28.06a20.9,20.9,0,0,1,.81-2.39c.53-2.18,2.13-5.12.49-6.51s-2.74-3.7-5-4.41l.12,0a5.34,5.34,0,0,1,.27-1.74c1.56-2.89,1-5.56.12-8.65-1.42-4.82-2.9-9.81-2.48-14.91.19-2.33-.4-3.17-2.49-3.35a3.87,3.87,0,0,1-.59-2.39c2.35.12,1.79-1.65,1.74-2.9-.06-1.7.38-2.62,2.3-2.47s2.69-.56,2.19-2.69c-.3-1.26.22-2.71.28-4.07,0-.57-.07-1.57-.32-1.64-2.91-.83-1.87-3.68-3.27-5.48,3.26-.66,4.6,1.44,6.06,3.26s2.71,4.52,6,3.55a2.76,2.76,0,0,1,1.75.12c2.2,1,2.34-.34,2.25-1.95.78-1.53,2.58-1.26,3.74-2.14s2.8-.78,2.75-2.67h0c2-.24,4.09-.48,4.21-3.23a.44.44,0,0,1,.32-.31c.46.51,1,.65,1.52.16a24.91,24.91,0,0,1,6.83-4.81c1.06-.53.89-1.36.32-2.19l.22-.12,3.27-.16c.76,1,1.87.36,2.76.64,3.57,1.13,4.93-.16,4.4-3.78-.1-.7.09-1.43,1-1.5a1.64,1.64,0,0,1,1.81,1.88c-.32,3.22,1.21,3.48,3.77,2.83a3,3,0,0,1,3.25.88,1.9,1.9,0,0,0,2.16.52c1.75-.57,2.33.88,2.06,1.94-.55,2.24.45,2.74,2.24,2.53,2.4-.29,2.81.89,2.72,2.95-.1,2.44-1.9,3.52-3.49,2.85-2.49-1-4.93-.69-7.38-.92a5,5,0,0,1-3.39-1.5c-2.86-3-3.54,3.35-6.3,1.55-.45-.3-.85.66-.83,1.27a4.73,4.73,0,0,0,.23,1.45c.33,1-.06,1.66-1,1.77-2.42.3-1.71,2.07-1.58,3.39.16,1.64,1.59,1.45,2.77,1.48,3.22.08,5.85-2.21,9-2.25l0,.06a9.29,9.29,0,0,0,2.58,5.14c.31.33.68.87.61,1.23-.16.74-1,.67-1.48.54-2.58-.63-5.09,1.89-7.72.1-.45-.31-1.11.21-1.56.64-.64.62-1.39.44-2.17.54-2.47.33-5-.45-7.41.52-.83.33-1.83.88-.86,1.42,1.93,1.07,1,2.78,1.48,4.15l0,0c-2.25-.1-5.35-2-5.39,2.58l-1.15.63c-.07-1.55-2.38-2-2.17-3.11.46-2.63-1.21-2.52-2.75-2.61-1.86-.1-3.75.1-5.6-.05-2.74-.22-2.3,2.29-2.94,3.61-.31.63-.35,2.9,1.81,3,1.7,0,1.55,1.3,1.3,2.33-.31,1.2.55,3.3-1.34,3.34-1,0-3.06,1.1-3.53-1.26a1.5,1.5,0,0,0-1.63-1.4l0,0a2.42,2.42,0,0,0-3.31-2.37c-2.28.65-5,.66-6.2,3.53-.88,2.07.22,4.08-.32,6s.32,2.27,1.92,1.6c.73-.3,1.37-.93,2.1-1,1.42-.2,3.28-.62,3.41,1.61.11,1.83.54,3.76-.41,5.53-.23.42-.72.82-.28,1.3s1.07.2,1.65.15c.76,0,1-2.64,2.24-.42.55,1,1.72,1.48,1.67,2.94a22.84,22.84,0,0,1-1.77,8.71c1.3-1.29,3.26-.31,3.14-.85-.69-3.11,1.94-2.88,3.6-3.82a6.3,6.3,0,0,1-.79-.48c-.84-.7-2.78-1-2.14-2.3.72-1.53,1.74.45,2.68.45,1.5,0,3.27.88,4.33-.87,1-1.58,2.43-3.07,1.66-5.23a6,6,0,0,1-2.77,2.62l-.22-.19c0-2.66,1.69-5.48-.71-7.93a1.19,1.19,0,0,1-.2-1.36c.2-.6,5.41-5.34,6-5.31,1.64.07,3.12.06,3.72-1.95a1.7,1.7,0,0,1,1.37-.91c2.93.83,2.81-1.51,3.41-3.12,8-3.78,16.41-4.93,25.11-4.84,1.52,0,1.94.7,2.29,2.06,1.35,5.35.8,10.62-.54,15.85-.31,1.23-.58,2.3.48,3.26.41,1.59,1.4,1.77,2.68,1s3.3-2,2.47-3.16c-1.71-2.35.23-4,.19-6,0-1.16.08-2.17,1.39-2.61a3.36,3.36,0,0,1,3,.71c1.09.75.85,1.87.23,2.89-.45.73-.17,1.49-.2,2.25-.08,2,2,3.33,1.74,5.06-.51,2.86,2.26,3.08,3.25,4.69.36.59,1.09-.23,1.35-1a7,7,0,0,1,3.55-4.07c.76,1.1-.77,2.24.44,3.18,1-.27,1.34-1.73,2.61-1.54l.57.86c-.57,1.24.94,2.47.05,3.66s-6,2.38-7.1,1.47c-1.48-1.18-2.59-.65-3.86,0l-1.58.27c-.13-.84-.35-1.62-1.46-1.34a2.6,2.6,0,0,0-1.91,1.68,1.88,1.88,0,0,0,.8,2.32,4.47,4.47,0,0,1,2.57,3.29c.46,1.81,1.58,2.29,3.25,2.06l.62,1A4,4,0,0,0,154,186c.87.16,2.57-.12,1.73,1.37-2.12,3.78,1.25,3.08,2.85,3.74.76.32,1.7-.15,2.5.54,1.93,1.66,8.86-.49,9.65-2.94a2.34,2.34,0,0,0,0-.59h0c1.38,0,2.86.28,4.13-.11,3.78-1.17,5.35-.13,5.45,3.81.05,1.57-.45,2-2.1,2.41-4.1.9-8.21-.54-12.28.45-1.58.39-4.22.09-4.21,1.72,0,2.12,2.75,1.63,4.34,1.81s2.45.46,2.55,2.09l0,0c-1.36-.46-2.14.31-3,1.2-1.92,1.9-1.8,4.49-1.63,6.6.1,1.26,2.43,2.62,4.47,2.37s4.36-.93,2.52,2.68c-.79,1.55,1,4.27,2.36,3.93,2.54-.62,4.49-.68,5,2.53a.83.83,0,0,0,.67.47c2.85-.57,1.5,1.19,1.39,2.36s-.05,2.17-.06,3.26c0,1.45,0,2.78,2,2.95s2.24-1,2.17-2.57c0-1.21.3-2.29,1.81-2.07,2.08.3,3.22,3.39,1.5,4.46-3.29,2.05-2.46,4.75-2,7.55.07.42.54.92-.24,1.21a7.85,7.85,0,0,1-3.63-4.41,3,3,0,0,0-3.73-2.14c-.92.24-2.72-.19-2.59,1.71.12,1.67,1.47,1.65,2.67,1.57,1.59-.1,2.06.65,2,2.12s.78,2.84,2.25,2.48c3.59-.89,2.41,1.17,2.06,2.88-.52,2.52.72,6.9,2.65,7.35,2.7.62,2.68,2.18,2.53,4.18-.07,1,.29,2.2,1.36,1.65,2.1-1.06,1.54-4.81,4.74-5l-.25-1.46h0c.87,0,1.27-.35,1.12-1.24v0c1.8.42,2.32-.76,2.45-2.13.17-1.72.34-3.49-1.11-5.15,1.39,0,2.44-.12,3.27-.92,1.46-1.41,2.65-3.14,5.1-3.15,1,0,1.11-1.2,1.11-2.13s0-2-1-2.22c-4-.91-2.44-3.22-1.73-5.62s3-6.08,1.2-7.46c-3.63-2.7-.45-7.56-4.13-9.69,0,0,0-.18,0-.28.09-1.52,4-5.55,5.5-5.63,1.12-.06,2.47.77,1.76,1.58-1.54,1.78.43,2.88.32,4.32s.92,1.17,1.87.79,1-1.4,1.41-2.15c.47-.91,1-1.91,2.19-1.4s.87,1.48.57,2.51c-1.1,3.76-1.06,3.77,2.65,3.81.06.6.11,1.19.17,1.78-1.82.25-2.38,1.41-2.42,3.11-.08,3.51-.33,7,.53,10.47.26,1.06.59,2.82-.66,3.22-3.29,1.05-2.23,2-.33,3.44.45.33.46,1.25.67,1.89l.05.07c-3.46-.38-8.07,4.33-6.19,6.61s.83,3.62.07,5.46A4.66,4.66,0,0,0,210.09,249.69ZM109.8,190.6a29.17,29.17,0,0,0,10.43-1.84A33.16,33.16,0,0,0,130.59,182c.69-.62,1.24-1.34.37-2.27-.72-.76-1.42-.47-2.11,0a16.9,16.9,0,0,0-1.42,1.06c-8.81,7.57-18.45,9.33-29.07,4.14-1.07-.52-2.12-1-2.76.37s.52,1.75,1.38,2.21A26.58,26.58,0,0,0,109.8,190.6ZM84,145.85c1.14.13,2.14,0,2.25-1.32.09-1.12-.75-1.51-1.74-1.55-2-.07-4,.34-5.53-1.85-.56-.83-2.3-.16-3.12.58a2.1,2.1,0,0,0,.2,3.36c.84.71,1.32,2.88,2.87,1.64S82.16,145,84,145.85Zm28.11-29c-.89,0-2-.07-1.87,1.26.12,1.61,1.68,1.09,2.57,1.43s1.43-.51,1.44-1.38C114.26,116.59,113.06,116.88,112.11,116.82ZM98.48,157.47c-.64.05-.77.48-.76,1s.24,1,.81,1,.87-.36.81-.95A1.25,1.25,0,0,0,98.48,157.47Zm-14.33,16.4c-1.37.43-2.29.34-3.14,1.42C82.45,175.76,83.17,175.33,84.15,173.87Zm2.11-5.6c-.05-.41-.17-.77-.65-.81s-.77.11-.86.57a.72.72,0,0,0,.76,1A.73.73,0,0,0,86.26,168.27Zm19-9.21c-.3-.24-.48-.49-.67-.51s-.64.12-.69.28c-.14.45.19.68.6.66C104.73,159.48,104.94,159.26,105.28,159.06Zm21.88-45c-.06-.17-.09-.43-.21-.48s-.32.11-.49.17c.07.17.09.43.21.48S127,114.07,127.16,114Z"/><path class="cls-5" d="M197.44,286.13c1.92-1,1.56.72,1.89,1.6.08,5.21,2,9.91,4.1,14.54,1,1.37.67,3.29,1.84,4.6-.18,4.13,1.64,7.84,2.69,11.67,2.16,7.88,4.87,15.62,7.49,23.37.72,2.12.7,4.66,2.86,6.13a.21.21,0,0,1,.05.3c-.52,2.72,1.06,5,1.75,7.38,2.15,7.63,4.72,15.14,6.81,22.8,1.94,7.08,4.44,14,6.93,20.94,2.56,7.1,4.1,14.51,6.8,21.57.61,1.59,2.22,3.44.81,5.49-2.17-1.94-3.68-4.6-6.72-5.6-6.09-2-11.05.22-15.59,4-6.54,5.39-11.24,12.39-16.31,19.06-.57.75-.83,2.13-1.94,2s-1-1.57-1.2-2.45q-7.14-25.83-14.2-51.7-11.43-41.54-22.87-83.08a13,13,0,0,1-.26-1.75c1-1.92.57-3.46-1.16-4.68a.25.25,0,0,1-.08-.36c1-3.94,1.53-4.31,5.47-3.89.49.06,1,0,1.48,0,6.69.53,13.07-1.12,19.27-3.22,1.73-.59,4.48-1.14,4.61-4l.11,0c1.84.88,2.82.59,2.32-1.71l.05,0C197,289.65,197.14,287.82,197.44,286.13Z"/><path class="cls-6" d="M125.63,128.83c-3.19,0-5.82,2.33-9,2.25-1.18,0-2.61.16-2.77-1.48-.13-1.32-.84-3.09,1.58-3.39.9-.11,1.29-.79,1-1.77a4.73,4.73,0,0,1-.23-1.45c0-.61.38-1.57.83-1.27,2.76,1.8,3.44-4.53,6.3-1.55a5,5,0,0,0,3.39,1.5c2.45.23,4.89-.12,7.38.92,1.59.67,3.39-.41,3.49-2.85.09-2.06-.32-3.24-2.72-2.95-1.79.21-2.79-.29-2.24-2.53.27-1.06-.31-2.51-2.06-1.94a1.9,1.9,0,0,1-2.16-.52,3,3,0,0,0-3.25-.88c-2.56.65-4.09.39-3.77-2.83a1.64,1.64,0,0,0-1.81-1.88c-.93.07-1.12.8-1,1.5.53,3.62-.83,4.91-4.4,3.78-.89-.28-2,.31-2.76-.64,0-1.69,2.87-1.4,2.39-3.43a92.86,92.86,0,0,1,17.2-7.5c7.94-2.55,16.2-3.63,24.27-5.56a16,16,0,0,0,6.5-2.79c1.1-.89,1.64-.61,2.35.33,1.85,2.44,3.75,4.84,5.61,7.28.29.37.72,1.06.59,1.26-2.3,3.48,1,3,2.53,3.43,7,2.06,12.36,6,15.28,12.93.67,1.6.85,2.5-1.51,2.3-15.95-1.41-29.58,3.63-40.95,14.88-.67.66-1.31,1.86-2.3,1.43-.54-.23-.73-1.52-.89-2.37-1.28-6.92.36-13.36,3.35-19.55.46-1,1.48-2,.17-2.84-1.51-1-2.14.63-2.62,1.57-7.52,14.7-5.72,29.65,10.12,39.24a50.87,50.87,0,0,0,9.64,4.56c1.09.38,2.43,1.29,3-.37s-1.1-1.86-2.14-2.24c-5.81-2.15-11.36-4.79-15.51-9.53-4.54-5.19-4.64-4.61.52-9.4,10.39-9.64,22.74-13.53,36.76-12.84,2.93.14,4.3,1,4.39,4.26a56,56,0,0,1-2.16,15.52c-.28,1.11-1.05,2.51.59,3,2,.63,1.84-1.3,2.24-2.37s.69-2.44,1.12-4c1.68,1.88,2,4,2.72,6,.4,1.14-.61,1.2-1.31,1.51-5,2.19-6.45,4.81-5.43,10,.53,2.72-1.15,3.94-3.14,4.5-4.27,1.19-8.49,2.82-13.05,2.58-.83,0-1.75,0-1.79,1s.82,1.66,2,1.69a31.11,31.11,0,0,0,9-1.48c2-.55,3.3-.49,2.85,2.15a3.75,3.75,0,0,0,.2,2.05c1.31,3,1.64,5.44-.39,8.71s.61,6.78,3,9.27c2,2.07,1.79,3.44.14,5.34s-2.9,3.77-4.36,5.64c-.42.53-.9,1.28-1.63,1.14-4.3-.85-8.14.92-12.11,2-.1-1.63-1-1.92-2.55-2.09s-4.33.31-4.34-1.81c0-1.63,2.63-1.33,4.21-1.72,4.07-1,8.18.45,12.28-.45,1.65-.37,2.15-.84,2.1-2.41-.1-3.94-1.67-5-5.45-3.81-1.27.39-2.75.09-4.13.11,1.92-2.85,1.45-5.91.45-8.84-3.12-9.09-8.7-16.76-14.47-24.3-.65-.85-1.49-1.79-2.69-.69s-.15,1.84.36,2.59c1.71,2.52,3.5,5,5.26,7.49-1.27-.19-1.63,1.27-2.61,1.54-1.21-.94.32-2.08-.44-3.18a7,7,0,0,0-3.55,4.07c-.26.74-1,1.56-1.35,1-1-1.61-3.76-1.83-3.25-4.69.31-1.73-1.82-3.06-1.74-5.06,0-.76-.25-1.52.2-2.25.62-1,.86-2.14-.23-2.89a3.36,3.36,0,0,0-3-.71c-1.31.44-1.41,1.45-1.39,2.61,0,2-1.9,3.66-.19,6,.83,1.15-1.17,2.42-2.47,3.16s-2.27.55-2.68-1c2.15-.18,2.25-2.08,2.63-3.48,4.78-17.42-4-29.13-18-36.7-1.05-.56-2-.6-2.57.41-.64,1.17.33,1.76,1.25,2.22C122.16,126.28,124.19,127.09,125.63,128.83Z"/><path class="cls-7" d="M231.38,109a14,14,0,0,0,2.47-3.66l1,.12c.06,1,.94,1.49,1.47,2.16,2.5,3.17,4,3.37,7.17.92,3.79-2.91,6.08-7,7.93-11.24s4.43-7.4,9.16-8.37a14.14,14.14,0,0,0,2-.64c3.7-1.33,5.62-4.1,6.27-7.86.92-5.2-1.58-8.89-5.38-12,0-.37,0-.74,0-1.11a.91.91,0,0,1,.24-.48l.84-.77.73-1a82.5,82.5,0,0,0,10.17,12.46A47.38,47.38,0,0,0,292.43,88.4c3.38,1.24,7,1.47,10.27,3a.52.52,0,0,1-.14.48A1.54,1.54,0,0,0,301.45,93c-.61,1-.66,2.2-1.66,2.93a1.39,1.39,0,0,0-.65,1.32l0,0-.61.62h0c-1.48.13-1.81,1.13-1.83,2.38l0,0-.63.63,0,0c-.51,0-.93.17-1.06.74a.85.85,0,0,1-.12.38c-1.31.19-1.57-.95-2.18-1.67-2.83-3.36-6.18-5.76-10.95-6.2.43,1.65.82,2.87,1.05,4.12.64,3.38,1.43,6.78.25,10.19-1.69,4.91-5.59,7.47-10.14,9.16-8.05,3-16.45,3.76-25,3.52-1.05,0-2.23-.4-3.36.46,2.65,1.69,5.44,2.27,8.15,3,8,2.16,16.16,2.16,24.35,1.52a.23.23,0,0,1,0,.3,2,2,0,0,0-1.28,1.84l0,0a7.21,7.21,0,0,0-2.94,3.61h0c-.75.89-1.72,1.64-1.79,2.95h0c-2.71,1.09-4,3.33-4.77,6l0,0-.59.62,0,0a6.9,6.9,0,0,1-4.76.77c-15.82-3-26.31-12.77-33.9-26.32.79-1.75,3.39-2.41,2.95-4.9a1.06,1.06,0,0,1,.12-.34A1.15,1.15,0,0,0,231.38,109ZM258.77,111c0-2.92-2.17-5.48-4.16-5.31s-2.9,1.63-3,3.66c-.11,2.5,1.23,3.78,3.47,3.76C256.79,113.05,258.63,112.52,258.77,111Zm4.43-1.83c.24,1,1.6,1,2.61,1.12a3.6,3.6,0,0,0,4-3.14c.23-1.36-1-2.52-2.56-2.69C265.86,104.27,263.25,107.11,263.2,109.12Z"/><path class="cls-6" d="M218.06,200.55c-10.73-.08-14-4.48-11.22-13.54,2.74-8.79,7.51-16.08,16-20.41,1.29-.66,2.75-2,4-.94s.65,2.81.29,4.23c-1.42,5.66-4.49,10.51-7.65,15.31-.76,1.16-1.57,2.28-2.38,3.4-.52.73-1.22,1.49-.32,2.33s1.84.22,2.49-.58a46.56,46.56,0,0,0,6.08-9.45c.87-1.86,1.42-2.31,3.21-.77a17.55,17.55,0,0,0,13.08,4.58,6.23,6.23,0,0,0,2-.36c1-.44,2.8-.38,2.39-2s-1.94-.93-3-.69c-5.64,1.24-10-1.36-14-4.74-1.58-1.32-.62-2.71.43-3.48,4.77-3.49,9.41-7.23,15.15-9.17A3,3,0,0,1,248,165c9,8.15,6.89,23.7-4.07,28.73A73,73,0,0,1,218.06,200.55Z"/><path class="cls-8" d="M350.81,449a35.24,35.24,0,0,0-6.5-8.33,45.09,45.09,0,0,0-15.8-14.37c-2-1.06-3.29-3.15-5.71-3.4.2-3.24.65-6.49-.48-9.67,2.1.26,3.76,1.91,5.95,1.86h0c2.09,1.77,4.21,3.46,7.13,3.57h0c1.2,2.13,3.28,3.15,5.35,4.16h0a1,1,0,0,0,1.2.61h0c0,1.23.89,1.25,1.78,1.19h0c.38,1.57,1.62,2.05,3,2.37h0c.6,1,1,2.14,2.38,2.39h0c1.21,1.4,2.15,3.11,4.17,3.57h0c0,1.19.72,1.65,1.78,1.78h0a.58.58,0,0,0,.6.6h0a1.66,1.66,0,0,0,1.8,1.79h0a1,1,0,0,0,.6,1.2v0a2.48,2.48,0,0,0,2.38,2.39h0a1,1,0,0,0,.6,1.19h0c.08,1.1.57,1.8,1.78,1.79h0l.05,1.17A1.74,1.74,0,0,0,364,446v0c1.67,3,2.19,6.78,5.35,8.93h0c0,.67-.14,1.37.61,1.78h0c-.08,1.43.63,2.64,1.07,3.92,1.67,4.76,3.7,9.41,4.27,14.49l-12,2.54a19.21,19.21,0,0,1-1.83-4.91c-2.13-7.55-4.59-15-9.44-21.37-.22-.59-.43-1.17-.64-1.75Z"/><path class="cls-9" d="M229.51,163.23c-.48-.08-1-.17-1.46-.24-3.39-.54-3.39-.54-1.75-3.51,1.42-2.56-.71-7.58-4.05-8.69-2.36-.79-4.17-2.61-6.63-3.12a1.48,1.48,0,0,1-1.22-1.77c.81-2.13-.29-3.88-.9-5.7a6,6,0,0,1,.62-5.28c1.89-3.16,2-7.45,6-9.29,1.46-.67,1.22-2.91,2.89-3.5,1.32,2.41,2.56,4.87,4.83,6.57h0a1.67,1.67,0,0,0,1.78,1.78h0l.6.6h0l.59.59a23.92,23.92,0,0,0,7.72,6.56l.59.57,0,0,.58.57v0c0,1.19.85,1.24,1.75,1.15l.07,0a6.33,6.33,0,0,0,5.27,2.93l.08.05c.2.54.63.59,1.12.55l.06.05.64.52.47,0a8.58,8.58,0,0,0,5.37,1.88c0,.36.06.73.08,1.09-.91,1.71-3.85,3.19-.62,5.38-.32,1.49.85,3.58-1.7,4.17-.35-3.91-1.21-4.37-4.81-2.84a35.78,35.78,0,0,1-6.06,2.14C236.77,157.61,233.07,160.26,229.51,163.23Z"/><path class="cls-6" d="M88.15,126.31c.09,1.61-.05,2.9-2.25,1.95a2.76,2.76,0,0,0-1.75-.12c-3.31,1-4.46-1.59-6-3.55s-2.8-3.92-6.06-3.26c1.4,1.8.36,4.65,3.27,5.48.25.07.34,1.07.32,1.64-.06,1.36-.58,2.81-.28,4.07.5,2.13-.29,2.84-2.19,2.69s-2.36.77-2.3,2.47c0,1.25.61,3-1.74,2.9,0-.49,0-1,0-1.47,0-7,.59-13.75,3.16-20.45,1-2.66,3.07-5.31,2.65-8.52h0c.38-.05,1,0,1.09-.16,1.75-3.3,4.95-5.63,6.2-9.25l.53-.59.63-.64h0c1.37.21,2-.36,1.82-1.75h0a3.28,3.28,0,0,0,2.61-1C91,94.14,94.15,91.41,98,89.61c.93-.44,1.79-1,1-2.22l.2-.06c1.17-.2,2.82.36,2.78-1.76l.17,0c5.67-.43,10.52-3.51,15.87-5a49.78,49.78,0,0,1,16-1.57,11.45,11.45,0,0,1,6.09,1.9c-.45,1.36-2.29,1-2.55,2.41C125,87.38,113.28,93.26,101.69,99.48c-6.61,3.53-13,7.46-18.36,12.8-3,3-4.39,6.26-3.38,10.44-1,1-.29,1.09.55,1.18l0,0,.64.63,0,0c0,1.32.88,1.28,1.8,1.19l0,0C84.47,127,86.38,126,88.15,126.31Z"/><path class="cls-3" d="M82.54,119.56a7.5,7.5,0,0,1,2.67-5.43c5.43-5.3,11.85-9.22,18.5-12.7a285.21,285.21,0,0,1,26.73-12.71,70.46,70.46,0,0,1,19.75-5,21.3,21.3,0,0,1,8.52.64c1.24.39,2.45,1,2.71,2.45s-.93,2.29-2,3c-3,1.95-6.46,2.5-9.85,3a119.54,119.54,0,0,0-35.16,11c-6.89,3.41-12.68,8.36-18.52,13.22a33.36,33.36,0,0,1-9.53,5.32C83.66,123.42,82.52,122.52,82.54,119.56Z"/><path class="cls-9" d="M306.3,86.56c-5.47.56-10.44-1.44-15-3.8-7.71-4-14.5-9.28-19.39-16.66-1.11-1.67-2.06-3.45-3.09-5.18a2.63,2.63,0,0,0,1.79-2.33l0,0c1.21,0,1.18-.9,1.15-1.76,0-.21.05-.41.07-.62,2.05.31,2.69-1.59,3.9-2.57,1.24.54.91,2.56,2.58,2.57l0,0A1.6,1.6,0,0,0,280.11,58l0,0,.65.55a90.16,90.16,0,0,0,8.8,7.16c.73,2.35,2.55,3.25,4.79,3.56l0,0c0,1.21.86,1.24,1.75,1.16l0,0c0,1.21.86,1.22,1.74,1.15l.05,0c.16,1.42,1.25,1.58,2.34,1.73l.05,0a1,1,0,0,0,1.13.56l.05,0c.16,1.62,1.4,1.08,2.33,1.17l0,0c.19,1.6,1.41,1.08,2.35,1.15l0,0c.49,1.34,1.85,1.47,2.86,1.61,1.72.23,2,1.11,1.88,2.53v0a3.37,3.37,0,0,0-2.35,3.54l0,0C307,84.16,306.8,85.49,306.3,86.56Z"/><path class="cls-6" d="M195.29,272.46c.6,2.49,1.13,5,1.85,7.45.49,1.66-.49,2.63-1.41,3.63-8,8.62-18.11,11.9-29.48,10.52-9.66-1.18-7.31.56-10-8.51-.34-1.13-.52-2.3-.78-3.46a60.21,60.21,0,0,0,14.34-.94c7.61-1.65,15.09-3.94,21.64-8.38A3.61,3.61,0,0,1,195.29,272.46Z"/><path class="cls-5" d="M257.58,475.14c-5.77-3.2-11.58-6.31-17.29-9.61-4.52-2.6-9-5.26-13.5-7.41,2.93-3.12,5.65-6.44,8.8-9.28,5.48-4.93,8.82-10.6,7.76-18.23A87.71,87.71,0,0,1,248,443.66c1.87,6.18,3.85,12.33,5.79,18.48C255.15,466.44,257,470.62,257.58,475.14Z"/><path class="cls-6" d="M209.63,483c4,3.08,5.9,2.63,8.25-1.9,2.17-4.18,3.12-8.73,4.05-13.29.2-1,.35-2.11-1.09-2.28s-1.65.92-1.84,1.89a56.33,56.33,0,0,1-3.14,11.42c-.53,1.24-.92,3.15-2.3,3.2-1.59.06-2.14-1.9-2.62-3.19-2.66-7.05-3.67-14,1.6-20.49,1.58-1.93,3.39-3.52,6-3.17,2.75.37,3.81,2.69,4.44,5,4.41,16.38,2.22,25.8-12.19,36.64-2.71,2-3,1.86-3.25-1.49C207.17,491.12,207.46,486.94,209.63,483Z"/><path class="cls-3" d="M256.54,178.55a18.41,18.41,0,0,0-.76-6.13c-.51-1.36-.09-1.82,1.32-1.5,4.43,1,8.93,1.76,13.27,3.05,2.54.75,4,3.16,5.19,5.45A46.9,46.9,0,0,1,280,193.51c.29,1.77-.1,2.25-2,1.81-7.68-1.81-15.38-3.56-23.11-5.18-1.84-.39-1.7-.84-1-2.25A19,19,0,0,0,256.54,178.55Z"/><path class="cls-10" d="M277.2,126c-8.19.64-16.34.64-24.35-1.52-2.71-.74-5.5-1.32-8.15-3,1.13-.86,2.31-.49,3.36-.46,8.53.24,16.93-.54,25-3.52,4.55-1.69,8.45-4.25,10.14-9.16,1.18-3.41.39-6.81-.25-10.19-.23-1.25-.62-2.47-1.05-4.12,4.77.44,8.12,2.84,10.95,6.2.61.72.87,1.86,2.17,1.67-.21,1.72-1.84,2.67-2.32,4.25a.45.45,0,0,0-.21.35,8.76,8.76,0,0,0-2.29,3.1l-.06.08a11.49,11.49,0,0,0-2.73,3.61.62.62,0,0,0-.22.42,1.3,1.3,0,0,0-.75,1.09l-.1.08a6.94,6.94,0,0,0-2.18,3l0,.1a4,4,0,0,0-1.54,1.88l-4.08,5.39-.69.61Z"/><path class="cls-9" d="M284.9,47.91h.55c.21,1.6,1.48,1,2.39,1.14h.61c.62.85,1.54.52,2.36.59h0c.43.71,1.13.57,1.79.59h0a1.08,1.08,0,0,0,1.2,1.19h.56c1.47,1.55,3.08,2.86,5.36,3h0l.59.66c0,.16,0,.33,0,.5a6.84,6.84,0,0,0,4.13,3l0,0c0,.81.43,1.14,1.18,1.18h0a1.08,1.08,0,0,0,1.2,1.19h0a1.67,1.67,0,0,0,1.78,1.79h0a1.08,1.08,0,0,0,1.19,1.18h0c.34,2.5,2,4.22,3.57,6,0,.19,0,.37,0,.55,0,1.58,0,3.16,0,4.74-2.6.91-4.82-.58-6.77-1.64a83.77,83.77,0,0,1-11.47-7.38,140.36,140.36,0,0,1-14.85-12.79,3.62,3.62,0,0,1-.79-4.34l.56-.56,0,0C281.71,48.24,283.41,49,284.9,47.91Z"/><path class="cls-9" d="M198.19,204.09c-3,3.13-3.26,7.67-6,11.07s-2.17,3.7-6.24,1.35a24.62,24.62,0,0,1-6-4.74c-1.33-1.46-2.57-3.23-.26-5,.14-.12.36-.33.33-.46-.61-3.81,3.06-4.44,4.83-6.46,1.24-1.42,3-2.35,2.68-4.76-.15-1.19,4.22-3.79,5.5-3.57.67.11,1.36.16,2,.24,1.61,1.91,4.07.91,6,1.74.39.2.78.4,1.16.61.23,1.76.46,3.52.68,5.29l-.64.65a1.07,1.07,0,0,0-1.18,1.19h0A3.45,3.45,0,0,0,198.19,204.09Z"/><path class="cls-6" d="M195.65,248.08l.25,1.46c-3.2.18-2.64,3.93-4.74,5-1.07.55-1.43-.68-1.36-1.65.15-2,.17-3.56-2.53-4.18-1.93-.45-3.17-4.83-2.65-7.35.35-1.71,1.53-3.77-2.06-2.88-1.47.36-2.27-1-2.25-2.48s-.45-2.22-2-2.12c-1.2.08-2.55.1-2.67-1.57-.13-1.9,1.67-1.47,2.59-1.71a3,3,0,0,1,3.73,2.14,7.85,7.85,0,0,0,3.63,4.41c.78-.29.31-.79.24-1.21-.49-2.8-1.32-5.5,2-7.55,1.72-1.07.58-4.16-1.5-4.46-1.51-.22-1.86.86-1.81,2.07.07,1.56-.1,2.73-2.17,2.57s-2-1.5-2-2.95c0-1.09-.05-2.18.06-3.26s1.46-2.93-1.39-2.36a.83.83,0,0,1-.67-.47c-.49-3.21-2.44-3.15-5-2.53-1.4.34-3.15-2.38-2.36-3.93,1.84-3.61-.36-2.95-2.52-2.68s-4.37-1.11-4.47-2.37c-.17-2.11-.29-4.7,1.63-6.6.91-.89,1.69-1.66,3-1.2.22,1-.73,1.28-1.22,1.85-.71.84-2.18,1.62-.82,2.87,1.14,1.06,2.4.26,3-.77,1.26-2.22,3.48-2.39,5.52-3,.72-.2,1.8-.57,2.18.22a2.72,2.72,0,0,1-.42,2.52c-2.85,4.53-2.74,5.6.94,9.28,2.68,2.69,5.37,5.36,8.95,6.93,2,.9,3.94,1.18,5.9-.1,2.21-1.45,2.61.1,2.58,1.76,0,4-2.79,6.35-5.82,8.27-1,.64-2,1.14-1.49,2.35.57,1.43,1.67,1,2.67.31.74-.53,1.47-.68,1.94.3s2,1.85,1.79,3.21c-.15.85-1,.48-1.65.07-2-1.21-3.66-.39-5,1.17-1.79,2.16-1.33,7.27.75,9.76C190.29,249.44,192.21,249.66,195.65,248.08Z"/><path class="cls-6" d="M186.83,472.93a26.89,26.89,0,0,1,16.94,7.35,4.74,4.74,0,0,1,1.48,3.44c0,.9.06,1.95-.71,2.46s-1.31-.57-1.92-.95a10.81,10.81,0,0,0-5.86-1.81c-6.62.09-12.74,1.74-17.86,6.1-1.25,1.06-2.22,1.12-3.35.26-2.68-2-5.07-4.28-4.8-8s2.86-5.44,5.84-6.83C179.8,473.44,183.24,473.14,186.83,472.93Z"/><path class="cls-9" d="M218.93,452.57c-.72.67-1.5-.24-2.24.08-1.78.76-4.31,0-5,3-.17.71-2.08,2.71-3.15,1.86-1.23-1-2.49-2.79-1.54-4.87,7.89-9.91,16.14-19.48,25.59-27.95a1.31,1.31,0,0,0,1.24-.62c.52,1.73,2.58,1.2,3.47,2.38,0,.6,0,1.19.05,1.79-.2.13-.74-.27-.61.39l.59-.41c1.65.64,1.78,2.1,1.93,3.56a3.54,3.54,0,0,0-1.12.28c-7.27,4.88-12.62,11.72-18.48,18A2.83,2.83,0,0,0,218.93,452.57Z"/><path class="cls-6" d="M207.46,479.26c-3.87-3.17-7.74-6-12.41-7.49a27.13,27.13,0,0,0-17.77,0c-4.27,1.47-6.2-.14-5.43-4.7a5.74,5.74,0,0,1,3.61-4.38,21.47,21.47,0,0,1,13.95-1.38,29.89,29.89,0,0,1,15.43,8.9C207.22,472.8,206.52,476.21,207.46,479.26Z"/><path class="cls-6" d="M205.79,466.58c-3.06-1.89-5.95-3.78-8.95-5.49-4.72-2.7-9.87-3.24-15.21-2.85-1.16.08-3,1.38-3.45-.84s-1.39-4.87,1.07-6.24a27.71,27.71,0,0,1,19.5-2.89,3.84,3.84,0,0,1,2.19,1.88,49,49,0,0,1,5.57,11.09C207.27,463.19,206.3,464.85,205.79,466.58Z"/><path class="cls-6" d="M203.27,492.52c-3.18,4.8-7.91,6.72-13.41,7.24-.74-1.07-1.38-1.14-1.85.2l-1.2.77c-.85.07-1.57.37-1.66,1.33s.85,1.2,1.53,1.51c3.54,1.61,7-.35,10.42-.58,1.76-.11,2,.19,2.23,1.51l-.23-.05c-1.78-.19-3.56-.36-4.56,1.64a16.82,16.82,0,0,1-10.7,0c-.64-2.38-2.9-1.53-4.39-2.22l.05,0c-1-3.19-2.87-6.4.49-9.4.58-.52.27-1.5.14-2.28l0,0a.67.67,0,0,0,.66-.63l-.05,0a4.23,4.23,0,0,0,3.4-.74c4.11-2.76,8.68-3.4,13.47-3.31,1.92,0,3.64.19,3.53,2.8C201.05,491.86,202.28,492.11,203.27,492.52Z"/><path class="cls-11" d="M272.45,213.9c-4.39-.05-6.75-3-8.55-6.37a50.15,50.15,0,0,1-4.44-11.28c-.38-1.49-.53-2.5,1.66-2q8.5,2,17.06,3.74c1.64.34,2.49,1.1,2.35,2.78-.25,3.05-.47,6.11-1.8,9A6.52,6.52,0,0,1,272.45,213.9Z"/><path class="cls-6" d="M213.74,169c-10.84-.18-20.07-5.94-22.73-13.13-1.17-3.17-.31-5.92,2.21-7.17,1.24-.6,2.12-.65,2.82.88,3.74,8.18,10.54,11.32,19.15,11.47,1.86,0,3.79-.09,5.54.77,1,.48,2,1.58.81,2.2C218.39,165.69,216,168.82,213.74,169Z"/><path class="cls-12" d="M316.68,410.94c3.93,2.88,4.75,7.93,2.06,12.54-3.2,5.47-6.71,6.77-11.65,4.34-4.44-2.18-5.59-6-3.48-11.52,2.7-.5,3.57-2.92,5-4.75h0C311.34,411.76,313.91,410.08,316.68,410.94Z"/><path class="cls-6" d="M217,158.41c-1.85-.18-4-.3-6.18-.6-6.18-.85-10.22-4.42-12.46-10.12-1.22-3.1-.76-4,2.46-4.93,2.66-.75,5.38-1.29,8.06-2a1.49,1.49,0,0,1,2.08,1c.37,1,.68,1.66-.22,2.63-2.72,2.94-2.64,3,1.07,4.57q4.5,2,8.92,4a4.78,4.78,0,0,1,2.49,2c.82,1.64.84,2.91-1.45,3.07C220.31,158.22,218.83,158.3,217,158.41Z"/><path class="cls-6" d="M211.49,171.78c-3.7,6.34-7,8.28-12.82,6.7-6.21-1.69-11.49-5.37-12-12a6.86,6.86,0,0,1,.51-3.76c1.41-2.78,2.1-2.88,4.23-.61C196.78,167.83,203.23,171.33,211.49,171.78Z"/><path class="cls-3" d="M221.78,219.28a51.17,51.17,0,0,0-1.69-13.88c-.58-2.14.16-2.65,2-2.76a29.05,29.05,0,0,0,2.94-.33c6.28-1,6.23-1,8.87,4.68.61,1.3.36,1.72-.95,2-2.7.55-5.39,1.19-8.07,1.81-.76.17-1.64.23-1.91,1.15s.47,1.65,1.11,2.22c2.66,2.35,5.31,4.72,8.05,7,1.43,1.17,1.22,1.8-.4,2.31-2.9.92-5.82,1.78-8.7,2.78-1.25.43-1.65.08-1.58-1.13C221.53,223.42,221.63,221.74,221.78,219.28Z"/><path class="cls-8" d="M218.93,452.57a2.83,2.83,0,0,1,.72-2.47c5.86-6.32,11.21-13.16,18.48-18a3.54,3.54,0,0,1,1.12-.28c1.38,3.43.1,6.5-1.28,9.56h0a1.14,1.14,0,0,0-.59,1.19h0a1,1,0,0,0-.56,1.08c-3.58,3.49-7.19,6.94-10.71,10.49-1.24,1.25-2.2,1.8-3.54.12A4.19,4.19,0,0,0,218.93,452.57Z"/><path class="cls-12" d="M232.58,424.69c-9.45,8.47-17.7,18-25.59,27.95-1.85-.08-1.94-1.68-2.48-2.9l.09-2.53h0c1.7-.31,1.82-1.58,1.79-2.95l0,0a12,12,0,0,0,5.93-7.72h0c3.44-2,5.33-5.38,7.72-8.32h0c1.28,0,2-1,3.06-1.47C226.11,425.35,228.77,422.23,232.58,424.69Z"/><path class="cls-6" d="M218.17,211.9c-3.71,0-3.75-.05-2.65-3.81.3-1,.66-2-.57-2.51s-1.72.49-2.19,1.4c-.4.75-.41,1.74-1.41,2.15s-2,.56-1.87-.79-1.86-2.54-.32-4.32c.71-.81-.64-1.64-1.76-1.58-1.53.08-5.41,4.11-5.5,5.63,0,.1,0,.26,0,.28,3.68,2.13.5,7,4.13,9.69,1.85,1.38-.46,5-1.2,7.46s-2.23,4.71,1.73,5.62c1,.23,1,1.3,1,2.22s-.1,2.13-1.11,2.13c-2.45,0-3.64,1.74-5.1,3.15-.83.8-1.88.9-3.27.92,1.45,1.66,1.28,3.43,1.11,5.15-.13,1.37-.65,2.55-2.45,2.13,1.11-2.95,1.42-5.84-.65-8.55l.47-.62c3.9.9,6.65-2.08,5.91-6.59a7.5,7.5,0,0,1,.37-4.58c2.25-5,1.47-7.83-2.95-11.31.63-.36,1.51-.55,1.41-1.52,0-.2-.57-.48-.87-.48-1.29,0-1.14,1-1.19,1.82-1.9.4-2.4.51-1.69-2,1.26-4.59,3.93-8,6.92-11.44.94-1.07,1.62-1.34,2.92-.42A11.64,11.64,0,0,0,214.2,203c2,0,2.61.89,2.88,2.55C217.42,207.64,217.81,209.77,218.17,211.9Z"/><path class="cls-8" d="M314.07,486.54l-.74-1.19c.86-1.87,3.74-2.23,3.61-4.84h0c3.6-1.15,4.95-4.86,7.83-6.86,2.19-1.53,3.48-3.84,4.64-6.2l0,0a2.34,2.34,0,0,0,2.16-.68c2.78-2.82,5.58-5.61,8.37-8.41a2.43,2.43,0,0,0,.73-2.16l0,0c1.35.21,2.11-.68,2.95-1.5,2.95-2.85,3.44-2.74,4.83,1l-1.79,1.72a1.75,1.75,0,0,0-1.83,1.8l-.64.61a1.69,1.69,0,0,0-1.73,1.21l0,0-.62.62,0,0a1.08,1.08,0,0,0-.64,1.18h0l-.58.55-.06.05A1.61,1.61,0,0,0,339,465.1l0,0a1.12,1.12,0,0,0-1.23,1.13l0,.05c-.19.2-.38.41-.56.62l0,0-.61.62h0c-1.72-.11-2.18,1-2.38,2.4h0c-.92,0-1.21.55-1.2,1.36-3.53,3.15-6.59,6.84-10.69,9.33l-.7.6h-.23c-.7.1-.9.57-.9,1.19l0,0a1.19,1.19,0,0,0-1.18.65h0l-.62.59h0l-.61.6h0l-.62.59,0,0a1.16,1.16,0,0,0-1.2.64l0,0C315.37,485.22,314.85,486.11,314.07,486.54Z"/><path class="cls-10" d="M227.21,115.62c7.59,13.55,18.08,23.31,33.9,26.32a6.9,6.9,0,0,0,4.76-.77c-.57,2.29-2,3-4.35,2.94-9.18-.23-16.75-4.28-23.54-9.93a59.64,59.64,0,0,1-11.4-12.78c-1.2-1.81-2.49-3.69-.58-5.84Z"/><path class="cls-11" d="M257.58,475.14c-.61-4.52-2.43-8.7-3.79-13-1.94-6.15-3.92-12.3-5.79-18.48a87.71,87.71,0,0,0-4.65-13.05l-1.89-4.09c1.41-2-.2-3.9-.81-5.49-2.7-7.06-4.24-14.47-6.8-21.57-2.49-6.91-5-13.86-6.93-20.94-2.09-7.66-4.66-15.17-6.81-22.8-.69-2.43-2.27-4.66-1.75-7.38,2.92,7.34,5,14.94,7.42,22.45q5.08,16,10.15,31.92,10.51,33,21.05,66.09c.76,2.39,1.49,4.8,2.24,7.24C258.13,476.24,257.94,475.57,257.58,475.14Z"/><path class="cls-8" d="M308.67,489.37c-2,1.11-4.38.69-6.45,1.6-.59.25-1.09-.38-1.43-.85A31,31,0,0,0,284.2,478c4.27-2.94,8.47-1.48,12.69.16,1.54.6,2.82,1.89,4.63,1.74l0,0c.46,1.89,2,2.43,3.6,3h0a.89.89,0,0,0,1.18.59h0c.1,1.81,1.66,2.59,2.78,3.5C310.69,488.28,310.09,488.79,308.67,489.37Z"/><path class="cls-6" d="M201.09,189.88c-6-.93-11.75-2.32-14.4-8.76a5.51,5.51,0,0,1-.62-3.15c.3-1.55,1-2.73,2.83-1.43,4.66,3.36,9.51,6.08,15.61,4.77,1.05-.22,1.11.41.84,1.25-.68,2.05-1.38,4.11-1.94,6.2C203,190.19,202,189.83,201.09,189.88Z"/><path class="cls-12" d="M229.51,163.23c3.56-3,7.26-5.62,11.92-6.67a35.78,35.78,0,0,0,6.06-2.14c3.6-1.53,4.46-1.07,4.81,2.84a19.57,19.57,0,0,1-7.93,4.28c-5,1.46-9.31,4.43-13.84,7.71C230.06,167,230.52,165,229.51,163.23Z"/><path class="cls-8" d="M258.77,490.78c-.61,3.25-2.76,1.86-4.21,1.14-4.3-2.14-8.62-4.22-13.05-6.05-3-1.24-6-2.46-9-3.71s-6.28-2-5.15-6.44c1.4,0,2.63.95,4.07.64l0,0a7.6,7.6,0,0,0,5.38,2.4l0,0c1.5,2.16,4,2.56,6.21,3.31,3.69,1.25,6.71,4.07,10.75,4.43l.07,0c1,2,3.12,2.35,5,3h0C258.75,489.86,258.76,490.32,258.77,490.78Z"/><path class="cls-12" d="M338,440.13c-4,3.26-7.25,1.72-10.84-1s-7.63-4.8-11.48-7.15l4.84-4.38c4,1.18,7.12,3.74,10.34,6.14C333.43,435.62,336.3,437.23,338,440.13Z"/><path class="cls-9" d="M338,440.13c-1.69-2.9-4.56-4.51-7.14-6.41-3.22-2.4-6.38-5-10.34-6.14a4.41,4.41,0,0,1,0-.52l2.32-4.13c2.42.26,3.75,2.35,5.71,3.41a45.09,45.09,0,0,1,15.8,14.37A22.05,22.05,0,0,0,338,440.13Z"/><path class="cls-10" d="M302.7,91.38c-3.26-1.51-6.89-1.74-10.27-3a47.38,47.38,0,0,1-16.95-10.85,82.5,82.5,0,0,1-10.17-12.46c.33-1.35.79-2.66,2-.64,3.57,5.75,8.23,10.58,13.12,15.14,4.7,4.37,10.77,6.41,16.79,8.32,1.68.54,3.46.81,5.19,1.2.64.14,1.64-.29,1.83.51C304.53,90.67,303.61,91.13,302.7,91.38Z"/><path class="cls-9" d="M352,451.4c4.85,6.37,7.31,13.82,9.44,21.37a19.21,19.21,0,0,0,1.83,4.91l-3.62.44a80.2,80.2,0,0,0-2.74-9c-1.41-3.28-1.82-7.12-4.89-9.56C352.72,456.83,350.78,454.12,352,451.4Z"/><path class="cls-6" d="M69.74,143c2.09.18,2.68,1,2.49,3.35-.42,5.1,1.06,10.09,2.48,14.91.92,3.09,1.44,5.76-.12,8.65a5.34,5.34,0,0,0-.27,1.74,199.41,199.41,0,0,1-4.7-21.47Z"/><path class="cls-12" d="M352,459.55c3.07,2.44,3.48,6.28,4.89,9.56a80.2,80.2,0,0,1,2.74,9c-2,1.36-3.17,1.82-3.83-1.41a58.86,58.86,0,0,0-5-13.78C350,461.3,350,460.1,352,459.55Z"/><path class="cls-13" d="M137.55,83.21c.26-1.37,2.1-1,2.55-2.41A11.45,11.45,0,0,0,134,78.9a49.78,49.78,0,0,0-16,1.57c-5.35,1.54-10.2,4.62-15.87,5,13.83-7.9,28.18-10.68,43.53-4.16Z"/><path class="cls-10" d="M198.07,223.6c0-1.38.07-2.76.11-4.14,0-.75.26-1.39,1.09-1.52s1,.43,1.38.93a5.34,5.34,0,0,1,.54,5.35c-1.13,2.58-1.91,5.11-1.06,8a2.91,2.91,0,0,1-1.47,3.55c-1.17.48-1.65-1.09-2.39-1.79a6.87,6.87,0,0,1-1.85-3C196.38,228.89,198.39,226.82,198.07,223.6Z"/><path class="cls-13" d="M199.33,504.5c-.22-1.32-.47-1.62-2.23-1.51-3.46.23-6.88,2.19-10.42.58-.68-.31-1.62-.47-1.53-1.51s.81-1.26,1.66-1.33c.06,1.75,1.14,2,2.62,1.95a22.79,22.79,0,0,0,11.84-4.22l2.91-2C205.8,501.09,205.41,501.72,199.33,504.5Z"/><path class="cls-13" d="M195.29,272.46a3.61,3.61,0,0,0-3.84.31c-6.55,4.44-14,6.73-21.64,8.38a60.21,60.21,0,0,1-14.34.94c-.83-1.76.44-1.49,1.41-1.43,11.2.63,21.54-2.3,31.34-7.49,1.37-.73,2.74-1.48,4-2.32C194.3,269.54,195.46,269.7,195.29,272.46Z"/><path class="cls-11" d="M192,290.79c-.13,2.91-2.88,3.46-4.61,4-6.2,2.1-12.58,3.75-19.27,3.22-.49,0-1,0-1.48,0-3.94-.42-4.48,0-5.47,3.89-.94-1.83-2.09-4-1.21-5.73.47-.91,3,.36,4.66.53,9.15,1,17.86-.18,25.76-5.32A7.85,7.85,0,0,1,192,290.79Z"/><path class="cls-6" d="M216.13,235.81c-.21-.64-.22-1.56-.67-1.89-1.9-1.41-3-2.39.33-3.44,1.25-.4.92-2.16.66-3.22-.86-3.48-.61-7-.53-10.47,0-1.7.6-2.86,2.42-3.11A46.75,46.75,0,0,1,216.13,235.81Z"/><path class="cls-13" d="M69.74,143l-.12,7.18c-3.13-13.58-2-26.68,4.57-39.13a4.8,4.8,0,0,1,.76-.88c.42,3.21-1.63,5.86-2.65,8.52-2.57,6.7-3.19,13.47-3.16,20.45,0,.49,0,1,0,1.47A3.87,3.87,0,0,0,69.74,143Z"/><path class="cls-11" d="M218.31,348c-2.16-1.47-2.14-4-2.86-6.13-2.62-7.75-5.33-15.49-7.49-23.37-1.05-3.83-2.87-7.54-2.69-11.67,2.53,7.78,5.11,15.55,7.59,23.36C214.75,336.14,216.5,342.1,218.31,348Z"/><path class="cls-12" d="M194.12,514.45c-1.16.21-2.31.46-3.48.62-5.06.68-5.06.67-5.78-4.68l8.9-.08Z"/><path class="cls-9" d="M194.12,514.45c-.12-1.38-.24-2.76-.35-4.14l.75-1.2,5.32-1.81.64.59c.28,1.58,1.45,2.95,1.2,4.67C199.18,513.27,196.77,514.33,194.12,514.45Z"/><path class="cls-6" d="M210.09,249.69a4.66,4.66,0,0,1,0-1.74c.76-1.84,1.89-3.08-.07-5.46s2.73-7,6.19-6.61a8.11,8.11,0,0,1-1.08,3.46l-1,.19.73.31C213.69,243.33,212.46,246.78,210.09,249.69Z"/><path class="cls-13" d="M203.27,492.52c-1-.41-2.22-.66-2.15-2.08.11-2.61-1.61-2.76-3.53-2.8-4.79-.09-9.36.55-13.47,3.31a4.23,4.23,0,0,1-3.4.74c3.33-3.8,13.94-6.77,18.55-5.19A6.37,6.37,0,0,1,203.27,492.52Z"/><path class="cls-5" d="M173,500.51a20.4,20.4,0,0,1-4.51-11.71h1.71l.6.62v0c0,.56,0,1.05.75,1.07l0,0c0,.74.52.78,1.08.73l0,0c.2.21.4.41.59.62l0,0c.22.59.7.63,1.22.61l0,0C174.2,495.14,172.69,497.67,173,500.51Z"/><path class="cls-10" d="M194.88,245c-1.56,2.72-2.61,2.89-4.62.76.1-.12.2-.23.31-.34l-.66-.21a1.73,1.73,0,0,1-.62-1.53c.64-2.17-.26-5.74,4.12-4.52h0C195.09,240.82,194.38,243.08,194.88,245Z"/><path class="cls-6" d="M74.2,171.65c2.29.71,3.35,3,5,4.41s0,4.33-.49,6.51a20.9,20.9,0,0,0-.81,2.39C75.94,180.73,75.24,176.14,74.2,171.65Z"/><path class="cls-8" d="M201.68,512.56c.25-1.72-.92-3.09-1.2-4.67,2-.35,3.28-2.19,5.35-2.27.42,1.89.85,3.79,1.27,5.69C205.56,512.91,203.59,512.59,201.68,512.56Z"/><path class="cls-12" d="M254,153.09c-3.23-2.19-.29-3.67.62-5.38l1.77-.18c1.7.06,2.32,1.1,2.42,2.63.12,1.35-1,1.78-1.82,2.38-.74-.19-1.28.3-1.88.58Z"/><path class="cls-14" d="M301.52,479.94c-1.81.15-3.09-1.14-4.63-1.74-4.22-1.64-8.42-3.1-12.69-.16-.48,0-1.09.22-1.33-.3-.32-.68.28-1.1.75-1.39a11,11,0,0,1,6.83-1.21A19.84,19.84,0,0,1,301.52,479.94Z"/><path class="cls-11" d="M173,500.51c-.31-2.84,1.2-5.37,1.34-8.14,1.38.21,1.06,1,.77,1.93-1.92,6.27-.46,10,5.08,13.45.5.31,1.64.38,1,1.33s-1.43.31-2-.18A17.74,17.74,0,0,1,173,500.51Z"/><path class="cls-14" d="M329.41,467.44c-1.16,2.36-2.45,4.67-4.64,6.2-2.88,2-4.23,5.71-7.83,6.86.43-1.89,2.07-2.85,3.34-4C323.46,473.61,325.77,469.85,329.41,467.44Z"/><path class="cls-13" d="M99,87.39c.74,1.26-.12,1.78-1,2.22-3.8,1.8-7,4.53-10.18,7.13a3.28,3.28,0,0,1-2.61,1A52.27,52.27,0,0,1,99,87.39Z"/><path class="cls-12" d="M375.23,475.14c-.57-5.08-2.6-9.73-4.27-14.49-.44-1.28-1.15-2.49-1.07-3.92,2,1.87,2.31,4.61,3.29,7a93.61,93.61,0,0,1,2.91,9.2C376.36,473.8,376.8,474.89,375.23,475.14Z"/><path class="cls-14" d="M340.7,456.16a2.43,2.43,0,0,1-.73,2.16c-2.79,2.8-5.59,5.59-8.37,8.41a2.34,2.34,0,0,1-2.16.68C333,463.46,336.78,459.74,340.7,456.16Z"/><path class="cls-14" d="M253.69,486.46c-4-.36-7.06-3.18-10.75-4.43-2.2-.75-4.71-1.15-6.21-3.31C242.66,480.69,248.49,482.88,253.69,486.46Z"/><path class="cls-12" d="M238,441.34c1.38-3.06,2.66-6.13,1.28-9.56-.15-1.46-.28-2.92-1.93-3.56l0,0c0-.6,0-1.19-.05-1.79,2.57.14,1.91,2.68,2.8,4C242.13,433.5,240.76,439.3,238,441.34Z"/><path class="cls-14" d="M232.58,424.69c-3.81-2.46-6.47.66-9.45,2-1,.47-1.78,1.51-3.06,1.47,2.54-4.5,10.42-6.86,13.75-4.12A1.31,1.31,0,0,1,232.58,424.69Z"/><path class="cls-14" d="M348.52,455.61c-1.39-3.72-1.88-3.83-4.83-1-.84.82-1.6,1.71-2.95,1.5a26.47,26.47,0,0,1,4.71-4.75c1.84-1.49,2.86-1.25,3.13,1.24C348.7,453.63,349.52,454.63,348.52,455.61Z"/><path class="cls-13" d="M180.13,492.25c.13.78.44,1.76-.14,2.28-3.36,3-1.45,6.21-.49,9.4C175.71,499.79,175.94,495.47,180.13,492.25Z"/><path class="cls-13" d="M107.84,111.13c.57.83.74,1.66-.32,2.19a24.91,24.91,0,0,0-6.83,4.81c-.48.49-1.06.35-1.52-.16A43.13,43.13,0,0,1,107.84,111.13Z"/><path class="cls-13" d="M88.15,126.31c-1.77-.27-3.68.7-5.31-.67,4.46.11,8-2.52,11.8-4.14,0,1.89-1.72,1.89-2.75,2.67S88.93,124.78,88.15,126.31Z"/><path class="cls-13" d="M82.21,100.74c-1.25,3.62-4.45,6-6.2,9.25-.1.19-.71.11-1.09.16A28.06,28.06,0,0,1,82.21,100.74Z"/><path class="cls-13" d="M85.16,226.1q-1.22,5.76-2.41,11.51C81.52,233.35,82.06,229.46,85.16,226.1Z"/><path class="cls-11" d="M203.43,302.27c-2.14-4.63-4-9.33-4.1-14.54C200.79,292.55,202.94,297.17,203.43,302.27Z"/><path class="cls-15" d="M278.32,56.17c-1.67,0-1.34-2-2.58-2.57-1.21,1-1.85,2.88-3.9,2.57a4.09,4.09,0,0,1,.4-.78c1-1.23,1.28-3.52,3.32-3.26S277.81,54.52,278.32,56.17Z"/><path class="cls-14" d="M220.06,428.2c-2.39,2.94-4.28,6.35-7.72,8.32A18.56,18.56,0,0,1,220.06,428.2Z"/><path class="cls-14" d="M212.34,436.52a12,12,0,0,1-5.93,7.72A21.68,21.68,0,0,1,212.34,436.52Z"/><path class="cls-11" d="M193.41,239.19c-4.38-1.22-3.48,2.35-4.12,4.52-.19-.85-.43-1.7-.56-2.56-.22-1.47.13-2.85,1.57-3.43S192.68,238,193.41,239.19Z"/><path class="cls-12" d="M369.29,455c-3.16-2.15-3.68-5.89-5.35-8.93C366.73,448.39,368,451.66,369.29,455Z"/><path class="cls-14" d="M308.67,489.37c1.42-.58,2-1.09.4-2.39-1.12-.91-2.68-1.69-2.78-3.5a8.59,8.59,0,0,1,4.68,4.11C312.47,490.32,309.53,488.82,308.67,489.37Z"/><path class="cls-14" d="M205.83,505.62c-2.07.08-3.4,1.92-5.35,2.27l-.64-.59c1.51-.9,3-1.84,4.53-2.69,1-.55,1.94-.66,2,.92A2.82,2.82,0,0,0,205.83,505.62Z"/><path class="cls-12" d="M266.46,140.62c.8-2.62,2.06-4.86,4.77-6A20.07,20.07,0,0,1,266.46,140.62Z"/><path class="cls-15" d="M227.82,128.7c-2.27-1.7-3.51-4.16-4.83-6.57a6.36,6.36,0,0,1,.7-.34C225.09,124.08,227.48,125.78,227.82,128.7Z"/><path class="cls-11" d="M198.07,223.6c.32,3.22-1.69,5.29-3.65,7.39-.94-1.06.24-1.55.68-2.13A19.53,19.53,0,0,0,198.07,223.6Z"/><path class="cls-14" d="M320.48,427.06a4.41,4.41,0,0,0,0,.52L315.67,432c-.68-.18-1.71-.61-.73-1.22C316.83,429.57,318,427.3,320.48,427.06Z"/><path class="cls-14" d="M328.27,415.13c-2.19.05-3.85-1.6-5.95-1.86-.39-.58-1.12-1.9.23-1.33C324.51,412.78,327,413.05,328.27,415.13Z"/><path class="cls-14" d="M316.68,410.94c-2.77-.86-5.34.82-8.06.61C311.25,409.26,314.65,409,316.68,410.94Z"/><path class="cls-14" d="M335.4,418.7c-2.92-.11-5-1.8-7.13-3.57A13,13,0,0,1,335.4,418.7Z"/><path class="cls-14" d="M194.52,509.11l-.75,1.2-8.91.08c-.26-.32-.29-1-.09-1C188.06,510.22,191.28,509.21,194.52,509.11Z"/><path class="cls-14" d="M316.94,480.51c.13,2.61-2.75,3-3.61,4.84C312.66,482.34,315.33,481.82,316.94,480.51Z"/><path class="cls-13" d="M113.72,107.42c.48,2-2.38,1.74-2.39,3.43l-3.27.16A16.77,16.77,0,0,1,113.72,107.42Z"/><path class="cls-8" d="M227.21,115.62l-1.21-.06c1.22-1.75,2-3.91,4.16-4.84C230.6,113.21,228,113.87,227.21,115.62Z"/><path class="cls-15" d="M311,80.55c.16-1.42-.16-2.3-1.88-2.53-1-.14-2.37-.27-2.86-1.61,1.41,0,2.61.83,3.93,1C313.46,77.8,312.55,79.05,311,80.55Z"/><path class="cls-15" d="M313.41,69.9c-1.6-1.75-3.23-3.47-3.57-6A8.16,8.16,0,0,1,313.41,69.9Z"/><path class="cls-14" d="M308.62,411.55c-1.44,1.83-2.31,4.25-5,4.75C304.87,414.29,305.82,412,308.62,411.55Z"/><path class="cls-14" d="M340.76,422.86c-2.07-1-4.15-2-5.35-4.16C337.7,419.43,339.69,420.56,340.76,422.86Z"/><path class="cls-5" d="M240.82,96.54a13,13,0,0,1,3.58-4.74l.06.06c-.43,2.15-1.38,3.91-3.57,4.75Z"/><path class="cls-15" d="M202.89,199.37c-.22-1.77-.45-3.53-.68-5.29C204.22,195.67,204.45,197.46,202.89,199.37Z"/><path class="cls-15" d="M299.72,54.42c-2.28-.11-3.89-1.42-5.36-3A6.62,6.62,0,0,1,299.72,54.42Z"/><path class="cls-12" d="M205.83,505.62a2.82,2.82,0,0,1,.57-.09c.48,1.56,1,3.12,1.46,4.67.23.73,0,1.11-.76,1.11C206.68,509.41,206.25,507.51,205.83,505.62Z"/><path class="cls-15" d="M294.37,69.26c-2.24-.31-4.06-1.21-4.79-3.56A10.05,10.05,0,0,1,294.37,69.26Z"/><path class="cls-9" d="M292.68,106.13c.48-1.58,2.11-2.53,2.32-4.25a.75.75,0,0,0,.13-.38l1-.19.08.08C296,103.67,295,105.4,292.68,106.13Z"/><path class="cls-14" d="M353.23,433c-2-.46-3-2.17-4.17-3.57C351.38,429.5,352.39,431.13,353.23,433Z"/><path class="cls-15" d="M246.8,143.53a6.33,6.33,0,0,1-5.27-2.93A8.36,8.36,0,0,1,246.8,143.53Z"/><path class="cls-5" d="M263.5,67.36c0,.37,0,.74,0,1.11-1.4.82-1.72,2.83-3.53,3.2l0,0C260.77,69.94,261.71,68.29,263.5,67.36Z"/><path class="cls-15" d="M201.05,193.47c-1.92-.83-4.38.17-6-1.74C197.15,192,199.5,191.36,201.05,193.47Z"/><path class="cls-15" d="M284.9,47.91c-1.49,1.13-3.19.33-4.77.54C281.5,46.31,283.21,47.22,284.9,47.91Z"/><path class="cls-14" d="M258.75,489.42c-1.87-.66-3.95-1-5-3C255.56,487.18,257.84,487.16,258.75,489.42Z"/><path class="cls-11" d="M161.21,302.28c1.73,1.22,2.2,2.76,1.16,4.68A14.62,14.62,0,0,1,161.21,302.28Z"/><path class="cls-11" d="M234.87,105.5l-1-.12a19,19,0,0,1,3.29-4.17l.18.15C237.18,103.14,235.61,104.08,234.87,105.5Z"/><path class="cls-13" d="M98.85,118.28c-.12,2.75-2.16,3-4.21,3.23Q96.76,119.91,98.85,118.28Z"/><path class="cls-15" d="M304.47,58.56a6.84,6.84,0,0,1-4.13-3C302.23,55.86,303.88,56.47,304.47,58.56Z"/><path class="cls-15" d="M313.42,75.19c0-1.58,0-3.16,0-4.74C315,72,315.42,73.61,313.42,75.19Z"/><path class="cls-11" d="M237.14,101.21a13.12,13.12,0,0,1,3.12-4l.43,0c-1,1.46-1.56,3.32-3.37,4.14Z"/><path class="cls-15" d="M254.54,146.62a8.58,8.58,0,0,1-5.37-1.88C251,145.17,253.33,144.34,254.54,146.62Z"/><path class="cls-11" d="M197.44,286.13c-.3,1.69-.47,3.52-3,2.89A11.45,11.45,0,0,1,197.44,286.13Z"/><path class="cls-13" d="M179.45,503.89c1.49.69,3.75-.16,4.39,2.22C182.18,505.75,180.47,505.51,179.45,503.89Z"/><path class="cls-15" d="M198.19,204.09a3.45,3.45,0,0,1,2.89-2.89C200.55,202.61,200.21,204.19,198.19,204.09Z"/><path class="cls-9" d="M258.81,150.16c-.1-1.53-.72-2.57-2.42-2.63,1.26-.66,2.53-.8,3.32.59A1.27,1.27,0,0,1,258.81,150.16Z"/><path class="cls-14" d="M305.1,482.88c-1.57-.53-3.14-1.07-3.6-3C303,480.54,304.66,481,305.1,482.88Z"/><path class="cls-14" d="M236.76,478.74a7.6,7.6,0,0,1-5.38-2.4C233.56,476.27,235.15,477.53,236.76,478.74Z"/><path class="cls-11" d="M194.88,245c-.5-1.95.21-4.21-1.49-5.85C196.23,240.53,195.11,242.9,194.88,245Z"/><path class="cls-9" d="M299.79,95.91c1-.73,1-2,1.66-2.93l.41.43c.28,1.82-.77,2.89-2.12,3.8l-.14-.13Z"/><path class="cls-11" d="M170.22,488.8h-1.73c-.12-.9-.25-1.81-.38-2.71l.52-.19Z"/><path class="cls-15" d="M308.67,84.12A3.37,3.37,0,0,1,311,80.58,4.62,4.62,0,0,1,308.67,84.12Z"/><path class="cls-12" d="M273,131.71A7.21,7.21,0,0,1,276,128.1C275.46,129.68,275,131.29,273,131.71Z"/><path class="cls-9" d="M287.39,113.27a11.49,11.49,0,0,1,2.73-3.61C290.35,111.73,289.07,112.65,287.39,113.27Z"/><path class="cls-5" d="M245.69,90.1a11.1,11.1,0,0,1,2.92-3.61l.07.07a4.65,4.65,0,0,1-3,3.54Z"/><path class="cls-14" d="M231.4,476.36c-1.44.31-2.67-.67-4.07-.64C229.08,473.43,230.1,475.81,231.4,476.36Z"/><path class="cls-11" d="M194.39,289.05c.5,2.3-.48,2.59-2.32,1.71A4.83,4.83,0,0,1,194.39,289.05Z"/><path class="cls-4" d="M199.29,215c.05-.84-.1-1.84,1.19-1.82.3,0,.84.28.87.48.1,1-.78,1.16-1.41,1.52Z"/><path class="cls-14" d="M360.37,440.69A2.48,2.48,0,0,1,358,438.3C359.52,438.37,360,439.49,360.37,440.69Z"/><path class="cls-9" d="M284.14,117.81a6.94,6.94,0,0,1,2.18-3C286.51,116.52,285.9,117.59,284.14,117.81Z"/><path class="cls-12" d="M314.07,486.54c.78-.43,1.3-1.32,2.34-1.25C315.91,486.23,315.92,488.14,314.07,486.54Z"/><path class="cls-14" d="M346.7,427c-1.36-.32-2.6-.8-3-2.37A3.66,3.66,0,0,1,346.7,427Z"/><path class="cls-9" d="M290.18,109.58a8.76,8.76,0,0,1,2.29-3.1C292.34,108,292.17,109.45,290.18,109.58Z"/><path class="cls-15" d="M270.58,58.59a2.63,2.63,0,0,1-1.79,2.33C268.16,59.2,269.32,58.85,270.58,58.59Z"/><path class="cls-13" d="M194.54,506.09c1-2,2.78-1.83,4.56-1.64C197.77,505.52,196.05,505.52,194.54,506.09Z"/><path class="cls-15" d="M306.3,86.56c.5-1.07.74-2.4,2.35-2.4A2.58,2.58,0,0,1,306.3,86.56Z"/><path class="cls-14" d="M206.39,444.26c0,1.37-.09,2.64-1.79,2.95A3.25,3.25,0,0,1,206.39,444.26Z"/><path class="cls-5" d="M253.15,80.3a4.7,4.7,0,0,1,2-2.72l0,0c.06,1.4-.84,2.19-1.84,2.93A2.39,2.39,0,0,0,253.15,80.3Z"/><path class="cls-13" d="M102,85.57c0,2.12-1.61,1.56-2.78,1.76C99.9,86.39,101,86.11,102,85.57Z"/><path class="cls-14" d="M334.21,469.85c.2-1.39.66-2.51,2.38-2.4A8.25,8.25,0,0,1,334.21,469.85Z"/><path class="cls-14" d="M349.08,429.4c-1.34-.25-1.78-1.39-2.38-2.39A2.3,2.3,0,0,1,349.08,429.4Z"/><path class="cls-5" d="M250.36,84.1a4,4,0,0,1,1.77-2.4l.08.07c-.09,1.18-.41,2.18-1.8,2.37Z"/><path class="cls-15" d="M300.31,73.4c-1.09-.15-2.18-.31-2.34-1.73C299,71.85,300.15,72,300.31,73.4Z"/><path class="cls-5" d="M258.08,74a4,4,0,0,1,1.83-2.33l0,0c0,1.21-.41,2.17-1.78,2.38Z"/><path class="cls-5" d="M248.61,86.49a4.66,4.66,0,0,1,1.75-2.39l0,0c0,1.2-.42,2.14-1.73,2.42Z"/><path class="cls-14" d="M344.9,459.13a1.75,1.75,0,0,1,1.83-1.8A2.09,2.09,0,0,1,344.9,459.13Z"/><path class="cls-15" d="M280.11,58a1.6,1.6,0,0,1-1.75-1.76A1.59,1.59,0,0,1,280.11,58Z"/><path class="cls-15" d="M229.6,130.48a1.67,1.67,0,0,1-1.78-1.78A1.66,1.66,0,0,1,229.6,130.48Z"/><path class="cls-14" d="M362.74,443.66c-1.21,0-1.7-.69-1.78-1.79A1.75,1.75,0,0,1,362.74,443.66Z"/><path class="cls-9" d="M255.11,153.12c.6-.28,1.14-.77,1.88-.58-.1.67-.29,1.35-1.06,1.49S255.24,153.56,255.11,153.12Z"/><path class="cls-14" d="M204.6,447.21l-.09,2.53C203.59,448.86,202.48,448,204.6,447.21Z"/><path class="cls-12" d="M271.23,134.67c.07-1.31,1-2.06,1.79-2.95A2.94,2.94,0,0,1,271.23,134.67Z"/><path class="cls-5" d="M255.15,77.58A5.16,5.16,0,0,1,257,75.24h0c-.09,1.17-.36,2.21-1.77,2.4Z"/><path class="cls-15" d="M308.64,62.74A1.67,1.67,0,0,1,306.86,61,1.67,1.67,0,0,1,308.64,62.74Z"/><path class="cls-14" d="M355,434.75c-1.06-.13-1.79-.59-1.78-1.78A1.7,1.7,0,0,1,355,434.75Z"/><path class="cls-9" d="M298.51,99.54a2.84,2.84,0,0,1-2.32,1.85l-.08-.08c0-.18.05-.36.08-.55l0,0,.63-.63,0,0,1.43-1Z"/><path class="cls-15" d="M303.87,75.21c-.93-.09-2.17.45-2.33-1.17A2.88,2.88,0,0,1,303.87,75.21Z"/><path class="cls-13" d="M85.16,97.77c.17,1.39-.45,2-1.82,1.75A3.61,3.61,0,0,1,85.16,97.77Z"/><path class="cls-14" d="M357.4,437.13a1.66,1.66,0,0,1-1.8-1.79C356.7,435.44,357,436.29,357.4,437.13Z"/><path class="cls-15" d="M306.25,76.38c-.94-.07-2.16.45-2.35-1.15A2.93,2.93,0,0,1,306.25,76.38Z"/><path class="cls-13" d="M188,500c.47-1.34,1.11-1.27,1.85-.2A2.44,2.44,0,0,1,188,500Z"/><path class="cls-15" d="M287.84,49.06c-.91-.13-2.18.46-2.39-1.14A2.92,2.92,0,0,1,287.84,49.06Z"/><path class="cls-15" d="M271.77,56.79c0,.86.06,1.71-1.15,1.76C270.59,57.69,270.64,56.88,271.77,56.79Z"/><path class="cls-9" d="M299.74,97.21c0,1-.1,1.94-1.23,2.33l-.33-.3.39-1.42h0l.61-.62,0,0a3.53,3.53,0,0,0,.46-.15Z"/><path class="cls-9" d="M282.56,119.79a4,4,0,0,1,1.54-1.88C284.35,119.16,283.66,119.64,282.56,119.79Z"/><path class="cls-14" d="M339,465.1a1.61,1.61,0,0,1,1.73-1.81A3.71,3.71,0,0,1,339,465.1Z"/><path class="cls-15" d="M241.46,140.56c-.9.09-1.7,0-1.75-1.15A1.57,1.57,0,0,1,241.46,140.56Z"/><path class="cls-15" d="M296.14,70.44c-.89.08-1.71,0-1.75-1.16A1.7,1.7,0,0,1,296.14,70.44Z"/><path class="cls-14" d="M343.72,424.64c-.89.06-1.74,0-1.78-1.19A1.67,1.67,0,0,1,343.72,424.64Z"/><path class="cls-5" d="M244.4,91.8a2.28,2.28,0,0,1,1.29-1.7h0c0,.89-.16,1.63-1.22,1.76Z"/><path class="cls-14" d="M342.53,461a1.69,1.69,0,0,1,1.73-1.21C343.9,460.46,343.46,461.06,342.53,461Z"/><path class="cls-10" d="M301.86,93.41l-.41-.43a1.54,1.54,0,0,1,1.11-1.12l-.49,1.23a.31.31,0,0,0-.14.34Z"/><path class="cls-5" d="M252.13,81.7a1.62,1.62,0,0,1,1-1.4c.07.09.14.17.2.26-.12.65-.38,1.17-1.15,1.21Z"/><path class="cls-12" d="M364,446a1.74,1.74,0,0,1-1.16-1.21l.55-.68A1.86,1.86,0,0,1,364,446Z"/><path class="cls-15" d="M290.81,49.66c-.82-.07-1.74.26-2.36-.59C289.26,49.16,290.2,48.78,290.81,49.66Z"/><path class="cls-15" d="M293.8,51.44a1.08,1.08,0,0,1-1.2-1.19A1.08,1.08,0,0,1,293.8,51.44Z"/><path class="cls-15" d="M305.68,59.77c-.75,0-1.21-.37-1.18-1.18C305.29,58.58,305.65,59,305.68,59.77Z"/><path class="cls-15" d="M306.87,61a1.08,1.08,0,0,1-1.2-1.19A1.08,1.08,0,0,1,306.87,61Z"/><path class="cls-15" d="M297.92,71.63c-.88.07-1.7.06-1.74-1.15C296.82,70.77,297.56,70.91,297.92,71.63Z"/><path class="cls-12" d="M276,128.13a2,2,0,0,1,1.28-1.84A2,2,0,0,1,276,128.13Z"/><path class="cls-13" d="M82.88,125.66c-.92.09-1.81.13-1.8-1.19Z"/><path class="cls-13" d="M80.5,123.9c-.84-.09-1.59-.22-.55-1.18Z"/><path class="cls-8" d="M231.38,109a1.15,1.15,0,0,1-1.1,1.34C230.19,109.57,230.63,109.17,231.38,109Z"/><path class="cls-5" d="M264.58,66.11l-.84.77C263.81,66.4,264,66,264.58,66.11Z"/><path class="cls-15" d="M309.83,63.92a1.08,1.08,0,0,1-1.19-1.18A1.07,1.07,0,0,1,309.83,63.92Z"/><path class="cls-15" d="M201.07,201.21a1.07,1.07,0,0,1,1.18-1.19Z"/><path class="cls-6" d="M196.78,246.85c.15.89-.25,1.27-1.12,1.24C196,247.67,196.41,247.26,196.78,246.85Z"/><path class="cls-14" d="M337.75,466.21a1.12,1.12,0,0,1,1.23-1.13Z"/><path class="cls-15" d="M292.6,50.26c-.66,0-1.36.12-1.79-.59C291.47,49.68,292.17,49.55,292.6,50.26Z"/><path class="cls-6" d="M196.14,238.27c-.73,0-1.19-.57-.86-1s.88.24,1.33.41C196.46,237.86,196.3,238.07,196.14,238.27Z"/><path class="cls-14" d="M333,471.2c0-.81.28-1.36,1.2-1.36Z"/><path class="cls-14" d="M258.77,490.78c0-.46,0-.92,0-1.37.4-.19.87,0,.81.34S259.05,490.44,258.77,490.78Z"/><path class="cls-12" d="M369.89,456.73c-.75-.41-.64-1.11-.61-1.78A1.4,1.4,0,0,1,369.89,456.73Z"/><path class="cls-14" d="M341.32,462.69a1.08,1.08,0,0,1,.64-1.18A1,1,0,0,1,341.32,462.69Z"/><path class="cls-12" d="M237.37,442.52a1.14,1.14,0,0,1,.59-1.19A1.07,1.07,0,0,1,237.37,442.52Z"/><path class="cls-14" d="M341.94,423.46a1,1,0,0,1-1.2-.61C341.32,422.7,341.78,422.78,341.94,423.46Z"/><path class="cls-14" d="M361,441.88a1,1,0,0,1-.6-1.19A.9.9,0,0,1,361,441.88Z"/><path class="cls-9" d="M286.42,114.78a1.3,1.3,0,0,1,.75-1.09C287.2,114.24,287.22,114.79,286.42,114.78Z"/><path class="cls-15" d="M248,144.13c-.49,0-.92,0-1.12-.55A.94.94,0,0,1,248,144.13Z"/><path class="cls-11" d="M189.91,245.24l.66.21c-.11.11-.21.22-.31.34Z"/><path class="cls-4" d="M214.86,239.84l-.73-.31,1-.19A.49.49,0,0,1,214.86,239.84Z"/><path class="cls-12" d="M319.36,482.94a1.19,1.19,0,0,1,1.18-.65A1.24,1.24,0,0,1,319.36,482.94Z"/><path class="cls-14" d="M358,438.32a1,1,0,0,1-.6-1.2A.94.94,0,0,1,358,438.32Z"/><path class="cls-12" d="M320.51,482.32c0-.62.2-1.09.9-1.19C321.22,481.61,321.08,482.12,320.51,482.32Z"/><path class="cls-12" d="M316.37,485.32a1.16,1.16,0,0,1,1.2-.64A1.22,1.22,0,0,1,316.37,485.32Z"/><path class="cls-14" d="M306.28,483.47a.89.89,0,0,1-1.18-.59C305.68,482.68,306.12,482.8,306.28,483.47Z"/><path class="cls-15" d="M301.49,74a1,1,0,0,1-1.13-.56A.94.94,0,0,1,301.49,74Z"/><path class="cls-12" d="M236.81,443.59a1,1,0,0,1,.56-1.08Z"/><path class="cls-11" d="M171.55,490.47c-.72,0-.78-.51-.75-1.07C171.3,489.58,171.64,489.87,171.55,490.47Z"/><path class="cls-11" d="M172.6,491.16c-.56,0-1.06,0-1.08-.73A.84.84,0,0,1,172.6,491.16Z"/><path class="cls-11" d="M174.37,492.39c-.52,0-1,0-1.22-.61A1.32,1.32,0,0,1,174.37,492.39Z"/><path class="cls-14" d="M363.34,444.15l-.55.68c0-.39,0-.78-.05-1.17Z"/><path class="cls-5" d="M257,75.24l.57-.63,0,0-.58.59Z"/><path class="cls-12" d="M318.76,483.52l.62-.59Z"/><path class="cls-15" d="M280.78,58.54l-.65-.55Z"/><path class="cls-12" d="M318.17,484.11l.61-.6Z"/><path class="cls-12" d="M317.55,484.7l.62-.59Z"/><path class="cls-13" d="M81.1,124.51l-.64-.63Z"/><path class="cls-15" d="M300.32,55.08l-.59-.66Z"/><path class="cls-14" d="M341.93,461.54l.62-.62A.62.62,0,0,1,341.93,461.54Z"/><path class="cls-5" d="M257.53,74.61l.55-.63.07.07-.6.59Z"/><path class="cls-15" d="M280.1,48.48l-.56.56Z"/><path class="cls-14" d="M340.75,463.24l.58-.55Z"/><path class="cls-12" d="M277.79,125.79l.69-.61Z"/><path class="cls-15" d="M230.2,131.08l-.6-.6Z"/><path class="cls-14" d="M337.16,466.88c.18-.21.37-.42.56-.62C337.53,466.46,337.34,466.67,337.16,466.88Z"/><path class="cls-14" d="M336.58,467.46l.61-.62Z"/><path class="cls-11" d="M173.17,491.8c-.19-.21-.39-.41-.59-.62C173,491.17,173.09,491.49,173.17,491.8Z"/><path class="cls-15" d="M230.79,131.66l-.59-.59Z"/><path class="cls-13" d="M180.77,491.66a.67.67,0,0,1-.66.63Z"/><path class="cls-15" d="M239.1,138.79l-.59-.57Z"/><path class="cls-14" d="M355.61,435.35a.58.58,0,0,1-.6-.6A.57.57,0,0,1,355.61,435.35Z"/><path class="cls-13" d="M83.37,99.51l-.63.64Z"/><path class="cls-15" d="M239.7,139.39l-.58-.57Z"/><path class="cls-9" d="M350.81,449l.56.61Z"/><path class="cls-12" d="M265.89,141.21l.59-.62Z"/><path class="cls-5" d="M240.69,97.22l-.43,0,.56-.66.07.07Z"/><path class="cls-15" d="M248.7,144.7l-.64-.52Z"/><path class="cls-9" d="M301.93,93.43a.31.31,0,0,1,.14-.34l.28.3Z"/><path class="cls-12" d="M321.64,481.13l.7-.6Z"/><path class="cls-11" d="M170.8,489.42l-.6-.62Z"/><path class="cls-1" d="M125.63,128.83c-1.44-1.74-3.47-2.55-5.41-3.53-.92-.46-1.89-1-1.25-2.22.56-1,1.52-1,2.57-.41,14,7.57,22.76,19.28,18,36.7-.38,1.4-.48,3.3-2.63,3.48-1.06-1-.79-2-.48-3.26,1.34-5.23,1.89-10.5.54-15.85-.35-1.36-.77-2.05-2.29-2.06-8.7-.09-17.15,1.06-25.11,4.84a50.38,50.38,0,0,0-16.9,10.69c-3.87,3.6-3.58,6.18,1.12,8.9a20,20,0,0,0,2.15,1l.22.19c.63,2.22-.32,2.86-2.3,2.11a10.71,10.71,0,0,1-4.39-2.91c-3.55-4.05-4.66-9.07-5.87-14.07-.42-1.73.55-2.34,2.15-2.25l0,0c1.28,2.16.91,4.92,2.5,7.15,4.34-4.44,9.35-7.69,14.35-11l1.15-.63,5.39-2.58,0,0A71.15,71.15,0,0,1,135,138.6c-2.83-4.11-5.4-7.54-9.3-9.71Z"/><path class="cls-1" d="M159.62,164.31c-1.76-2.5-3.55-5-5.26-7.49-.51-.75-1.44-1.59-.36-2.59s2-.16,2.69.69c5.77,7.54,11.35,15.21,14.47,24.3,1,2.93,1.47,6-.45,8.84h0c-3.43,2.7-6.88,2.28-10.44.21-2.08-1.21-3.58-3.07-5.42-4.55a.31.31,0,0,0-.24-.35l-3.05-3.76-.62-1c-.87-1.43-1.84-2.8-2.56-4.29-.56-1.13-1.94-2.22-.69-3.72l1.58-.27c.9,1.41,1.77,2.83,2.7,4.22,2.79,4.2,5.68,8.31,10,11.18,1.82,1.22,3.79,2.14,5.74.74s1.37-3.56.83-5.46c-1.67-5.85-4.84-10.95-8.33-15.86Z"/><path class="cls-6" d="M160.19,165.17c3.49,4.91,6.66,10,8.33,15.86.54,1.9,1.09,4.08-.83,5.46s-3.92.48-5.74-.74c-4.29-2.87-7.18-7-10-11.18-.93-1.39-1.8-2.81-2.7-4.22,1.27-.7,2.38-1.23,3.86,0,1.15.91,6.27-.34,7.1-1.47S159.62,166.41,160.19,165.17Z"/><path class="cls-6" d="M85.73,150.17c-1.6-.09-2.57.52-2.15,2.25,1.21,5,2.32,10,5.87,14.07a10.71,10.71,0,0,0,4.39,2.91c2,.75,2.93.11,2.3-2.11a6,6,0,0,0,2.77-2.62c.77,2.16-.7,3.65-1.66,5.23-1.06,1.75-2.83.87-4.33.87-.94,0-2-2-2.68-.45-.64,1.35,1.3,1.6,2.14,2.3a6.3,6.3,0,0,0,.79.48c-1.66.94-4.29.71-3.6,3.82.12.54-1.84-.44-3.14.85a22.84,22.84,0,0,0,1.77-8.71c0-1.46-1.12-2-1.67-2.94-1.23-2.22-1.48.37-2.24.42-.58.05-1.19.35-1.65-.15s0-.88.28-1.3c1-1.77.52-3.7.41-5.53-.13-2.23-2-1.81-3.41-1.61-.73.1-1.37.73-2.1,1-1.6.67-2.5.5-1.92-1.6s-.56-4,.32-6c1.22-2.87,3.92-2.88,6.2-3.53A2.42,2.42,0,0,1,85.73,150.17Z"/><path class="cls-1" d="M109.8,190.6a26.58,26.58,0,0,1-12.82-3c-.86-.46-2-1-1.38-2.21s1.69-.89,2.76-.37c10.62,5.19,20.26,3.43,29.07-4.14a16.9,16.9,0,0,1,1.42-1.06c.69-.48,1.39-.77,2.11,0,.87.93.32,1.65-.37,2.27a33.16,33.16,0,0,1-10.36,6.73A29.17,29.17,0,0,1,109.8,190.6Z"/><path class="cls-6" d="M102.56,146.33c-5,3.28-10,6.53-14.35,11-1.59-2.23-1.22-5-2.5-7.15a1.5,1.5,0,0,1,1.63,1.4c.47,2.36,2.57,1.28,3.53,1.26,1.89,0,1-2.14,1.34-3.34.25-1,.4-2.29-1.3-2.33-2.16-.07-2.12-2.34-1.81-3,.64-1.32.2-3.83,2.94-3.61,1.85.15,3.74-.05,5.6.05,1.54.09,3.21,0,2.75,2.61C100.18,144.38,102.49,144.78,102.56,146.33Z"/><path class="cls-6" d="M125.65,128.89c3.9,2.17,6.47,5.6,9.3,9.71a71.15,71.15,0,0,0-25.83,4.57c-.47-1.37.45-3.08-1.48-4.15-1-.54,0-1.09.86-1.42,2.41-1,4.94-.19,7.41-.52.78-.1,1.53.08,2.17-.54.45-.43,1.11-.95,1.56-.64,2.63,1.79,5.14-.73,7.72-.1.51.13,1.32.2,1.48-.54.07-.36-.3-.9-.61-1.23A9.29,9.29,0,0,1,125.65,128.89Z"/><path class="cls-6" d="M95.92,167.1a20,20,0,0,1-2.15-1c-4.7-2.72-5-5.3-1.12-8.9a50.38,50.38,0,0,1,16.9-10.69c-.6,1.61-.48,3.95-3.41,3.12a1.7,1.7,0,0,0-1.37.91c-.6,2-2.08,2-3.72,1.95-.63,0-5.84,4.71-6,5.31a1.19,1.19,0,0,0,.2,1.36C97.61,161.62,95.88,164.44,95.92,167.1Z"/><path class="cls-6" d="M154.86,183.73c1.84,1.48,3.34,3.34,5.42,4.55,3.56,2.07,7,2.49,10.44-.21a2.34,2.34,0,0,1,0,.59c-.79,2.45-7.72,4.6-9.65,2.94-.8-.69-1.74-.22-2.5-.54-1.6-.66-5,0-2.85-3.74.84-1.49-.86-1.21-1.73-1.37a4,4,0,0,1-2.43-6.33l3.05,3.76c-.51.08-1.18-.18-1.38.58,0,.11.14.37.27.42C154.16,184.63,154.56,184.27,154.86,183.73Z"/><path class="cls-6" d="M84,145.85c-1.84-.83-3.38-.49-5.07.86s-2-.93-2.87-1.64a2.1,2.1,0,0,1-.2-3.36c.82-.74,2.56-1.41,3.12-.58,1.5,2.19,3.52,1.78,5.53,1.85,1,0,1.83.43,1.74,1.55C86.14,145.82,85.14,146,84,145.85Z"/><path class="cls-6" d="M147.7,170.62c-1.25,1.5.13,2.59.69,3.72.72,1.49,1.69,2.86,2.56,4.29-1.67.23-2.79-.25-3.25-2.06a4.47,4.47,0,0,0-2.57-3.29,1.88,1.88,0,0,1-.8-2.32,2.6,2.6,0,0,1,1.91-1.68C147.35,169,147.57,169.78,147.7,170.62Z"/><path class="cls-6" d="M112.11,116.82c1,.06,2.15-.23,2.14,1.31,0,.87-.49,1.73-1.44,1.38s-2.45.18-2.57-1.43C110.14,116.75,111.22,116.85,112.11,116.82Z"/><path class="cls-6" d="M109.1,143.12l-5.39,2.58C103.75,141.17,106.85,143,109.1,143.12Z"/><path class="cls-6" d="M98.47,157.47a1.25,1.25,0,0,1,.87,1.06c.06.59-.24,1-.81.95s-.8-.45-.81-1S97.84,157.52,98.47,157.47Z"/><path class="cls-6" d="M84.15,173.87c-1,1.46-1.7,1.89-3.14,1.42C81.86,174.21,82.78,174.3,84.15,173.87Z"/><path class="cls-6" d="M86.26,168.27a.73.73,0,0,1-.75.72.72.72,0,0,1-.76-1c.09-.46.43-.6.86-.57S86.21,167.86,86.26,168.27Z"/><path class="cls-6" d="M105.28,159.06c-.34.2-.55.42-.76.43-.41,0-.74-.21-.6-.66,0-.16.46-.29.69-.28S105,158.82,105.28,159.06Z"/><path class="cls-6" d="M127.16,114c-.17.06-.37.22-.49.17s-.14-.31-.21-.48c.17-.06.38-.22.49-.17S127.1,113.84,127.16,114Z"/><path class="cls-10" d="M240.69,97.22l.2-.61c2.19-.84,3.14-2.6,3.57-4.75,1.06-.13,1.25-.87,1.22-1.76a4.65,4.65,0,0,0,3-3.54c1.31-.28,1.7-1.22,1.73-2.42,1.39-.19,1.71-1.19,1.8-2.37.77,0,1-.56,1.15-1.21,1-.74,1.9-1.53,1.84-2.93,1.41-.19,1.68-1.23,1.77-2.4l.58-.59.6-.59c1.37-.21,1.75-1.17,1.78-2.38,1.81-.37,2.13-2.38,3.53-3.2,3.8,3.11,6.3,6.8,5.38,12-.65,3.76-2.57,6.53-6.27,7.86a14.14,14.14,0,0,1-2,.64c-4.73,1-7.32,4.15-9.16,8.37s-4.14,8.33-7.93,11.24c-3.2,2.45-4.67,2.25-7.17-.92-.53-.67-1.41-1.15-1.47-2.16.74-1.42,2.31-2.36,2.45-4.14C239.13,100.54,239.68,98.68,240.69,97.22Z"/><path class="cls-10" d="M258.77,111c-.14,1.57-2,2.1-3.68,2.11-2.24,0-3.58-1.26-3.47-3.76.09-2,.9-3.48,3-3.66S258.79,108,258.77,111Z"/><path class="cls-10" d="M263.2,109.12c.05-2,2.66-4.85,4-4.71,1.54.17,2.79,1.33,2.56,2.69a3.6,3.6,0,0,1-4,3.14C264.8,110.16,263.44,110.14,263.2,109.12Z"/><path class="cls-12" d="M298.57,97.82l-.39,1.42c-.48.31-1,.64-1.44,1C296.76,99,297.09,98,298.57,97.82Z"/><path class="cls-12" d="M296.19,100.76c0,.19-.05.37-.08.55l-1,.19C295.26,100.93,295.68,100.79,296.19,100.76Z"/><path class="cls-12" d="M299.6,97.08a3.53,3.53,0,0,1-.46.15,1.39,1.39,0,0,1,.65-1.32C299.73,96.3,299.66,96.69,299.6,97.08Z"/><path class="cls-12" d="M296.78,100.16l-.63.63Z"/><path class="cls-12" d="M299.16,97.2l-.61.62Z"/><path class="cls-12" d="M237.32,428.22l-.59.41c-.13-.66.41-.26.61-.39Z"/><path class="cls-4" d="M154.86,183.73c-.3.54-.7.9-1.35.65-.13,0-.3-.31-.27-.42.2-.76.87-.5,1.38-.58A.31.31,0,0,1,154.86,183.73Z"/></g></g></svg>