<svg xmlns="http://www.w3.org/2000/svg" viewBox="0 0 147.87 137.84"><defs><style>.cls-1{fill:#008d36;}</style></defs><title>flecha izuiqerda</title><g id="Capa_2" data-name="Capa 2"><g id="Capa_1-2" data-name="Capa 1"><path class="cls-1" d="M32.18,137.84,50.6,108.3c7.18-11.5,14.26-23.06,21.58-34.47,2.21-3.45,2.35-6.08,0-9.75C59.64,44.44,47.41,24.59,35.1,4.8,34.28,3.47,33,2.29,33.28.43c1.42-1.08,2.39.14,3.37.73q53.49,32,106.93,64.11c.62.37,1.2.81,1.84,1.15,3.42,1.77,3.12,3.27-.07,5.15-11.52,6.78-22.95,13.71-34.42,20.59q-36.25,21.75-72.52,43.49C36.91,136.55,35.55,137.89,32.18,137.84Z"/><path class="cls-1" d="M27.2,42.05C42.08,42.05,54.3,54,54.42,68.6A27.28,27.28,0,0,1,27.33,95.93,27,27,0,0,1,0,69C.05,53.72,11.81,42.06,27.2,42.05Z"/></g></g></svg>