<svg xmlns="http://www.w3.org/2000/svg" viewBox="0 0 195 199.05"><defs><style>.cls-1{fill:#008d36;}.cls-2{font-size:46.26px;fill:#009640;font-family:GetSchwifty-Regular, Get Schwifty;}</style></defs><title>Recurso 3</title><g id="Capa_2" data-name="Capa 2"><g id="Capa_1-2" data-name="Capa 1"><path class="cls-1" d="M97.39,0c5.28.45,10.84.59,16.28,1.46a92.22,92.22,0,0,1,28.09,9.38,99.09,99.09,0,0,1,21.1,14.71A97.86,97.86,0,0,1,183.42,52a98.93,98.93,0,0,1,9.5,26.53A86.8,86.8,0,0,1,194.46,97c0,7.92-.38,15.86-2.28,23.59A100.72,100.72,0,0,1,184.71,141a98,98,0,0,1-13.63,20.75,94.24,94.24,0,0,1-18.21,16.38,99.93,99.93,0,0,1-23.64,12,86.67,86.67,0,0,1-25.29,5c-6.19.26-12.39.56-18.51-.36a133.36,133.36,0,0,1-16.29-3.48,91,91,0,0,1-37-21,101.71,101.71,0,0,1-18.33-22A96.61,96.61,0,0,1,2.48,120.45,97.86,97.86,0,0,1,.14,92.58,82.32,82.32,0,0,1,1.92,76.91,104.06,104.06,0,0,1,16,43.74,92.87,92.87,0,0,1,40.85,18.23C53.15,9.7,66.54,3.65,81.39,1.31,86.58.49,91.88.43,97.39,0Zm22.14,157.44.16-.36a10.57,10.57,0,0,0-1.31-.75A32.32,32.32,0,0,1,103.51,145a3.2,3.2,0,0,0-3-1.39A4.16,4.16,0,0,1,98,143a6.71,6.71,0,0,1-2.93-6.49,3.8,3.8,0,0,1,1-2.17,2.62,2.62,0,0,0,.64-3.37c-1-2.05-2-4.09-2.88-6.17a3.21,3.21,0,0,1-.19-1.91c.69-3,1.49-5.94,2.22-8.92.46-1.91.59-4,1.36-5.72a38.52,38.52,0,0,1,15.79-17.69c3.76-2.29,8.07-3,12.37-3.55,4-.51,7.93-.8,11.85.26,12.85,3.47,21.5,11.28,24.76,24.42a38,38,0,0,1,.79,16.68,11,11,0,0,0,.66,6.75c1.28,3,.16,5.84-2.58,7.55a11,11,0,0,0-1.77,1.24c-3.43,3.27-6.8,6.58-10.25,9.84a1.65,1.65,0,0,0-.35,2.31c1.43,2.95,2.69,6,4.07,9a1.13,1.13,0,0,0,1,.45,3.38,3.38,0,0,0,1.34-.81c1.76-1.61,3.55-3.2,5.23-4.9,16.93-17.07,26-37.52,26.42-61.66a97.2,97.2,0,0,0-2.23-23.25c-2.78-12.2-8.36-23.11-15.71-33.12-7.62-10.36-17.47-18.26-28.61-24.55A85.69,85.69,0,0,0,105.28,6.42a88.19,88.19,0,0,0-22.54.85,89.34,89.34,0,0,0-30.92,11.1A86.31,86.31,0,0,0,27.43,39.43C16.16,53.76,9,69.8,7.83,88.2a108.82,108.82,0,0,0,.46,21.35,84.53,84.53,0,0,0,8.23,26c4.6,9.37,10.94,17.52,17.79,25.32.08.1.24.14.43.26.79-2.84,1.52-5.62,2.35-8.37,1.7-5.62,3.45-11.21,5.17-16.81a2.11,2.11,0,0,1,1.51-1.52c2.8-.92,5.61-1.86,8.39-2.85,2.2-.79,4.39-1.63,6.55-2.53a2,2,0,0,0,1.11-2.29,2.26,2.26,0,0,0-1.56-1.9A47.62,47.62,0,0,1,53,122.17c-1.42-.88-2.56-1.11-4,0-2,1.47-3.19.83-3.49-1.65,0-.3,0-.6-.06-.9-.1-1-.19-2-.3-3.06H43.59c-2,0-3.94.16-5.91.09-1.61,0-1.93-.55-1.56-2.11.46-2,1-4,1.48-6s.41-2-1.46-2.77c-2.45-1-4.93-1.93-7.36-3-1.22-.53-1.27-.81-.49-1.87S30,98.75,31,97.7s2-2.09,2.94-3.17c1.54-1.73,1.53-2.09-.2-3.71a22.49,22.49,0,0,0-8.68-5c-1.13-.36-2.24-.81-3.67-1.34.83-.75,1.39-1.34,2-1.83,2.67-2,5.45-3.86,8-6s3.14-1.88.74-5.31c-2.08-3-4.67-5.55-7-8.3-.65-.76-1.32-1.49-2-2.24l.13-.33,18.68-1.88c-.13-4.55-1.57-8.44-3.27-12.26-.35-.77-.6-1.59-.9-2.39l.23-.34a17,17,0,0,1,2.69.46c3.31,1.09,6.57,2.32,9.88,3.39,2.44.8,2.24,1,2.86-1.52,1-4.29,1.87-8.64,2.74-13,.24-1.18.72-1.44,1.7-.73a8.34,8.34,0,0,1,1.42,1.3c2.8,3.35,5.56,6.71,8.34,10.07.33.39.69.75,1.15,1.25.76-.81,1.39-1.52,2.06-2.19a50.57,50.57,0,0,1,11.68-9.16,10.79,10.79,0,0,1,2-.6,10.34,10.34,0,0,1,.28,2.18A53.25,53.25,0,0,0,86.08,50c.28,1.41.57,1.58,2,1.17,2.39-.71,4.76-1.5,7.14-2.27,2-.65,4-1.33,6-2l.2.25c-.54,1.07-1,2.16-1.62,3.2-1.92,3.44-3.91,6.85-5.81,10.3-.87,1.57-.77,1.84,1,2.18,3.67.69,7.38,1.22,11.07,1.83.51.08,1,.22,1.52.34l.17.45L96.26,76.5l12.29,5.87a12.34,12.34,0,0,1-1.47,1.07q-6.06,3-12.15,5.87c-.55.26-1.12.46-1.67.72-.75.34-.78.86-.26,1.43a6.38,6.38,0,0,0,1.07,1c1.45,1,2.94,1.87,4.4,2.82,1.06.69,2.09,1.41,3.33,2.25-3.15,2.36-6.66,3.35-9.84,5.08.54,1.73,1.12,3.41,1.58,5.12s0,2.24-1.72,2.37c-.72,0-1.45,0-2.16.1-1.87.29-2.32,1.22-1.37,2.85.48.82,1.06,1.57,1.53,2.4.74,1.31.54,1.87-.92,2.2a15.56,15.56,0,0,0-6,3.29c-2,1.55-4,3.07-6.11,4.51-1.67,1.15-1.78,3.22,0,4.29a12.17,12.17,0,0,0,3,1.32c3.68,1,7.37,2,11.08,3a1.32,1.32,0,0,1,1.1,1.08c2.8,10,5.65,20,8.42,30,1.15,4.16,2.13,8.36,3.21,12.54a13,13,0,0,0,.8,1.84l.54-.05c.74-4.13,1.35-8.3,2.25-12.4s3.27-7.84,5.1-11.69C114.7,156.2,116.94,157.45,119.53,157.44Zm5.16-42c-.63.61-1.26,1.11-1.77,1.71a10.29,10.29,0,0,1-5.77,3.39c-1.69.4-3.4.71-5.11,1-2.08.35-4.16.64-6.21,1-.37,5.48,2.43,9.34,8,11.2a11.12,11.12,0,0,0,12.44-4.53C129.2,124.49,128.31,120,124.69,115.42Zm30.57,6.34c-.76-.08-1.43-.16-2.1-.22-2.49-.24-5-.35-7.45-.73-3.54-.55-7.12-1.14-9-4.89-.06-.14-.79-.17-.93,0a9.68,9.68,0,0,0-1.25,1.89c-1.66,3.32-2.12,6.81-.35,10.14,3.31,6.2,11.3,7,16.5,3.65C154.26,129.31,155.27,125.85,155.26,121.76Zm-91.17-38a28.58,28.58,0,0,0,0-4.55c-.57-3.5-4.91-7.08-8.46-7.16a4.27,4.27,0,0,0-1.12.16,10.06,10.06,0,0,0-7.11,8.9c-.06,1.76.51,2.59,2.2,2.62C54.29,83.78,59,83.73,64.09,83.73ZM74.26,75.8c-.49,0-1,0-1.47,0-2.71.21-4.09,1.69-4.14,4.41,0,1.68.35,2.16,2,2.39,1.16.17,2.33.23,3.49.4,2.76.42,5.52.88,8.27,1.32,1.7.27,2.5-.32,2.82-2a3.67,3.67,0,0,0-1.78-3.87A16.22,16.22,0,0,0,74.26,75.8Zm8,88.59.25.22a8.54,8.54,0,0,0,1.13-.81c1.33-1.35,2.63-2.73,3.93-4.1a6.51,6.51,0,0,0,1.37-7.44,126.67,126.67,0,0,0-8.86-18,5.1,5.1,0,0,0-.72-.83l-.24.17c.35.82.67,1.66,1,2.47,2.55,5.49,5,11,7.72,16.43,1.3,2.57.79,4.48-1.06,6.39-1.32,1.36-2.55,2.79-3.8,4.22A8.89,8.89,0,0,0,82.24,164.39Zm-3.6-5.12c1.26-2.35-1.36-22.18-3.21-24.14C76.71,143.32,76.75,151.4,78.64,159.27Zm-19.47-4.74c1-6,1.45-16,.6-17.51a6.84,6.84,0,0,0-.57,1.75C59.16,144,59.17,149.28,59.17,154.53ZM45.11,107.86l-.28.09a1.1,1.1,0,0,0,0,.4,27.92,27.92,0,0,0,4.13,10.1,3.5,3.5,0,0,0,.82.63l.28-.22Q47.57,113.35,45.11,107.86ZM51.56,160l-.29.29,2,2.23c.7.8,1.74,1.41,1.47,2.75,0,.11.4.43.62.43a1.14,1.14,0,0,0,.74-2,47.27,47.27,0,0,0-3.89-3.58C52.05,160,51.77,160,51.56,160Z"/></g></g></svg>