<svg xmlns="http://www.w3.org/2000/svg" viewBox="0 0 596.24 199.05"><defs><style>.cls-1{fill:#008d36;}.cls-2{font-size:46.26px;fill:#009640;font-family:GetSchwifty-Regular, Get Schwifty;}</style></defs><title>Recurso 3</title><g id="Capa_2" data-name="Capa 2"><g id="Capa_1-2" data-name="Capa 1"><path class="cls-1" d="M97.39,0c5.28.45,10.84.59,16.28,1.46a92.22,92.22,0,0,1,28.09,9.38,99.09,99.09,0,0,1,21.1,14.71A97.86,97.86,0,0,1,183.42,52a98.93,98.93,0,0,1,9.5,26.53A86.8,86.8,0,0,1,194.46,97c0,7.92-.38,15.86-2.28,23.59A100.72,100.72,0,0,1,184.71,141a98,98,0,0,1-13.63,20.75,94.24,94.24,0,0,1-18.21,16.38,99.93,99.93,0,0,1-23.64,12,86.67,86.67,0,0,1-25.29,5c-6.19.26-12.39.56-18.51-.36a133.36,133.36,0,0,1-16.29-3.48,91,91,0,0,1-37-21,101.71,101.71,0,0,1-18.33-22A96.61,96.61,0,0,1,2.48,120.45,97.86,97.86,0,0,1,.14,92.58,82.32,82.32,0,0,1,1.92,76.91,104.06,104.06,0,0,1,16,43.74,92.87,92.87,0,0,1,40.85,18.23C53.15,9.7,66.54,3.65,81.39,1.31,86.58.49,91.88.43,97.39,0Zm22.14,157.44.16-.36a10.57,10.57,0,0,0-1.31-.75A32.32,32.32,0,0,1,103.51,145a3.2,3.2,0,0,0-3-1.39A4.16,4.16,0,0,1,98,143a6.71,6.71,0,0,1-2.93-6.49,3.8,3.8,0,0,1,1-2.17,2.62,2.62,0,0,0,.64-3.37c-1-2.05-2-4.09-2.88-6.17a3.21,3.21,0,0,1-.19-1.91c.69-3,1.49-5.94,2.22-8.92.46-1.91.59-4,1.36-5.72a38.52,38.52,0,0,1,15.79-17.69c3.76-2.29,8.07-3,12.37-3.55,4-.51,7.93-.8,11.85.26,12.85,3.47,21.5,11.28,24.76,24.42a38,38,0,0,1,.79,16.68,11,11,0,0,0,.66,6.75c1.28,3,.16,5.84-2.58,7.55a11,11,0,0,0-1.77,1.24c-3.43,3.27-6.8,6.58-10.25,9.84a1.65,1.65,0,0,0-.35,2.31c1.43,2.95,2.69,6,4.07,9a1.13,1.13,0,0,0,1,.45,3.38,3.38,0,0,0,1.34-.81c1.76-1.61,3.55-3.2,5.23-4.9,16.93-17.07,26-37.52,26.42-61.66a97.2,97.2,0,0,0-2.23-23.25c-2.78-12.2-8.36-23.11-15.71-33.12-7.62-10.36-17.47-18.26-28.61-24.55A85.69,85.69,0,0,0,105.28,6.42a88.19,88.19,0,0,0-22.54.85,89.34,89.34,0,0,0-30.92,11.1A86.31,86.31,0,0,0,27.43,39.43C16.16,53.76,9,69.8,7.83,88.2a108.82,108.82,0,0,0,.46,21.35,84.53,84.53,0,0,0,8.23,26c4.6,9.37,10.94,17.52,17.79,25.32.08.1.24.14.43.26.79-2.84,1.52-5.62,2.35-8.37,1.7-5.62,3.45-11.21,5.17-16.81a2.11,2.11,0,0,1,1.51-1.52c2.8-.92,5.61-1.86,8.39-2.85,2.2-.79,4.39-1.63,6.55-2.53a2,2,0,0,0,1.11-2.29,2.26,2.26,0,0,0-1.56-1.9A47.62,47.62,0,0,1,53,122.17c-1.42-.88-2.56-1.11-4,0-2,1.47-3.19.83-3.49-1.65,0-.3,0-.6-.06-.9-.1-1-.19-2-.3-3.06H43.59c-2,0-3.94.16-5.91.09-1.61,0-1.93-.55-1.56-2.11.46-2,1-4,1.48-6s.41-2-1.46-2.77c-2.45-1-4.93-1.93-7.36-3-1.22-.53-1.27-.81-.49-1.87S30,98.75,31,97.7s2-2.09,2.94-3.17c1.54-1.73,1.53-2.09-.2-3.71a22.49,22.49,0,0,0-8.68-5c-1.13-.36-2.24-.81-3.67-1.34.83-.75,1.39-1.34,2-1.83,2.67-2,5.45-3.86,8-6s3.14-1.88.74-5.31c-2.08-3-4.67-5.55-7-8.3-.65-.76-1.32-1.49-2-2.24l.13-.33,18.68-1.88c-.13-4.55-1.57-8.44-3.27-12.26-.35-.77-.6-1.59-.9-2.39l.23-.34a17,17,0,0,1,2.69.46c3.31,1.09,6.57,2.32,9.88,3.39,2.44.8,2.24,1,2.86-1.52,1-4.29,1.87-8.64,2.74-13,.24-1.18.72-1.44,1.7-.73a8.34,8.34,0,0,1,1.42,1.3c2.8,3.35,5.56,6.71,8.34,10.07.33.39.69.75,1.15,1.25.76-.81,1.39-1.52,2.06-2.19a50.57,50.57,0,0,1,11.68-9.16,10.79,10.79,0,0,1,2-.6,10.34,10.34,0,0,1,.28,2.18A53.25,53.25,0,0,0,86.08,50c.28,1.41.57,1.58,2,1.17,2.39-.71,4.76-1.5,7.14-2.27,2-.65,4-1.33,6-2l.2.25c-.54,1.07-1,2.16-1.62,3.2-1.92,3.44-3.91,6.85-5.81,10.3-.87,1.57-.77,1.84,1,2.18,3.67.69,7.38,1.22,11.07,1.83.51.08,1,.22,1.52.34l.17.45L96.26,76.5l12.29,5.87a12.34,12.34,0,0,1-1.47,1.07q-6.06,3-12.15,5.87c-.55.26-1.12.46-1.67.72-.75.34-.78.86-.26,1.43a6.38,6.38,0,0,0,1.07,1c1.45,1,2.94,1.87,4.4,2.82,1.06.69,2.09,1.41,3.33,2.25-3.15,2.36-6.66,3.35-9.84,5.08.54,1.73,1.12,3.41,1.58,5.12s0,2.24-1.72,2.37c-.72,0-1.45,0-2.16.1-1.87.29-2.32,1.22-1.37,2.85.48.82,1.06,1.57,1.53,2.4.74,1.31.54,1.87-.92,2.2a15.56,15.56,0,0,0-6,3.29c-2,1.55-4,3.07-6.11,4.51-1.67,1.15-1.78,3.22,0,4.29a12.17,12.17,0,0,0,3,1.32c3.68,1,7.37,2,11.08,3a1.32,1.32,0,0,1,1.1,1.08c2.8,10,5.65,20,8.42,30,1.15,4.16,2.13,8.36,3.21,12.54a13,13,0,0,0,.8,1.84l.54-.05c.74-4.13,1.35-8.3,2.25-12.4s3.27-7.84,5.1-11.69C114.7,156.2,116.94,157.45,119.53,157.44Zm5.16-42c-.63.61-1.26,1.11-1.77,1.71a10.29,10.29,0,0,1-5.77,3.39c-1.69.4-3.4.71-5.11,1-2.08.35-4.16.64-6.21,1-.37,5.48,2.43,9.34,8,11.2a11.12,11.12,0,0,0,12.44-4.53C129.2,124.49,128.31,120,124.69,115.42Zm30.57,6.34c-.76-.08-1.43-.16-2.1-.22-2.49-.24-5-.35-7.45-.73-3.54-.55-7.12-1.14-9-4.89-.06-.14-.79-.17-.93,0a9.68,9.68,0,0,0-1.25,1.89c-1.66,3.32-2.12,6.81-.35,10.14,3.31,6.2,11.3,7,16.5,3.65C154.26,129.31,155.27,125.85,155.26,121.76Zm-91.17-38a28.58,28.58,0,0,0,0-4.55c-.57-3.5-4.91-7.08-8.46-7.16a4.27,4.27,0,0,0-1.12.16,10.06,10.06,0,0,0-7.11,8.9c-.06,1.76.51,2.59,2.2,2.62C54.29,83.78,59,83.73,64.09,83.73ZM74.26,75.8c-.49,0-1,0-1.47,0-2.71.21-4.09,1.69-4.14,4.41,0,1.68.35,2.16,2,2.39,1.16.17,2.33.23,3.49.4,2.76.42,5.52.88,8.27,1.32,1.7.27,2.5-.32,2.82-2a3.67,3.67,0,0,0-1.78-3.87A16.22,16.22,0,0,0,74.26,75.8Zm8,88.59.25.22a8.54,8.54,0,0,0,1.13-.81c1.33-1.35,2.63-2.73,3.93-4.1a6.51,6.51,0,0,0,1.37-7.44,126.67,126.67,0,0,0-8.86-18,5.1,5.1,0,0,0-.72-.83l-.24.17c.35.82.67,1.66,1,2.47,2.55,5.49,5,11,7.72,16.43,1.3,2.57.79,4.48-1.06,6.39-1.32,1.36-2.55,2.79-3.8,4.22A8.89,8.89,0,0,0,82.24,164.39Zm-3.6-5.12c1.26-2.35-1.36-22.18-3.21-24.14C76.71,143.32,76.75,151.4,78.64,159.27Zm-19.47-4.74c1-6,1.45-16,.6-17.51a6.84,6.84,0,0,0-.57,1.75C59.16,144,59.17,149.28,59.17,154.53ZM45.11,107.86l-.28.09a1.1,1.1,0,0,0,0,.4,27.92,27.92,0,0,0,4.13,10.1,3.5,3.5,0,0,0,.82.63l.28-.22Q47.57,113.35,45.11,107.86ZM51.56,160l-.29.29,2,2.23c.7.8,1.74,1.41,1.47,2.75,0,.11.4.43.62.43a1.14,1.14,0,0,0,.74-2,47.27,47.27,0,0,0-3.89-3.58C52.05,160,51.77,160,51.56,160Z"/><path class="cls-1" d="M432.84,105.78c-1.12-1.1-1.28-2.55-1.46-4,0-.26.05-.52.08-.78a4.59,4.59,0,0,0-.08-2.86,26.73,26.73,0,0,0-1-5.27A29.61,29.61,0,0,1,428,83.79a2.4,2.4,0,0,0-.9-2c-2.24-1.24-2.34-4.06-4.28-5.55-.74-.57-.68-1.78-.6-2.77s.19-2.15.28-3.22c-1.19,3.36-2.89,6.61-1.41,10.33a8.15,8.15,0,0,1,.11,5.1c-1.28,4.94-1.36,10.09-2.59,15a8.11,8.11,0,0,0,.15,3.79c-.07,1-.15,2-.22,2.93-.59.76-1.15,1.56-1.8,2.28-2.1,2.3-3.09,4.84-2.26,8a12.15,12.15,0,0,1-.67,8.34,11,11,0,0,0-1.16,5,9.77,9.77,0,0,1-.81,2.28c-.58.88-1.22,2-2.53,1.84s-1.73-1-2-2.13l-.21-1.1c0-.25,0-.5,0-.75a38.14,38.14,0,0,0-.06-7.85c-.45-1.82-.91-3.62-.2-5.5a8.28,8.28,0,0,0-.27-6.35c-2-4.76-1.61-9.21,1.94-13.18a8.84,8.84,0,0,0,2.14-5.08,26.36,26.36,0,0,0-.34-7.83c-.54-2.76-.77-5.61.27-8.22,2.65-6.65,3.48-13.78,5.77-20.51.8-1.1,1.15-2.88,3.19-2.12.58,1.22,1.83,1.38,3,1.92.37-2.21,2.59-3.39,3-5.44a24,24,0,0,1,3.6-7.92c.65-.59,1-1.51,1.88-1.86a2.37,2.37,0,0,1,3.1,2.44,27.15,27.15,0,0,1-.61,3.06c-.49,1.49-1,3-1.47,4.48-1,3.08-1.66,6.11,1.17,8.66l.33,2.19c-.39,2.3-.73,4.56.74,6.72a4.57,4.57,0,0,1,.4,3.08c-.07.58-.29,1.21.3,1.66,1.33,1,1.21,2.46,1.21,3.9,0,2.47,0,5,.14,7.43.09,1.85.35,3.69.53,5.54a83.28,83.28,0,0,0,1.49-10c.38-2.89.7-6.07,2.6-8.24,3.2-3.67,4.28-8,5.17-12.49.8-4,2-7.86,4.92-10.91a5.2,5.2,0,0,0,1.69-3.37c.07-4.15,1.95-7.43,4.53-10.46a7.56,7.56,0,0,0,.71-1.39,6.19,6.19,0,0,0,.68-.87c.76-1.44,1.68-2.91,3.53-1.88a3.16,3.16,0,0,1,1.34,4.4c-1.14,2.61-2.45,5.16-3.38,7.84-1.46,4.21-2.64,8.67-1.28,13,2.11,6.73.83,13.93,3.3,20.55.15.4-.05.92.08,1.34.66,2.09-.54,4.58.68,6.32a6.38,6.38,0,0,1,.85,5.5,4.88,4.88,0,0,0-.3,2.42c1.3,3.52-.09,6.64-1.28,9.79a4.71,4.71,0,0,0,.39,4.5,6.75,6.75,0,0,1,1,5.39,4.31,4.31,0,0,0,1.1,4.14,4.84,4.84,0,0,1,1.05,5.06c-1,2.6-.42,4.79,1,7a8.5,8.5,0,0,1,1.33,4.93,5.37,5.37,0,0,0,.42,2.63,2.19,2.19,0,0,1-2.41,2.17c-.48-.26-.77-1.14-1.53-.47a2,2,0,0,1-2.36-1.26c.34-2.62.31-5-2.54-6.47a3.16,3.16,0,0,1-1.47-3.12c.09-1.41-.08-2.58-1.43-3.46a2.72,2.72,0,0,1-.88-2.67c.14-1.42.32-2.83.59-4.23a3.53,3.53,0,0,0-.67-3.15A15.72,15.72,0,0,1,452.51,102a11.19,11.19,0,0,0-.3-4.68,15.88,15.88,0,0,1,.19-11.87c1.12-2.89,2.38-5.85-1.14-8.11-.34-.21-.11-1-.88-.89a13.72,13.72,0,0,0-.05,5.07A9.28,9.28,0,0,1,448,89.72a10.33,10.33,0,0,0-2.64,7.41,13.48,13.48,0,0,1-1.59,6.71,11,11,0,0,0-1.16,7,11.69,11.69,0,0,1-.21,1.78c-.38,1.41-.69,3.07-2.53,3.14-1.64.06-2.6-1.12-3.19-2.57l-.42-1C435.52,109.83,436.7,106.45,432.84,105.78Zm-22.69,26.76c.6-.12,1-.36.54-1l0-.7c.19-.12.5-.22.54-.37.91-4.23,3.33-8.23,2-12.81a12.78,12.78,0,0,1,0-4.14,9.14,9.14,0,0,1,2.64-4.59,4.44,4.44,0,0,0,1.49-3.6c-.25-6.39,1.28-12.58,2.36-18.81a13.44,13.44,0,0,0-.12-6.4c0-.47.07-1-.36-1.3-.38-3.69,1.14-6.94,2.35-10.27.86-.86,1.74-1.79,2.15.32l.05,4.1c-.28,2.7,1.94,4.23,3,6.31.55,1.6,2.25,2.41,2.73,4,0,.44.08.88.13,1.33-.11.78-.27,1.58.67,2l-.06.67a2.52,2.52,0,0,0,.67,2.73,1.87,1.87,0,0,0,.49,1.34c.62,3.9,1.68,7.73,1.7,11.71a1.74,1.74,0,0,0,1.43,2c1.82.44,2.39,1.84,2.63,3.51a21.45,21.45,0,0,0,.62,3.29c.31,1,.77,2.17,2.08,2s1.45-1.4,1.36-2.49a16.6,16.6,0,0,1,1.91-9.1,8.8,8.8,0,0,0,.86-4.13c.06-3.43.63-6.66,3.18-9.3a7.91,7.91,0,0,0,2-5.57,38.09,38.09,0,0,0-.36-4.24c-.2-1.79,1-3.38.55-5.17.76-1.4,1.52-1.7,2.29,0,.29,1.11,0,2.44,1.27,3.17a3.07,3.07,0,0,0,1.31,1.38,3.13,3.13,0,0,0,.94,1.78c0,.45,0,.9,0,1.35l-2.22,6.78c-.56.36-.49.9-.4,1.44a16.36,16.36,0,0,0,0,3.77c.76,3.32,1.6,6.61,1.29,10.07l0,.59a14.11,14.11,0,0,0,3,8.07,4.82,4.82,0,0,1,1.15,2.63,1.93,1.93,0,0,0-.33,1.89c-1.58,4.36,2.6,7.44,2.57,11.47,0,.27.44.6.74.8,1.88,1.31,3.17,2.82,2.83,5.38-.18,1.34,1.21,1.4,2.09,1.5,1.07.11,1-.85,1-1.6a11.46,11.46,0,0,0-1.65-6.41,7.16,7.16,0,0,1-1.38-4.84,5.64,5.64,0,0,0-.94-7.23c-.88-4.06-.89-8.28-2.3-12.25a3.22,3.22,0,0,1,.44-2.16c.36-.9.64-1.83,1-2.74.7-.61.38-1.41.43-2.14a2.21,2.21,0,0,0,.16-2.14,7.52,7.52,0,0,1-.18-4.2A6.29,6.29,0,0,0,461,83.75l0-2.24a19,19,0,0,0-1-8.25,9.79,9.79,0,0,1-.77-4.37,4.41,4.41,0,0,0,0-4.09,46.3,46.3,0,0,0-1-5.28c-2.05-6.8-1.11-13.27,1.88-19.58a53.22,53.22,0,0,0,2.09-5.2c.27-.75.43-1.73-.49-2.2s-1.59.32-2,1a53.92,53.92,0,0,1-4,5.71,3.66,3.66,0,0,0-1,2.21,14,14,0,0,1-4.07,9.91A1.49,1.49,0,0,0,449.7,53c-2.46,5.49-2.77,11.61-5,17.16v0a1.42,1.42,0,0,0-1.3,1.39h0c-2.68,2.26-3,5.55-3.53,8.66-.53,3.29-.63,6.66-1,10-.11,1.08-.19,2.61-1.57,2.54s-1.42-1.49-1.59-2.63a14.72,14.72,0,0,0-.82-4.09c0-1-.09-2.09-.14-3.13,0-1.87.1-3.73.1-5.6,0-.94.23-2-.85-2.59l-.39-.45c-.12-2.66-.24-5.32-1.84-7.63,0-.75,0-1.49,0-2.24a5,5,0,0,0-.91-5.58c-.5-.57-1.05-1.17-.9-2,.35-1.88.15-3.82.82-5.68.76-2.1,1.28-4.29,1.83-6.46.17-.64.17-1.42-.58-1.76-.59-.26-1,.14-1.19.7a1.72,1.72,0,0,0-.95,1.34,1.47,1.47,0,0,0-.87,1.35h0a3.74,3.74,0,0,0-1.38,2.45c-.45,1.57-.61,3.34-1.79,4.51a10.24,10.24,0,0,0-2.43,4.68c-.67.85-1.33.58-2,0-2.57-1.94-3.48-1.74-4.35,1.13a69.58,69.58,0,0,0-1.87,7.36c-.87,4.57-2.82,8.81-3.77,13.34-.49.36-.41.84-.26,1.34v1.32a3.26,3.26,0,0,0,.36,2.78l.4,2.18c-.05.63-.25,1.3.31,1.83A15.91,15.91,0,0,1,409.15,100h0a1.5,1.5,0,0,0-.92,1.36,2.45,2.45,0,0,0-.84,1.83c-1,2.17-.59,4.35,0,6.52.44,1.73,1.4,3.32,1.34,5.17-.6.55-.42,1.22-.28,1.88-.19,1.46-.9,2.89-.52,4.4a42.71,42.71,0,0,1,.9,6.84l0,4.48c0,.39,0,.77.48.85s.79-.25.85-.76Z"/><path class="cls-1" d="M210.49,145.07a33.44,33.44,0,0,1-.36-3.72c0-1.43-.19-2.64-1.57-3.46a2,2,0,0,1-1.06-2.31c1.22-3.93-1.18-7-2.63-10.08-1.56-3.34-2.79-6.43-.91-10,.79-1.52-.31-3-1.13-4.14a5.38,5.38,0,0,1-.77-5.58c1-2.77.32-5.8-.81-8.58-.67-1.68-1.47-3.27-.88-5.19.29-1-.55-1.67-1.12-2.34a5.32,5.32,0,0,1-1.45-5.17c.44-1.62-.36-3.17-.78-4.59a7.93,7.93,0,0,1,0-4.82,4.54,4.54,0,0,0-1.55-5.24c-3.12-2.66-3.55-6-2.39-9.62.71-2.23.39-3.82-1.42-5.38a4.68,4.68,0,0,1-.79-6.16c.4-.69,1-1.46,1.73-1.15,1.59.66,2.29-.37,3.24-1.22,2-1.77,4.09-3,6.93-2.11a5.64,5.64,0,0,0,4.92-1,41.75,41.75,0,0,0,4.18-3c2.83-2.4,6-2.33,9.1-1.07a36.18,36.18,0,0,1,7.76,4.08,4.2,4.2,0,0,0,3.18.69c2.44-.29,3.47.39,3.75,2.73.19,1.51.76,1.41,1.9,1.11,3.45-.94,5.87,1,5.83,4.64,0,2.33-.64,4.7,1.57,6.62,1,.83.89,2.37.43,3.64a11.19,11.19,0,0,0-.33,5.33c.31,2.45.38,4.92-2,6.62a1.1,1.1,0,0,0-.45.75c.4,3.15-2,5.35-2.74,8.11-.9,3.35-2.45,6.21-6.48,6.49-1.29.09-1.62,1.2-2.16,2.07s-1.45,1.27-2.37,2c2.29.5,3,2.36,3.81,4.06.38.76.51,1.64,1.89,1.21,1.18-.38,1.77.83,2.35,1.71.34.52.35,1.38,1.33,1.25,3.18-.4,4.87,1.63,6.11,4a13.48,13.48,0,0,0,4,5.24,6.47,6.47,0,0,1,2.32,4.5c.22,1.32.69,2.48,2.22,2.76.15,0,.36.08.4.18,1.77,4.38,7.87,5.62,8.06,11.18a5.39,5.39,0,0,0,1.69,3.37c2.22,2.35,2.84,5.21,2.71,8.32-.43.27-.4.55,0,.83l.09.69c-.07,1.15,0,2.4-1.2,3.06a2,2,0,0,1-2.21-.49,6.11,6.11,0,0,1-1.1-1.76,5.07,5.07,0,0,0-2.36-3.86,4.15,4.15,0,0,1-1.82-2.76c-.78-3.44-1.91-6.59-5.59-8a1.84,1.84,0,0,1-.76-.82c-1.48-2.48-2.75-5-5.91-6-1.71-.56-2-2.88-2.92-4.41-.49-.82-.83-1.55-2-1-2.1,1-3.43,0-4.27-1.92-.41-1-.86-1.92-1.29-2.88-.94-2.08-3.63-1.42-4.86-3.08a1.61,1.61,0,0,0-.56.31c-1.7,1.72-2.8.52-3.8-.83-.75-1-1.41-2.12-2.12-3.18-.42-.63-.86-1.4-1.74-1.16-2.62.71-4.3-.64-5.83-2.44-.3-.35-.59-1-1.26-.51a1.16,1.16,0,0,0-.51,1.37,12.32,12.32,0,0,0,.58,1.46c1.6,3.27.14,6.9,1.18,10.24a1.42,1.42,0,0,1-.26,1.07c-2,2.81-1,5.2.87,7.58a5.05,5.05,0,0,1,1,5.28,5.24,5.24,0,0,0,.32,5,3.69,3.69,0,0,1-.71,4.92,4.6,4.6,0,0,0-1.6,4.39,20.15,20.15,0,0,1-.08,2.69C213.26,147.58,211.87,146.31,210.49,145.07Zm41.38-17.54h0a1.43,1.43,0,0,0,1.36,1.37l.86.46a1.7,1.7,0,0,0,1.39.89l1.35,1.34.88,2.25.18,1.32a2,2,0,0,0,.73,1.84,2.28,2.28,0,0,0,1,1.77c1.11,1.48,2.55,2.73,3.16,4.57a.85.85,0,0,0,1,.69c.52-.12.65-.57.68-1,.15-3,.05-5.87-2-8.31a10.12,10.12,0,0,1-2.53-5.65,3.86,3.86,0,0,0-1.9-3.17,12.57,12.57,0,0,1-3.85-3.33h0c-2.26-3.06-5-5.77-6.33-9.47-.14-.15-.29-.3-.44-.44a26.44,26.44,0,0,1-4.36-6.13c-.93-1.76-2.4-3.3-4.83-2.92a1.58,1.58,0,0,1-1.71-.8c-.18-.54-.29-1.12-.86-1.43-1.13-.94-3.18,0-3.82-2.15A6.24,6.24,0,0,0,228,95c-.54-.21-1.28-.8-.59-1.33,2.33-1.76,3.41-5,6.84-5.47,1.25-.15,2.53-.6,2.81-2.17l.07-.72c1.84-1.23,1.45-3.41,2.18-5.12h0c1.36-.75,1.63-2.07,1.73-3.43a4,4,0,0,1,.63-2.56,8,8,0,0,0,1.77-7.7,2.29,2.29,0,0,0,.22-1.79c0-1.76,1.47-3.74.07-5.2-2.06-2.15-1.75-4.59-1.75-7.1,0-2.87-1.35-4-4.27-3.43-1.84.33-3.12-.05-3.38-2.15A1.89,1.89,0,0,0,232,45a7.13,7.13,0,0,1-4.79-1.45,34.66,34.66,0,0,0-6.39-3.26c-3-1.14-6.17-1.51-8.64,1.41l-5.84,3.62-.86.08-1.34.42-.89,0c-2.52-1.09-4.66-.35-6.57,1.41A6.16,6.16,0,0,1,194.32,49c-3.32,1-3.89,2.87-1.38,5.32a5.46,5.46,0,0,1,1.46,6c-1.05,3.55-.49,6.61,2.35,9.2,1.24,1.12,2.36,2.64,1.8,4.37-.89,2.74-.42,5.32.28,7.92a7.44,7.44,0,0,1,.3,2.88,5.8,5.8,0,0,0,1.36,4.6c.74.92,1.58,1.93,1.19,3.25a3.91,3.91,0,0,0,.54,3.21c.08.58-.1,1.24.52,1.65,1.07,3.31,1.47,6.62.22,10a2.51,2.51,0,0,0,1.13,3.08h0c.34,1.84,2,3.4,1.1,5.52-1.28,3-.72,5.85.71,8.78s3.47,5.61,3.19,9.1c-.24.61-.78,1.2-.09,1.85,0,1.63,1.47,2.21,2.3,3.25l.06.84c0,.6,0,1.2,0,1.8.07,1.25,0,3.05,1.57,3s.78-1.88.93-2.94l.16-1.85c2.3-2.1,3-4.44,1.47-7.38a4.08,4.08,0,0,1,0-3.09,10.2,10.2,0,0,0,.34-3.55c0-.62,0-1.21-.77-1.39-1.87-2.83-3.17-5.59-1.21-9.1a4.31,4.31,0,0,0-.72-4.84l0-1.32c1.17-2.2,0-4-.91-5.91v-.86l1.77-2.14,1.3-.07c1.13,1.27,2.14,3.17,3.93,3,3.22-.26,4.77,1.45,6.11,3.87.5.9,1.31,2.09,2.41,1.6,1.95-.87,3.23.24,4.68,1,1.06.68,2.36,1,3.08,2.16,1.65,4.17,1.65,4.17,5.72,4a3.84,3.84,0,0,1,.65.11c.49.68.64,1.58,1.37,2.11.81,1.68,1.53,3.52,3.44,4.2a10.8,10.8,0,0,1,3.3,2.19,2.72,2.72,0,0,0,.94,1.75A1.38,1.38,0,0,0,251.87,127.53Z"/><path class="cls-1" d="M540.15,122.5c-.83-1.74.53-2.73,1.34-3.9,1.27-1,2.36-2.32,3.87-3,1.18-.54.79-1.17.3-1.9,0-1.26,1.06-1.71,1.91-2.3.78-.28,1.53-.63,2.32-.84,2.77-.74,4.86-1.59,4.53-5.39-.2-2.38,1.24-4.89,1.9-7.35.17-.61.72-1.4-.1-1.82-2.11-1.1-1.92-3-1.93-4.9a9.29,9.29,0,0,0-.84-3.93,15.65,15.65,0,0,1-1.39-7.45,35.54,35.54,0,0,0-.34-6.51c-.38-2.57-1-5.26,1.1-7.5L552.64,62a11.94,11.94,0,0,0-.09-3.82c1.43-2.37,2.35-2.28,4,.4,1.39,3.54,3,7,3.75,10.78.45,2.2,1.05,4.61,2.76,6.26a4.73,4.73,0,0,1,1.73,4.16C564.1,85.34,566,90.19,568.48,95c.43.83.73.33,1.19.23,8.76-2,15.28-8.22,23-12.26,1,0,2.21-1,3.12.25a2.81,2.81,0,0,1-.07,3.26c-2.37,1.22-3.75,3.65-6,5-3.82,2.34-7.11,5.5-11.28,7.31a4.49,4.49,0,0,0-2.16,2.2,11.33,11.33,0,0,1-7.07,5.86,9.27,9.27,0,0,0-5.76,4.7,7.92,7.92,0,0,1-2.74,2.92c-1.94,1.28-3.85,2.61-5.78,3.9a5.86,5.86,0,0,0-2.64,3,14,14,0,0,1-3.36,5.25,19.27,19.27,0,0,0-3.58,5.42,4.94,4.94,0,0,1-1.61,2.13A53,53,0,0,0,537.5,140a8.08,8.08,0,0,1-4.55,2.74c-4.56.59-8.06,3-11.27,6a21.36,21.36,0,0,1-2.14,1.61c-1.4.42-2.68.22-3.29-1.21s.25-2.52,1-3.53a18.43,18.43,0,0,1,2.24-2.17c2.68-2.28,5.36-4.56,8.66-6a3.89,3.89,0,0,0,1.54-1.28,59.2,59.2,0,0,1,10.09-10.35C541.1,124.71,541.3,123.75,540.15,122.5Zm-14.68,21.25a1.59,1.59,0,0,0,1.39-.88.86.86,0,0,0,.39-.09c2.6-.77,5.49-.7,7.7-2.63h0c.95,0,1.39-.82,2-1.38a63.09,63.09,0,0,1,5-4.82,9.77,9.77,0,0,0,3.39-5.1h0c1.6-1.88,3.42-3.59,4.54-5.84h0c1.5-2.63,2.94-5.32,5.84-6.74a2.32,2.32,0,0,0,1.82-1.36,12.78,12.78,0,0,0,5.37-4.91,7.45,7.45,0,0,1,3.71-3.47c4.13-1.5,7.66-3.65,9.62-7.8.11-.24.45-.37.68-.56a1.49,1.49,0,0,0,1.37-.8c3.88-1.52,6.76-4.61,10.32-6.65a22.86,22.86,0,0,0,4.66-4.19c.54-.54,1.18-1.17.6-1.92s-1.09,0-1.61.23a16.47,16.47,0,0,0-5,2.54,88,88,0,0,1-9.54,6.26c-.85,0-1.71,0-2.16.9-2.36,1-5,1.45-7.17,2.9-.81.53-1.25.24-1.37-.63-.08-.59-.07-1.18-.1-1.78,0-2-1.59-3.26-2.26-5a.88.88,0,0,0-.39-.92,23.89,23.89,0,0,1-.8-7.14.94.94,0,0,0,0-1.47c0-.73,0-1.46-.08-2.19a1.25,1.25,0,0,0-.85-1.41,10.45,10.45,0,0,1-2.31-3.8c-1.66-4-2.09-8.43-4.08-12.33-.33-.64-.46-1.62-1.44-1.41-1.18.24-.47,1.16-.47,1.83,0,2.46.84,5.1-1.32,7.17-.63.58-.47,1.2-.07,1.82.18,2.81.9,5.6.62,8.43a19.93,19.93,0,0,0,2.24,10.51c0,.44.07.89.11,1.33,0,1.74-.66,3.71,1.69,4.57l.57,1.29c-.22,1-.44,2.11-.67,3.16a1.12,1.12,0,0,0-.63,1.41c-.23,1.91-1.31,3.69-1.08,5.66.29,2.43-.75,3.72-3,4.38-2.68.78-5.57,1.48-5.53,5.21h0a5,5,0,0,0-2.67,1.85,4.4,4.4,0,0,0-1.82,1.78c-1.35.81-1,2-.65,3.15a2.34,2.34,0,0,1-.35,2.69c-2.81,2.72-5.64,5.41-8.47,8.11-1.69,1.25-1.8,3.9-4.07,4.64l-.35.41-.52.4a1.74,1.74,0,0,0-1.81.9.93.93,0,0,0-.88.5,2.14,2.14,0,0,0-1.82,1.32h0a2.22,2.22,0,0,0-1.76,1.39,9.21,9.21,0,0,0-2.74,2.68c-1.37,1.25-1.43,1.55-.48,2.33a2,2,0,0,0,2.31-.92,3.73,3.73,0,0,0,2.23-1.85l.47-.41a2.51,2.51,0,0,0,1.79-1.39Z"/><path class="cls-1" d="M294.17,121c-2-2.43-1.44-5.07-.48-7.65C295,110,295.18,106.42,296,103c.08-.36.2-.91,0-1.1-1.88-1.92-.4-3.65.13-5.53a45.38,45.38,0,0,0,.9-5.54c-.74,0-.84.6-1.18.92-.62.59-1.23,1.11-2.18.75a2.4,2.4,0,0,1-1.71-2.14,6.79,6.79,0,0,1,.4-2.64c1.24-4.25,2.43-8.51,3.64-12.76A41.31,41.31,0,0,0,297,62.66c-.07-2.89.49-3.48,3.34-4.17a9.28,9.28,0,0,0,2-1l1.66.19c2.12,2.12,1.66,4.67,1,7.15a11.72,11.72,0,0,0-.26,4.38c.35,3.26,1.75,6.59-.15,9.85a1.07,1.07,0,0,0,.18,1.43c.27.17.91,0,1.25-.26,3.12-2.09,6.48-3.78,9.61-5.82,4-2.59,7-6.61,11.91-7.75,1.52-.06,2.8.17,2.58,2.17l-.75,1h0A17.74,17.74,0,0,0,325,74.18a10.41,10.41,0,0,1-4.91,4.42,5,5,0,0,0-3,3.64c-.76,3.12-2.84,5-5.75,6.12-4.82,1.89-4.89,2-2,6.33,1.4,2.1,2.45,5.21,4.66,5.86,3.7,1.08,5,3.31,5.65,6.59a8.74,8.74,0,0,0,1.24,2.38,7,7,0,0,1,1,2.94,46.73,46.73,0,0,0,2.61,11.36c1.81,5.5,1.58,6.31-2.74,10-1.4.83-1.86-.46-2.51-1.17a6,6,0,0,1-.72-1.53c-.24-2.36-.47-4.83-1.85-6.77-2.46-3.47-2.81-8.13-6.28-11a.63.63,0,0,1-.21-.4c-.35-4.14-2.53-7.39-5.28-10.54-.34,1.43-2.46.68-2.74,2.43a70.74,70.74,0,0,1-4,14.47l-.34.46-.39.5C296.65,122,295.57,122.28,294.17,121Zm27.54-49.4h0a3.7,3.7,0,0,0-2.27,1.81l-.45.39a5.36,5.36,0,0,0-2.7,2.29h0c-2.68,1.22-5.48,2.23-7.69,4.31a4.84,4.84,0,0,1-1.56.86c-1,.4-2.09,1.34-3.09.35s-.81-2.18-.36-3.37a9.4,9.4,0,0,0,.32-5.7,45.87,45.87,0,0,1-.64-5.77,2.17,2.17,0,0,0,.4-1.46,20.54,20.54,0,0,0,.55-3.76c0-1.88-.86-2.4-2.54-2.07-3,.61-3.34,1.06-3.29,5v1.81c-.16,1.86-.05,3.72-.34,5.59-.65,4.23-2.58,8.13-3,12.39l-.62,1.4c-.34,1.28-.71,2.55-1,3.84a1.16,1.16,0,0,0,.55,1.34c.59.31.94-.14,1.35-.45.95-.73,1.45-2.17,3-1.92l.07,2.19a21.13,21.13,0,0,1-1.49,7.66,1.88,1.88,0,0,0-.19,1.73c1,1.79.65,3.62.26,5.47-.64.49-.46,1.17-.4,1.81l-.58,3.54a2.52,2.52,0,0,0-.72,1.85,12.67,12.67,0,0,0-1,5c0,.86.16,1.67,1.22,1.82s1.36-.47,1.65-1.2c.44-1.1.85-2.22,1.28-3.32.47-.33.41-.83.44-1.31a23.84,23.84,0,0,0,1.31-6.36h0l.38-.42a2.55,2.55,0,0,0,.45-1.91c-.18-2.8,2.37-2.93,4-3.74s1.43,1.21,2.14,1.88a11.31,11.31,0,0,0,1.05.77,2,2,0,0,0,1,1.68c.15.49.33.93,1,.85l0,0c.7,3.91,1.72,7.66,4.88,10.4,1.27,4.82,4.43,8.9,5.44,13.83.25,1.22.86,1.24,1.94.56,2.18-1.38,2.05-3.31,1.5-5.31-.6-2.16-1.4-4.27-2.1-6.39a.78.78,0,0,0-.33-.93l-.13-.88c.09-.51.16-1-.36-1.36l-.09-.89c0-.78.31-1.6-.36-2.27l-.07-.89c0-1.5-1.26-2.52-1.56-3.86-.79-3.44-2.41-6-6.05-7a3,3,0,0,0-1.27-1.41c-1.47-2.16-3.05-4.25-4.37-6.49-1.72-2.91-1.12-4.36,2-5.66.55-.23,1.08-.52,1.65-.7a7.2,7.2,0,0,0,4.95-5A7.05,7.05,0,0,1,320,77.21a2.29,2.29,0,0,0,1.39-1.07,3,3,0,0,0,1.32-1.33,1.5,1.5,0,0,0,.9-1.38h0a16.51,16.51,0,0,0,1.93-1.8c.72-.92,2.79-1.77,1.85-2.79-1.11-1.22-2.6.3-3.75,1.17-.05,0-.07.13-.1.19h0A2.4,2.4,0,0,0,321.71,71.55Z"/><path class="cls-1" d="M357.92,112.64c-1.94,1.54-2.41,1.38-4.09-1.4-.94-2.67-1.89-5.34-2.8-8-.3-.87-.61-2-1.56-2s-1,1.26-1.37,2.06c-1.17,2.74-1.35,5.79-2.84,8.41-.56.82-.82,1.9-2,2.18-.08-.11-.17-.11-.27,0a3,3,0,0,1-2-2.16,4.77,4.77,0,0,0-.25-2.65c-1.1-2.23-.57-4.19.43-6.37,1.32-2.84,2.65-5.7,1.74-9.17-.8-3.07,1.55-7,4.35-8.37.59-.29.67-.75.83-1.23.44-1.26.87-2.53,1.31-3.8a4.7,4.7,0,0,1,.56-.92c.71-.71,1.39-1.69,2.58-1.31s1.42,1.55,1.63,2.61.24,1.89.35,2.83a90,90,0,0,0,2.88,14.7c1.28-1.09,1.27-2.33,1.18-3.63a29.13,29.13,0,0,1,.56-8.88c1.88-1.53,3.21-.69,4.34,1,.42,2.7,1.3,5,4.54,5.71l2.55-6.61c.68-1.17,1.38-2.36,3-2.24,1.32.11,1.71,1.2,2.14,2.21.12,4.51-1.53,8.76-2,13.46A25.41,25.41,0,0,1,379,94.4a2.14,2.14,0,0,0,.93-1.2c.67-4.14,2.9-7.85,3.21-12.07l.25-1,.84-2.48a2.92,2.92,0,0,1,.36-.57c1-1,1.53-3,3.36-2.29s1.9,2.34,1.84,4c-.68,2-2.16,4.3-1.21,6.24,1.21,2.46.53,4.45-.08,6.68a23.45,23.45,0,0,0-.24,13.1,65.65,65.65,0,0,1,2,6.91l0,.9-.42.91v0l-.26.38-1.12.91c-3.4.86-4.26-1.76-5.37-4.13-2.23,2.17-4.55,2.25-7.07.83-1.17-.65-2.55-.95-3.3-2.22-.17-.29-.42-.48-.71-.26-2.8,2.19-3.38-.34-4.34-2-1.11-2-2-4.07-3.71-5.72.59,1.49-.14,2.87-.06,4.25a3.93,3.93,0,0,1-2.16,3.89c-1.43.78-2-.92-3-1.39l-.27-.19.13.33C358.38,109.69,358.82,111.27,357.92,112.64Zm-5-29.79c-.3-1,.47-2.61-.9-2.85s-1.62,1.36-2.07,2.41a1.53,1.53,0,0,0-.66,1.79,2.88,2.88,0,0,1-1.44,2.15,6,6,0,0,0-3.51,6.81c.59,3.5-.59,6.42-1.57,9.5a2.17,2.17,0,0,0-.89,2.13c-1.14.49-.81,1.51-.67,2.3s.74,1.56.94,2.45c.16.72-.1,1.9.87,2.08,1.15.23,1.2-1.06,1.68-1.74,1.8-.92.22-2.36.52-3.51a9.53,9.53,0,0,0,1.67-3.61c.4-1.3.9-2.9,2.32-2.94s2.51,1.4,3,2.89a6.22,6.22,0,0,1,.17.88c-.08.61-.15,1.22.67,1.4a15.53,15.53,0,0,0,1.64,4.65c.31.7.51,1.76,1.62,1.55s.92-1.23.89-2c0-1.71-.22-3.43-.26-5.15,0-.57.06-1.31.76-1.48s1,.5,1.42.93c.61.7.38,1.58.44,2.38s.48,1.67,1.41,1.77c1.14.13,1.2-.81,1.35-1.66a10.4,10.4,0,0,0,0-5.11c-.3-.94-.15-1.84,1.2-1.84l1.34,1a47.24,47.24,0,0,1,3.92,6.51c.83,1.5,1.57,2.61,2.87.37.53-.9,1.11-.67,1.38.21.85,2.74,3.17,3.31,5.54,3.82.58.3,1.15.63,1.71,0,1.2-.21,1.79-1.28,2.69-1.93a2,2,0,0,0,.43-.08c1.14.71,1,2.11,1.65,3.1s1.19,1.87,2.44,1.45,1.26-1.52,1.12-2.76c-.31-2.64-1.86-4.88-2.17-7.49,0-.78.36-1.6-.29-2.3a36.43,36.43,0,0,1,.53-8.21,2.73,2.73,0,0,0,.77-2.22,5.06,5.06,0,0,0-.05-4.55,4.57,4.57,0,0,1-.13-3.5c.36-1.22.7-2.45,1-3.69a1.52,1.52,0,0,0-.85-1.89c-.95-.41-1.36.4-1.71,1a8.69,8.69,0,0,0-.83,2.08,94.22,94.22,0,0,1-3,10.58c-.81.44-.8,1-.38,1.76a5.6,5.6,0,0,1-2.46,3.61,33.24,33.24,0,0,0-4.33,3.87c-.6.56-1,1.86-2,1.31s-.62-1.77-.46-2.7c.51-2.93,1.12-5.85,1.69-8.78a2.29,2.29,0,0,0,.69-1.58c.29-1.37-.14-2.82-1.46-3.07s-1.89,1.06-1.88,2.38c-.75,1.87-1.43,3.77-2.26,5.61-1,2.16-1.2,2.16-2.58.36-.26-.34-.67-.77-1-.79-1.76-.12-2.1-1.43-2.49-2.74-.24-.78-.44-1.57-.73-2.34a1.24,1.24,0,0,0-1.38-.9c-.83.08-.81.73-.85,1.33a9.86,9.86,0,0,1-.41,3.54c-.12.65-.28,1.31.28,1.86a10.34,10.34,0,0,1,0,2.22c-.35,1.81-.74,3.67-3,4.08l-1.83-5c-.63-3.3-1.25-6.61-1.88-9.92C353.29,84,353.5,83.38,353,82.85Z"/><path class="cls-1" d="M523.11,123c.84-3.44,1.6-6.87.28-10.37a2,2,0,0,1,0-1.33c.76-1.83.35-3.52-.09-5.39-.53-2.26,1-4.42,1.35-6.69.15-.92.16-1.2-.72-1.61-1.69-.78-3.25-1.77-5.24-1.81-1.4,0-2.06-1.19-2.08-2.51a1.9,1.9,0,0,1,2-2c2.12-.09,3.53-1.89,5.56-2.13.48-.06.45-.51.49-.88a75.75,75.75,0,0,1,7.16-24.81c1-.62,1.93-1.54,3.21-1.46,2.5.14,3.39,2.42,2,5-.88,2.21-4.13,4.07-1,6.86a6.38,6.38,0,0,1-.13,4c-1.85,3.7-1.63,8-3.58,11.71-.48.9.39,1,1,.84,3.1-.86,5.5,1.83,8.46,1.66a1.25,1.25,0,0,1,.76.45,4,4,0,0,0,3.24,1.22,15.49,15.49,0,0,1,1.74,1c1.61,1.17,1.7,2.49.19,3.82-.36.32-.66.53-.6,1l-.29.7c-1.64,2-3.61,1.19-5.54.64a2.71,2.71,0,0,0-2.34-1.1A7.76,7.76,0,0,1,532.22,98c.07,1.42.16,2.45.17,3.47a5.89,5.89,0,0,1-.57,3,3.26,3.26,0,0,0,0,3.19l-.18,3.12a9,9,0,0,0-1.79,5c-.4,3.94-.61,7.91-1.67,11.75-.29.84-.61,1.67-.87,2.52s-.74,1.75-1.73,1.8-1.63-.85-2-1.77c-.78-1.78-.43-3.66-.48-5.5C523.08,124,523.11,123.52,523.11,123Zm1.8-1.85c-1,.78-.8,1.8-.55,2.82a10.33,10.33,0,0,0,.18,4.46c.12.53.2,1.1.85,1.17s.86-.5,1-1c.46-1.81,1.28-3.63,1.27-5.45,0-6.08,2.73-11.69,2.63-17.82,0-2.11.62-4.4.63-6.64l.87-1.82c.88-.09,1.48.51,2.21.82,1.3.56,2.59,1.47,4.1.56l1.32,0a24.55,24.55,0,0,0,3.34,1.55c1.18.35,2.52.55,3-1.19l.54-.78c1.48-1,1-1.85-.27-2.42a16.14,16.14,0,0,0-3-.8.88.88,0,0,0-.36-.1,18,18,0,0,0-9.95-2.78,2.18,2.18,0,0,1-1.78-2.86c1.74-2.81,1.72-6.16,2.78-9.16.92-2.63,1.8-5.1-.43-7.5-.2-.21-.07-.72-.1-1.09a2.35,2.35,0,0,0,.76-1.38c.62-1.19,1.24-2.37,1.87-3.55.52-1,.58-1.9-.5-2.5s-1.77.19-2.22.92c-.75,1.19-1.29,2.5-1.92,3.76a1.77,1.77,0,0,0-.82,1.77,24.87,24.87,0,0,0-1,2.47,82.51,82.51,0,0,0-2.63,11.5,1.19,1.19,0,0,0-.49,1.75c.55,4.61-2.75,5.55-6.12,6.42l-.44.08a1.07,1.07,0,0,0-1,1c0,.72.46,1,1.13,1.14,1.82.26,3.33,1.33,5,2,1.32.49,1.77,1,1.21,2.45-1.58,4-1.17,8.21-.78,12.37v.79a1.24,1.24,0,0,0-.23,1.26A15.05,15.05,0,0,1,524.91,121.16Z"/><path class="cls-1" d="M517.43,73.38c-1.1,2.05-.12,3.64,1.05,5.27,3.18,4.39,1.68,8.81-3.37,10.69a51.33,51.33,0,0,0-6.06,3.24,22.27,22.27,0,0,1,3.49,3.6c.86,1.36,1.61,2.67,1.33,4.38a4.24,4.24,0,0,0,1.1,3.08,10.37,10.37,0,0,1,1.93,7.23,13.31,13.31,0,0,0,1.13,7.21c.7,1.58,1.31,3.22.18,4.9-1.45,1.23-2.89,1-4.32,0a14,14,0,0,1-1.93-4.76c-1.14-4.48-1.25-9.34-4.84-13-1.08-1.09-1.82-2.51-3.19-3.44a45.62,45.62,0,0,0-2.4,10.81c-2,3-3.51,3-5,0,0-1.21,0-2.41,0-3.62l-.06-2.23a13.17,13.17,0,0,1,.39-4.24,1.8,1.8,0,0,0,.13-1.1,8.65,8.65,0,0,1,.41-8.17c.3-.51-.14-1-.61-1.31-2.55-1.4-2.17-3.69-1.82-5.95a76.22,76.22,0,0,0,1.17-13.41c.24-1.08-.31-2.28.32-3.27s.92-2.19,2.36-2.28,1.6,1.09,2.11,2c.15,1,.29,2,.44,3.07.09.66.18,1.46.89,1.64s.88-.65,1.28-1c1.06-1.07,1.27-2.9,3-3.32l1.35-.06c1.41.37,2.66,1.41,4.24,1.11,2.38-.43,4,.65,5.24,2.54Zm-5.95,16.26.47-.48,0,0c.36-.05.74-.05.93-.46l0,0a1,1,0,0,0,.92-.47l0,0c.38,0,.75-.06.93-.46h0c3.2-.61,4.77-3.3,3.8-6.49a14.7,14.7,0,0,0-2.41-4l-.49-1.26c-.23-1.53,1-3.86-1.6-4.17-2-.25-4.06-.59-6.09-.87a2.48,2.48,0,0,0-2.28,1.17c-1.22,1.41-2.41,2.84-3.61,4.26-1.71-.37-1.61-1.84-1.9-3.08a5.64,5.64,0,0,0-.41-3.29.94.94,0,0,0-1-.74.7.7,0,0,0-.68.75c0,2.91-1.2,5.73-.78,8.68,0,1.05-.07,2.1-.11,3.15-.52.36-.43.86-.29,1.37l-.12,1.79a.67.67,0,0,0-.34.91,7.94,7.94,0,0,0,0,3.11,1.25,1.25,0,0,0,.6,1.35c1.86,1.33,2,2.87,1,4.87a5.48,5.48,0,0,0,.54,5.52c0,.46,0,.91,0,1.36a7.79,7.79,0,0,0-.36,6.34,9.85,9.85,0,0,0,.06,3.55.74.74,0,0,0,.63.76c.45.06.58-.31.64-.69a.77.77,0,0,0,.78-1q1.13-5,2.23-9.91c.24-1.11.82-1.72,1.85-.86,3.7,3.12,6.94,6.73,7.91,11.57.5,2.47,1.07,4.94,1.59,7.42.28,1.3.94,2.82,2.38,2.41,1.6-.47,1-2.22.56-3.3a19,19,0,0,1-1.2-8.13,9.78,9.78,0,0,0-1.72-6.16,5.92,5.92,0,0,1-1.32-3.75c.16-2.54-1.26-4.23-2.91-5.79-2.19-2.07-2.2-2.38.21-4.13l1.31-.57.45-.43Z"/><path class="cls-1" d="M271.2,117a4.09,4.09,0,0,1-.72-2.7c.23-1-.83-1.73-1.06-2.53-.76-2.56-1.75-4.29-4.84-4.49-1.26-.09-1-2-.61-3.13a1.73,1.73,0,0,0-.57-2.37c-1.67-1.37-.58-3.27.37-4.44,2.69-3.3,3.05-7.39,4.07-11.21.66-2.45,1.7-4.11,4.18-4.7A3.3,3.3,0,0,0,274.63,79c1-2.92,5.89-4.56,8.54-3,1.47.88,2.92.24,4.37.31s3-.2,3.57,1.57-.74,2.94-2.1,3.81a8.67,8.67,0,0,1-5,1c-1.19,0-2.11,0-2.3,1.65S280,86.61,279,87.56c-.88.81-1.84,1.55-2.74,2.34-1.43,1.24-3,2.33-.64,4.3,1.13.94.44,2.39-.16,3.55s-1.3,2.35-1.92,3.55a1,1,0,0,0,.1,1.25.72.72,0,0,0,1-.22c1.86-2.26,4.66-.72,6.87-1.68.83-.36,1.8.6,2.56,1.21a2.87,2.87,0,0,0,3.88.24c.87-.64,1.85-1.14,2.87-.29a2.92,2.92,0,0,1,.72,3.31,5.06,5.06,0,0,1-5.34,3.61,4.48,4.48,0,0,0-3.52,1c-.55.46-1.38,1-2,.93-2.93-.48-3.64,1.62-4.55,3.6-.37.81-.84,1.58-1.27,2.37C273.71,117.62,272.66,119.65,271.2,117Zm10.89-40-2.74.05a1.56,1.56,0,0,0-1.78.79,4.74,4.74,0,0,0-2,2.35,3.44,3.44,0,0,1-2.57,2.3c-2.67.48-3.65,2.3-3.94,4.75a18.56,18.56,0,0,1-.45,2,2.12,2.12,0,0,0-.86,1.84c-.38,2.53-.92,5-2.75,6.94a2.08,2.08,0,0,0,0,3c1,.81.92,1.46.6,2.48-.54,1.71-.16,2.92,1.95,3.08a2.39,2.39,0,0,1,2.1,1.12c0,.64-.32,1.31.3,1.84.06,1.81,2,2.76,2.08,4.59,0,.63-.05,1.62,1,1.7s1.37-.77,1.71-1.5a18.61,18.61,0,0,1,2.93-4.73l1.76-.13c1.41.1,2.45-.73,3.56-1.39a2.78,2.78,0,0,0,1.81-.73c1.7-.2,3.65.42,4.89-1.4a1.89,1.89,0,0,0,.27-2.27c-.57-.81-1.3-.44-2-.09a3.52,3.52,0,0,1-3.6,0,1.45,1.45,0,0,0-1.35-.87,10.8,10.8,0,0,0-7.22.4c-1,.45-1.91,1.47-3,.34s-.63-2.32-.1-3.52c.59-1.35,1.82-2.4,1.85-4,1-1.56-.6-1.66-1.32-2.25A3,3,0,0,1,273.5,91a5.55,5.55,0,0,0,1.81-1.89c1.7-1.65,4.12-2.79,4.88-5.11a3.27,3.27,0,0,1,3.6-2.56,10,10,0,0,0,4.79-1c.66-.37,1.28-.9,1-1.8s-1-.83-1.65-.84l-4.48-.09A1.73,1.73,0,0,0,282.09,77Z"/><path class="cls-1" d="M483.77,74.89l1.23.53a11.79,11.79,0,0,1,6.27,15.51,4.58,4.58,0,0,0,.65,5.29c2.49,3.26,2.36,5.49-.13,8.76-1.13,1.49-2.38,2.88-3.58,4.32-2.6,3.11-6.25,3.53-9.92,3.85a2.33,2.33,0,0,1-2-.94,7.78,7.78,0,0,0-6.09-3.17c-1.23,0-1.8-.89-2.1-2a11.78,11.78,0,0,1-.13-4.91,7.42,7.42,0,0,0-1.19-5.78,4.31,4.31,0,0,1,.12-5.43,9.59,9.59,0,0,0,1.78-4.08,5.38,5.38,0,0,1,2.08-3.63c2.83-2,4.59-4.91,7-7.22A7.79,7.79,0,0,1,483.77,74.89Zm5.52,18.28a8.62,8.62,0,0,1,.85-2.75c1.73-4.43-.12-10.52-3.8-12.62a6.1,6.1,0,0,0-5.81-1.52c-2.31.57-9.89,8.51-10.49,10.91a12.38,12.38,0,0,1-1.74,4.1c-.72,1-1.43,2.26-.67,3.55a13,13,0,0,1,1.56,9.47c-.27,1.36.17,2.9,1.73,3.25a25.07,25.07,0,0,1,4.5,2l.84.51c.69.94,1.55,1.8,2.76,1.67,2.5-.28,5.08-.4,7.1-2.26a31.4,31.4,0,0,0,5-5.72,5.3,5.3,0,0,0-.06-6.47,7.87,7.87,0,0,1-1.74-3.1Z"/><path class="cls-1" d="M256.27,56.08a3.82,3.82,0,0,1,.89,2.7c-.12.66.15.92.76,1.11,1.6.51,1.89,1.72,1.64,3.22-.3,1.77-.53,3.55-.84,5.32a3.45,3.45,0,0,1-5.4,2.55c-3.84-2.16-4.4-4-2.52-8.08.3-.67.74-1.28.31-2.1-1.2-2.3,0-3.79,1.79-5A4.3,4.3,0,0,1,256.27,56.08Zm-5.22,11c1.45,1.61,2.57,3.85,5.39,2.66,1.65-.59,1.24-2,1.23-3.2.16-1,.35-2.06.48-3.1s.17-1.9-.91-2.28A2,2,0,0,1,255.85,59a1.67,1.67,0,0,0-2-1.81c-1.3.1-2.17,1.26-1.74,2.12,1.17,2.31-.38,4-.78,6C250.74,65.82,250.92,66.46,251.05,67.1Z"/><path class="cls-1" d="M343,113.9c.1-.1.19-.1.27,0l-.14,0Z"/><path class="cls-1" d="M297.44,120.29l.39-.5Z"/><path class="cls-1" d="M389.56,114l.26-.38Z"/><path class="cls-1" d="M253.16,111.49c.51-2.06-.84-4-1-6.11-.21-2.63-.82-5.31-.24-8a3.32,3.32,0,0,0-1-3.26c-1.52-1.55-.79-3.32-.09-5,.62-1.51,1.9-3.07-.23-4.5a1.45,1.45,0,0,1-.29-1.25,23.39,23.39,0,0,0,.78-6.67c-.05-.92.82-1.41,1.73-1.44,1.82-.06,3.57-2.06,5.47-.23.1.1.27.25.25.36-.4,2.9,1.77,5.6.67,8.56a12.66,12.66,0,0,0-.77,4,3.22,3.22,0,0,0,1.29,2.91c2,1.59,2.23,2.85.82,5.06-1.09,1.72-1.5,3.25-.45,5.18.88,1.64.29,3.41-.46,5a14.17,14.17,0,0,0-1.24,6.79,14.5,14.5,0,0,1-.29,3.35,2.25,2.25,0,0,1-1.89,2,2.34,2.34,0,0,1-2.36-1.41C252.91,115.17,253.25,113.4,253.16,111.49Zm5.92-19.61h0a4.08,4.08,0,0,1-1.88-3.53c.09-2.16,1.18-4.18,1-6.39-.28-1.22-.64-2.42-.82-3.65-.41-2.74-.89-3-3.39-1.95-1.63.67-1.67,1.88-1.6,3.26l-.1,1.35c-.59,1-.81,2.27-.19,3,1.77,2,.9,3.71,0,5.57-.77,1.68-1,3.28.51,4.72.73.69.55,1.65.62,2.54.16,2-.56,4,.33,6l.09,2.21c.56,2.69,1.21,5.36.91,8.14a6.32,6.32,0,0,0,.08,1.79c.11.58.31,1.25,1,1.3s1.16-.52,1.1-1.32l.1-4.47a26.68,26.68,0,0,1,.81-3c1-2.52,2-5,.57-7.72a3.16,3.16,0,0,1,.32-2.82c.43-.86.76-1.78,1.13-2.67,1.54-.86-.17-1.3-.26-1.94Z"/><path class="cls-1" d="M265.8,142.61c-.39-.28-.42-.56,0-.83Z"/><path class="cls-1" d="M454.21,78.37A3.07,3.07,0,0,1,452.9,77c-.21-1.14.66-2.71-1.27-3.17-.77-1.69-1.53-1.39-2.29,0-.79.06-.81.62-1,1.24-.7,2.59-.34,5.21-.41,7.82-.05,1.9-.29,3.69-1.69,5.17a12.21,12.21,0,0,0-3.16,9.64c.13,2.16-.81,4.14-2.51,6.17.32-3.15.57-5.73-.68-8.2a2.87,2.87,0,0,1-.44-1.7c.45-3.39.7-6.8.84-10.23a36.24,36.24,0,0,1,1.55-8.56c.37-1.27,1.75-2.12,1.52-3.64h0c.95,0,1.42-.4,1.3-1.39v0c1.14-.3,1.34-1.38,1.64-2.23a58.07,58.07,0,0,0,2.1-7.92,21,21,0,0,1,2.21-6.46c3.87,2.11,4.11,2.66,3,6.92-.11.43-.24.86-.33,1.29a3.43,3.43,0,0,0,3,4.34,14.88,14.88,0,0,0,2,.09c.14,2.29-.48,4.68.58,6.84a15.63,15.63,0,0,1,1.23,5.8,4.33,4.33,0,0,0,.9,2.68l0,2.24c-1.06,1,0,1.74.36,2.53.64,1.59-.11,5.48-1.35,6.55-1.88-1.7-4.73-1.88-6.3-4.06.48-1.61,1-3.21,1.43-4.84.21-.79.89-1.63,0-2.43V80.15C455.86,79,455.23,78.59,454.21,78.37Z"/><path class="cls-1" d="M433.61,74.24l.39.45c0,2.13,0,4.25,0,6.38,0,.69-.26,1.54.77,1.81.05,1,.1,2.09.14,3.13a1.16,1.16,0,0,0-.47,1.16c.14,2.27-1.08,3.53-3.08,4.23a1.87,1.87,0,0,1-.49-1.34c.79-1.16,0-1.93-.67-2.73l.06-.67c.05-.76.52-1.66-.67-2-.05-.45-.09-.89-.13-1.33.49-2.3-.85-3.35-2.73-4-1-2.08-3.25-3.61-3-6.31,1.22-1.38,1.3-2.75-.05-4.1-.41-2.11-1.29-1.18-2.16-.32-1.47,0-1.69,1.19-2,2.27-.23.87-.41,1.75-.7,2.59s-.43,2.18-1.6,1.62-2.93-.9-2.47-2.92c.91-3.93,1.78-7.86,2.75-11.77.4-1.6.78-3.49,3.21-2,.27.17.52-.16.67-.44.65.62,1.31.89,2,0,.79.19.92-.4,1.26-.92.65-1,4.06-1.13,4.13-.28.13,1.7,1.42,2.56,2.15,3.8s-.26,2.72.79,3.83c0,.75,0,1.49,0,2.24-.36.21-.59.56-.41.92a12.25,12.25,0,0,1,1.32,6C432.66,74.08,433.12,74.23,433.61,74.24Z"/><path class="cls-1" d="M431.34,91.4c2-.7,3.22-2,3.08-4.23a1.16,1.16,0,0,1,.47-1.16,14.72,14.72,0,0,1,.82,4.09c.17,1.14.36,2.57,1.59,2.63s1.46-1.46,1.57-2.54c.35-3.33.45-6.7,1-10,.5-3.11.85-6.4,3.53-8.66.23,1.52-1.15,2.37-1.52,3.64a36.24,36.24,0,0,0-1.55,8.56c-.14,3.43-.39,6.84-.84,10.23a2.87,2.87,0,0,0,.44,1.7c1.25,2.47,1,5,.68,8.2,1.7-2,2.64-4,2.51-6.17a12.21,12.21,0,0,1,3.16-9.64c1.4-1.48,1.64-3.27,1.69-5.17.07-2.61-.29-5.23.41-7.82.17-.62.19-1.18,1-1.24.49,1.79-.75,3.38-.55,5.17a38.09,38.09,0,0,1,.36,4.24,7.91,7.91,0,0,1-2,5.57c-2.55,2.64-3.12,5.87-3.18,9.3a8.8,8.8,0,0,1-.86,4.13,16.6,16.6,0,0,0-1.91,9.1c.09,1.09-.07,2.27-1.36,2.49s-1.77-1-2.08-2a21.45,21.45,0,0,1-.62-3.29c-.24-1.67-.81-3.07-2.63-3.51a1.74,1.74,0,0,1-1.43-2C433,99.13,432,95.3,431.34,91.4Z"/><path class="cls-1" d="M407.39,103.16a2.45,2.45,0,0,1,.84-1.83c1,0,1-.67.92-1.36h0c2.34-.64,2.78-2.82,3.37-4.62s1-3.22,3-3.53c.66-.1,1.16-1.28,1.93-.52.55.55.22,1.42.13,2.16-.47,3.84-1.58,7.62-1.21,11.55a3.88,3.88,0,0,1-1.35,3.37c-1.43,1.41-2.88,2.9-2.7,5.19a4.65,4.65,0,0,1-2.72.88C408.94,110.68,407.51,107.05,407.39,103.16Z"/><path class="cls-1" d="M457.94,114.85a4.82,4.82,0,0,0-1.15-2.63,14.11,14.11,0,0,1-3-8.07c.39.18.58.9,1.25.27a2.74,2.74,0,0,0,.61-3.45c-.51-1.15-.73-2.35.3-3.31a6.19,6.19,0,0,0,2-4.46c1.65,1.92,1.8,4.42,4,5.46-.31.91-.59,1.84-1,2.74a3.22,3.22,0,0,0-.44,2.16c1.41,4,1.42,8.19,2.3,12.25A20.29,20.29,0,0,1,457.94,114.85Z"/><path class="cls-1" d="M450.65,51.34a14,14,0,0,0,4.07-9.91,3.66,3.66,0,0,1,1-2.21,53.92,53.92,0,0,0,4-5.71c.42-.65,1-1.47,2-1s.76,1.45.49,2.2a53.22,53.22,0,0,1-2.09,5.2c-3,6.31-3.93,12.78-1.88,19.58a46.3,46.3,0,0,1,1,5.28,19.68,19.68,0,0,0-2.41-.34c-2.25-.07-2.37-1.32-1.78-3,.15-.42.29-.85.41-1.28,1-3.69.25-5.38-3.13-7.34A3.86,3.86,0,0,1,450.65,51.34Zm10.52-17.83c-1.94,2.85-4.7,5.15-5.56,8.66-.46,1.88-.56,3.86-1.13,5.69-.31,1-1,2,.31,2.36,1.14.32,1.57-.77,1.73-1.85a32.2,32.2,0,0,1,2.39-7.91C459.85,38.25,461.25,36.15,461.17,33.51Z"/><path class="cls-1" d="M421.41,57.9c-.15.28-.4.61-.67.44-2.43-1.5-2.81.39-3.21,2-1,3.91-1.84,7.84-2.75,11.77-.46,2,1.35,2.39,2.47,2.92s1.33-.82,1.6-1.62.47-1.72.7-2.59c.29-1.08.51-2.23,2-2.27-1.2,3.33-2.72,6.58-2.35,10.27a5.53,5.53,0,0,0-3.63,3.35c-.32.78-.23,2-1.64,2.08a2.73,2.73,0,0,1-2.75-1.85V81.07a1.68,1.68,0,0,0,.26-1.34c.95-4.53,2.9-8.77,3.77-13.34A69.58,69.58,0,0,1,417.06,59C417.93,56.16,418.84,56,421.41,57.9Z"/><path class="cls-1" d="M463.82,123a7.16,7.16,0,0,0,1.38,4.84,11.46,11.46,0,0,1,1.65,6.41c0,.75.06,1.71-1,1.6-.88-.1-2.27-.16-2.09-1.5.34-2.56-.95-4.07-2.83-5.38-.3-.2-.74-.53-.74-.8,0-4-4.15-7.11-2.57-11.47a4.34,4.34,0,0,1,.88-.06c2.11.34,4.37.41,4,3.62A3.86,3.86,0,0,0,463.82,123Z"/><path class="cls-1" d="M412.35,113.57c-.18-2.29,1.27-3.78,2.7-5.19A3.88,3.88,0,0,0,416.4,105c-.37-3.93.74-7.71,1.21-11.55.09-.74.42-1.61-.13-2.16-.77-.76-1.27.42-1.93.52-2.08.31-2.47,1.81-3,3.53s-1,4-3.37,4.62a15.91,15.91,0,0,0,3.08-10.79,4.21,4.21,0,0,0,3.48-2.83c.56-1.39,1-2.84,1.5-4.23.41-1.06.88-2.14,2.34-2a13.44,13.44,0,0,1,.12,6.4c-1.08,6.23-2.61,12.42-2.36,18.81a4.44,4.44,0,0,1-1.49,3.6,9.14,9.14,0,0,0-2.64,4.59Z"/><path class="cls-1" d="M413.2,117.65c1.33,4.58-1.09,8.58-2,12.81,0,.15-.35.25-.54.37a5.92,5.92,0,0,1,0-1.74,1.68,1.68,0,0,0-.52-2c-.77-.51-.51,1.19-1.38.88a42.71,42.71,0,0,0-.9-6.84c-.38-1.51.33-2.94.51-4.4,1.49-.88,2.85-1,4,.6C412.53,117.53,412.92,117.55,413.2,117.65Z"/><path class="cls-1" d="M462,98.66c-2.15-1-2.3-3.54-4-5.46a6.19,6.19,0,0,1-2,4.46c-1,1-.81,2.16-.3,3.31a2.74,2.74,0,0,1-.61,3.45c-.67.63-.86-.09-1.25-.27l0-.59c1-.5.61-1.25.53-2.1-.16-1.73-.73-3.55.63-5.15,2-2.36,1.82-3.45-.67-5.28l-1.81-1.31c-.09-.54-.16-1.08.4-1.44l.83.49c1.57,2.18,4.42,2.36,6.3,4.06.62,1.34.76,3,2.35,3.69C462.35,97.25,462.67,98.05,462,98.66Z"/><path class="cls-1" d="M431.73,64.37c-1.05-1.11-.07-2.61-.79-3.83s-2-2.1-2.15-3.8c-.07-.85-3.48-.69-4.13.28-.34.52-.47,1.11-1.26.92a10.13,10.13,0,0,1,2.42-4.68c1.18-1.17,1.34-2.94,1.79-4.51A3.74,3.74,0,0,1,429,46.3a43,43,0,0,1-2.35,8.06c1.13,0,2.52.5,2.69-.94.32-2.7,1.8-5,2.2-7.66.13-.84.64-1.81-.73-2.14.21-.56.6-1,1.19-.7.75.34.75,1.12.58,1.76-.55,2.17-1.07,4.36-1.83,6.46-.67,1.86-.47,3.8-.82,5.68-.15.8.4,1.4.9,2A5,5,0,0,1,431.73,64.37Z"/><path class="cls-1" d="M450.65,51.34a3.86,3.86,0,0,0,1.63,1.47c3.38,2,4.09,3.65,3.13,7.34-.12.43-.26.86-.41,1.28-.59,1.71-.47,3,1.78,3a19.68,19.68,0,0,1,2.41.34,4.41,4.41,0,0,1,0,4.09c-.07-1,0-2-.92-2.7a14.88,14.88,0,0,1-2-.09,3.43,3.43,0,0,1-3-4.34c.09-.43.22-.86.33-1.29,1.09-4.26.85-4.81-3-6.92L449.7,53A1.49,1.49,0,0,1,450.65,51.34Z"/><path class="cls-1" d="M452.52,89.72,454.33,91c2.49,1.83,2.66,2.92.67,5.28-1.36,1.6-.79,3.42-.63,5.15.08.85.49,1.6-.53,2.1.31-3.46-.53-6.75-1.29-10.07A16.36,16.36,0,0,1,452.52,89.72Z"/><path class="cls-1" d="M419.55,80.11c-1.46-.13-1.93,1-2.34,2-.55,1.39-.94,2.84-1.5,4.23a4.21,4.21,0,0,1-3.48,2.83c-.56-.53-.36-1.2-.31-1.83,1.31.12,2.42-.67,2.33-1.73s-1.49-.3-2.3-.47a1.57,1.57,0,0,0-.43,0,3.26,3.26,0,0,1-.36-2.78,2.73,2.73,0,0,0,2.75,1.85c1.41-.09,1.32-1.3,1.64-2.08a5.53,5.53,0,0,1,3.63-3.35C419.62,79.16,419.57,79.64,419.55,80.11Z"/><path class="cls-1" d="M430.8,43.62c1.37.33.86,1.3.73,2.14-.4,2.64-1.88,5-2.2,7.66-.17,1.44-1.56,1-2.69.94A43,43,0,0,0,429,46.3h0c.69-.19,1.82-.11.87-1.35A1.72,1.72,0,0,1,430.8,43.62Z"/><path class="cls-1" d="M463.82,123a3.86,3.86,0,0,1-1.29-2.74c.33-3.21-1.93-3.28-4-3.62a4.34,4.34,0,0,0-.88.06,1.93,1.93,0,0,1,.33-1.89,20.29,20.29,0,0,0,4.94,1A5.64,5.64,0,0,1,463.82,123Z"/><path class="cls-1" d="M462.4,96.52c-1.59-.72-1.73-2.35-2.35-3.69,1.24-1.07,2-5,1.35-6.55-.31-.79-1.42-1.53-.36-2.53a6.29,6.29,0,0,1,1.34,6.43,7.52,7.52,0,0,0,.18,4.2A2.21,2.21,0,0,1,462.4,96.52Z"/><path class="cls-1" d="M449.7,53l.94.55A21,21,0,0,0,448.43,60a58.07,58.07,0,0,1-2.1,7.92c-.3.85-.5,1.93-1.64,2.23C446.93,64.61,447.24,58.49,449.7,53Z"/><path class="cls-1" d="M458.3,66.19c.95.68.85,1.72.92,2.7a9.79,9.79,0,0,0,.77,4.37,19,19,0,0,1,1,8.25,4.33,4.33,0,0,1-.9-2.68,15.63,15.63,0,0,0-1.23-5.8C457.82,70.87,458.44,68.48,458.3,66.19Z"/><path class="cls-1" d="M407.39,103.16c.12,3.89,1.55,7.52,2.24,11.29a.92.92,0,0,1-.93.4c.06-1.85-.9-3.44-1.34-5.17C406.8,107.51,406.43,105.33,407.39,103.16Z"/><path class="cls-1" d="M408.7,114.85a.92.92,0,0,0,.93-.4,4.65,4.65,0,0,0,2.72-.88l.83-.06a12.78,12.78,0,0,0,0,4.14c-.28-.1-.67-.12-.81-.32-1.13-1.61-2.49-1.48-4-.6C408.28,116.07,408.1,115.4,408.7,114.85Z"/><path class="cls-1" d="M408.8,128c.87.31.61-1.39,1.38-.88a1.68,1.68,0,0,1,.52,2,5.92,5.92,0,0,0,0,1.74l0,.7a.81.81,0,0,0-.54,1h0l-1.33-.09Z"/><path class="cls-1" d="M453.75,88.77l-.83-.49,2.22-6.78c.93.8.25,1.64,0,2.43C454.74,85.56,454.23,87.16,453.75,88.77Z"/><path class="cls-1" d="M434.75,82.88c-1-.27-.76-1.12-.77-1.81,0-2.13,0-4.25,0-6.38,1.08.6.85,1.65.85,2.59C434.85,79.15,434.79,81,434.75,82.88Z"/><path class="cls-1" d="M433.61,74.24c-.49,0-.95-.16-.93-.71a12.25,12.25,0,0,0-1.32-6c-.18-.36.05-.71.41-.92C433.37,68.92,433.49,71.58,433.61,74.24Z"/><path class="cls-1" d="M411.52,85.17a1.57,1.57,0,0,1,.43,0c.81.17,2.22-.46,2.3.47s-1,1.85-2.33,1.73C411.78,86.62,411.65,85.89,411.52,85.17Z"/><path class="cls-1" d="M426.71,79.27c1.88.7,3.22,1.75,2.73,4C429,81.68,427.26,80.87,426.71,79.27Z"/><path class="cls-1" d="M423.69,68.86c1.35,1.35,1.27,2.72.05,4.1C423.72,71.59,423.71,70.23,423.69,68.86Z"/><path class="cls-1" d="M451.63,73.82c1.93.46,1.06,2,1.27,3.17C451.65,76.26,451.92,74.93,451.63,73.82Z"/><path class="cls-1" d="M430.18,87.33c.69.8,1.46,1.57.67,2.73A2.52,2.52,0,0,1,430.18,87.33Z"/><path class="cls-1" d="M454.21,78.37c1,.22,1.65.65.94,1.78A3.13,3.13,0,0,1,454.21,78.37Z"/><path class="cls-1" d="M429.57,84.65c1.19.35.72,1.25.67,2C429.3,86.23,429.46,85.43,429.57,84.65Z"/><path class="cls-1" d="M444.68,70.14c.12,1-.35,1.41-1.3,1.39A1.42,1.42,0,0,1,444.68,70.14Z"/><path class="cls-1" d="M429.85,45c.95,1.24-.18,1.16-.87,1.35A1.47,1.47,0,0,1,429.85,45Z"/><path class="cls-1" d="M408.82,132.45l1.33.09c-.06.51-.28.86-.85.76S408.78,132.84,408.82,132.45Z"/><path class="cls-1" d="M409.15,100c.05.69.06,1.36-.92,1.36A1.5,1.5,0,0,1,409.15,100Z"/><path class="cls-1" d="M410.15,132.54a.81.81,0,0,1,.54-1C411.11,132.18,410.75,132.42,410.15,132.54Z"/><path class="cls-1" d="M411.42,79.73a1.68,1.68,0,0,1-.26,1.34C411,80.57,410.93,80.09,411.42,79.73Z"/><path class="cls-1" d="M237.14,85.32c0,.24,0,.48-.07.72-3.16,1.58-6.59,2.45-9.12,5.43-1.64,1.93-2.53,3.49-1.75,5.87-3.95.51-5.35-2-5.82-5.6-2,3.21.64,7.06,4.46,7.36.07,1.1.59,2.54.09,3.22-.78,1.05-2.14-.32-3.33-.1a4.41,4.41,0,0,1-4.7-1.78c-.31-.42-.78-1.34-1.54-.38l-1.3.07c-.81-1.08-1.2,0-1.64.38s-1,1.1-.13,1.76v.86c-1,2.16.92,3.89.91,5.91,0,.44,0,.88,0,1.32-.13.25-.44.55-.38.73a8.1,8.1,0,0,1-.5,6,4.47,4.47,0,0,0-.29,3.26c.37,1.22-1.54,3.22-3.08,3.48a2.78,2.78,0,0,1-3.36-2.47c-.1-1.59-.39-3.19.51-4.79,1-1.77-.2-5-2-6.21h0c.23-1-.56-1.77-.21-2.82a17.35,17.35,0,0,0-.21-10.71c4.72-2.25,6.14-4.84,4.11-9.58a23.11,23.11,0,0,1-1.12-3.35c-.67-2.6-.27-3.28,2.4-4.29,0,2.9,2.67,5.49,1,8.63-.09.17.07,1.77,1.28.78l1.25,0a8.22,8.22,0,0,0,4.12.09l1.31.25c.62,1.31,1.33.58,1.85,0a11.89,11.89,0,0,1,5.72-3.24c.81-.26,1.85-.27,1.87-1.52l.38-.43c1.39-.5,1.74-1.38,1-2.66l.11-.88c1.38-.5.87-1.83,1.23-2.79l0-.06a19.16,19.16,0,0,1,7.42-3.29c2.31-.49,2.76-.07,2.63,2.31-.06,1.22-1.15,2.14-.87,3.42h0C237.41,81.4,237.75,83.57,237.14,85.32Z"/><path class="cls-1" d="M203.22,45.83l.89,0c.2,1.56,1.19.27,1.76.49a12.24,12.24,0,0,1,.53,4.38c.12,2.87,1.37,4.31,4,4.69-.43,1.44-1.62.77-2.46.79-1.54,0-3.23,0-4,1.5s-1.34,3.56.27,5.22a2.53,2.53,0,0,1,.55,2.1c-.2,2.11,0,4.08,1.59,5.71a3.41,3.41,0,0,1,.62,3.75c-.53,1.59-.24,2.88,1.6,3.39-3.8,1.14-3.88,4.09-3.52,7.26-.95-.09-1.79,0-2.18,1.09-.2.61.07,1.75-1.17,1.45A1.93,1.93,0,0,1,200,85.63a12.76,12.76,0,0,0-.36-4.68,8.88,8.88,0,0,1-.45-5.1c.87-3.45-.46-5.9-2.82-8.19A5.36,5.36,0,0,1,195,62.31c.82-3.47,1.18-6.78-2-9.47-.9-.75-1.06-2.42.37-2.73a11.42,11.42,0,0,0,5-2.88,3.92,3.92,0,0,1,2.9-.93C201.85,46.35,202.67,46.59,203.22,45.83Z"/><path class="cls-1" d="M257.88,135.15l-.18-1.32c.89-1.21.24-1.82-.88-2.25l-1.35-1.34c0-1-.7-.94-1.39-.89l-.86-.46a1.23,1.23,0,0,0-1.36-1.37h0c0-.67,0-1.32-.88-1.38a2.72,2.72,0,0,1-.94-1.75c.21-1.5-.78-2.19-1.94-2.57a5.32,5.32,0,0,1-3.19-2.86,4,4,0,0,0-1.53-1.84c.63-5.33-.88-7.15-5.95-7.18.16-.88.31-1.76.48-2.63s-.55-2.2.57-2.64c1.28-.5,2.17.63,3.06,1.43.6.53.7,1.31,1.09,1.92,1.21,1.89,2,4.29,4.77,4.58l.43.44c.1,4.5,2.61,7.39,6.33,9.47h0c-.28,1.73.76,2.62,2.09,3.34s2.62,1.41,2.8,3a13.46,13.46,0,0,0,3,6.86,6.68,6.68,0,0,1,1.24,6.15c-2.45-2.77-2.45-2.77-3.73-3.09a2.28,2.28,0,0,1-1-1.77C259.44,136,258.67,135.55,257.88,135.15Z"/><path class="cls-1" d="M239.31,80.2c-.28-1.28.81-2.2.87-3.42.13-2.38-.32-2.8-2.63-2.31a19.16,19.16,0,0,0-7.42,3.29,2.48,2.48,0,0,1,1-1.87,4.88,4.88,0,0,0,1.28-5.59c.85-4.13,3.71-5.76,7.52-4.3a5.83,5.83,0,0,0,3.49.51,8,8,0,0,1-1.77,7.7,4,4,0,0,0-.63,2.56C240.94,78.13,240.67,79.45,239.31,80.2Z"/><path class="cls-1" d="M203.22,45.83c-.55.76-1.37.52-2.08.47a3.92,3.92,0,0,0-2.9.93,11.42,11.42,0,0,1-5,2.88c-1.43.31-1.27,2-.37,2.73,3.21,2.69,2.85,6,2,9.47a5.36,5.36,0,0,0,1.45,5.35c2.36,2.29,3.69,4.74,2.82,8.19a8.88,8.88,0,0,0,.45,5.1,12.76,12.76,0,0,1,.36,4.68,1.93,1.93,0,0,0,1.69,2.05c1.24.3,1-.84,1.17-1.45.39-1.12,1.23-1.18,2.18-1.09.43,1,.93,1.87,1.28,2.85,1.57,4.25.33,6.51-4.13,7.67a3.91,3.91,0,0,1-.54-3.21c.39-1.32-.45-2.33-1.19-3.25a5.8,5.8,0,0,1-1.36-4.6,7.44,7.44,0,0,0-.3-2.88c-.7-2.6-1.17-5.18-.28-7.92.56-1.73-.56-3.25-1.8-4.37-2.84-2.59-3.4-5.65-2.35-9.2a5.46,5.46,0,0,0-1.46-6c-2.51-2.45-1.94-4.35,1.38-5.32a6.16,6.16,0,0,0,2.33-1.71C198.56,45.48,200.7,44.74,203.22,45.83Z"/><path class="cls-1" d="M204.08,110.39c1.77,1.2,3,4.44,2,6.21-.9,1.6-.61,3.2-.51,4.79a2.78,2.78,0,0,0,3.36,2.47c1.54-.26,3.45-2.26,3.08-3.48a4.47,4.47,0,0,1,.29-3.26,8.1,8.1,0,0,0,.5-6c-.06-.18.25-.48.38-.73a4.31,4.31,0,0,1,.72,4.84c-2,3.51-.66,6.27,1.21,9.1-2.1.08-3,1.45-3.28,3.27a29.94,29.94,0,0,0-.42,4.62c0,1.76-.66,2.32-2.3,1.6.28-3.49-1.79-6.22-3.19-9.1s-2-5.74-.71-8.78C206.07,113.79,204.42,112.23,204.08,110.39Z"/><path class="cls-1" d="M237.44,110c5.07,0,6.58,1.85,5.95,7.18,0,.29,0,.58-.08.88-.73-.53-.88-1.43-1.37-2.11.12-3.66-.37-4.19-3.93-4.17l-2.44,0c-.72-1.16-2-1.48-3.08-2.16.08-1.34.17-2.62-1.24-3.51a2.86,2.86,0,0,1-1-2.17c-.53-4.46-1-4.84-5.42-4.81-3.82-.3-6.42-4.15-4.46-7.36.47,3.65,1.87,6.11,5.82,5.6.18.11.36.3.56.33,3.9.63,4.6,1.42,4.86,5.49a4.79,4.79,0,0,0,.22,1.31c.2.53.36,1.21,1.1,1.25s.8-.58,1-1c.57-1.12,1.11-2.24,1.67-3.36.57.31.68.89.86,1.43-.61,1.25-1.3,2.47-1.81,3.76-.36.88-1.21,1.8-.27,2.83A2.55,2.55,0,0,0,237.44,110Z"/><path class="cls-1" d="M224.84,99.1c4.45,0,4.89.35,5.42,4.81a2.86,2.86,0,0,0,1,2.17c1.41.89,1.32,2.17,1.24,3.51-1.45-.8-2.73-1.91-4.68-1-1.1.49-1.91-.7-2.41-1.6-1.34-2.42-2.89-4.13-6.11-3.87-1.79.15-2.8-1.75-3.93-3,.76-1,1.23,0,1.54.38a4.41,4.41,0,0,0,4.7,1.78c1.19-.22,2.55,1.15,3.33.1C225.43,101.64,224.91,100.2,224.84,99.1Z"/><path class="cls-1" d="M210.39,55.42c-2.62-.38-3.87-1.82-4-4.69a12.46,12.46,0,0,0-.52-4.38l-.43-.91.86-.08.56.08,1.32,6.29c.13,1.27.89,1.77,2.1,1.88,2.25.21,4.24-.84,6.35-1.26a1.89,1.89,0,0,0,1.4-1.88c-.08-1.63.63-3.06.91-4.6,1.75-1.82,3.65-1.81,5.64-.45a5.75,5.75,0,0,0,4.25,1.1c-.47,1.59-1.56,1.61-2.71,1.54-1-.55-1.91-1.15-2.92-1.64-1.67-.81-3-.22-3.26,1.59a9.59,9.59,0,0,1-1.65,4.78c-.47.6,0,1.11.28,1.64-2,.15-4.06-.45-5.86.86Z"/><path class="cls-1" d="M212.15,41.74c2.47-2.92,5.59-2.55,8.64-1.41a34.66,34.66,0,0,1,6.39,3.26A7.13,7.13,0,0,0,232,45a1.89,1.89,0,0,1,2.36,1.8c.26,2.1,1.54,2.48,3.38,2.15,2.92-.54,4.27.56,4.27,3.43,0,2.51-.31,4.95,1.75,7.1,1.4,1.46-.11,3.44-.07,5.2-.9.06-1.83.43-2.63-.3,1.2-2.09,2.69-4.13.3-6.43-.33-.33-.24-1.14-.25-1.73,0-1.36,0-2.71,0-4.06a2,2,0,0,0-2.18-2.26,16.89,16.89,0,0,0-2.25,0,2.56,2.56,0,0,1-3.11-2.24c-.25-1.64-1.1-2-2.47-1.83-1.76.17-3.08-.76-4.53-1.61-2.72-1.6-5.32-3.33-8.74-3.67-2.19-.22-3.65,1.07-5.52,1.27Z"/><path class="cls-1" d="M235.64,101.33c-.56,1.12-1.1,2.24-1.67,3.36-.23.45-.39,1-1,1s-.9-.72-1.1-1.25a4.79,4.79,0,0,1-.22-1.31c-.26-4.07-1-4.86-4.86-5.49-.2,0-.38-.22-.56-.33-.78-2.38.11-3.94,1.75-5.87,2.53-3,6-3.85,9.12-5.43-.28,1.57-1.56,2-2.81,2.17-3.43.43-4.51,3.71-6.84,5.47-.69.53.05,1.12.59,1.33a6.24,6.24,0,0,1,3.81,4.17C232.46,101.29,234.51,100.39,235.64,101.33Z"/><path class="cls-1" d="M202.22,95.66c4.46-1.16,5.7-3.42,4.13-7.67-.35-1-.85-1.9-1.28-2.85-.36-3.17-.28-6.12,3.52-7.26l1-.52c.86.2.84.83.71,1.5l-1.25.78c-2.67,1-3.07,1.69-2.4,4.29a23.11,23.11,0,0,0,1.12,3.35c2,4.74.61,7.33-4.11,9.58a1,1,0,0,0-.93.45C202.12,96.9,202.3,96.24,202.22,95.66Z"/><path class="cls-1" d="M215.85,125.69a10.2,10.2,0,0,1-.34,3.55,4.08,4.08,0,0,0,0,3.09c1.57,2.94.83,5.28-1.47,7.38-1.47-.38-.92-1.51-.79-2.37.1-.66.53-1.35.25-2-1.06-2.29-.21-4.65-.29-7C213.14,126.88,213.76,125.41,215.85,125.69Z"/><path class="cls-1" d="M215.85,125.69c-2.09-.28-2.71,1.19-2.65,2.72.08,2.32-.77,4.68.29,7,.28.61-.15,1.3-.25,2-.13.86-.68,2,.79,2.37-.05.61-.1,1.23-.16,1.84a4.54,4.54,0,0,1-2.52-1.82l-.06-.84c.87-3.3.87-3.3-2.3-3.25-.69-.65-.15-1.24.09-1.85,1.64.72,2.29.16,2.3-1.6a29.94,29.94,0,0,1,.42-4.62c.3-1.82,1.18-3.19,3.28-3.27C215.84,124.48,215.88,125.07,215.85,125.69Z"/><path class="cls-1" d="M237.44,110a2.55,2.55,0,0,1-3-.6c-.94-1-.09-1.95.27-2.83.51-1.29,1.2-2.51,1.81-3.76a1.58,1.58,0,0,0,1.71.8c2.43-.38,3.9,1.16,4.83,2.92a26.18,26.18,0,0,0,4.37,6.13c-2.77-.29-3.56-2.69-4.77-4.58-.39-.61-.49-1.39-1.09-1.92-.89-.8-1.78-1.93-3.06-1.43-1.12.44-.41,1.73-.57,2.64S237.6,109.07,237.44,110Z"/><path class="cls-1" d="M259.6,138.76c1.28.32,1.28.32,3.73,3.09a6.68,6.68,0,0,0-1.24-6.15,13.46,13.46,0,0,1-3-6.86c-.18-1.57-1.53-2.3-2.8-3s-2.37-1.61-2.09-3.34a12.57,12.57,0,0,0,3.85,3.33,3.86,3.86,0,0,1,1.9,3.17,10.12,10.12,0,0,0,2.53,5.65c2.06,2.44,2.16,5.34,2,8.31,0,.47-.16.92-.68,1a.85.85,0,0,1-1-.69C262.15,141.49,260.71,140.24,259.6,138.76Z"/><path class="cls-1" d="M241,64.42c.8.73,1.73.36,2.63.3a2.29,2.29,0,0,1-.22,1.79A5.83,5.83,0,0,1,240,66c-3.81-1.46-6.67.17-7.52,4.3-2.05-1.55,0-3,.09-4.53a1.54,1.54,0,0,0,1.35-.94C236.16,63,238.56,63.21,241,64.42Z"/><path class="cls-1" d="M235.57,111.75l2.44,0c3.56,0,4.05.51,3.93,4.17a3.84,3.84,0,0,0-.65-.11C237.22,115.92,237.22,115.92,235.57,111.75Z"/><path class="cls-1" d="M202.72,97.24a1,1,0,0,1,.93-.45,17.35,17.35,0,0,1,.21,10.71c-.34,1,.44,1.87.21,2.82a2.48,2.48,0,0,1-1.12-3.07C204.19,103.87,203.79,100.55,202.72,97.24Z"/><path class="cls-1" d="M254.17,122.52c-3.72-2.08-6.23-5-6.33-9.47C249.13,116.75,251.91,119.46,254.17,122.52Z"/><path class="cls-1" d="M211.35,139.73a4.54,4.54,0,0,0,2.52,1.82c-.15,1.07.81,2.86-.93,2.95s-1.5-1.72-1.57-3C211.33,140.93,211.35,140.33,211.35,139.73Z"/><path class="cls-1" d="M243.31,118c0-.3.05-.59.08-.88a4,4,0,0,1,1.53,1.84,5.32,5.32,0,0,0,3.19,2.86c1.16.38,2.15,1.07,1.94,2.57a10.8,10.8,0,0,0-3.3-2.19C244.84,121.53,244.12,119.69,243.31,118Z"/><path class="cls-1" d="M209,135.64c3.17,0,3.17,0,2.3,3.25C210.46,137.85,209,137.27,209,135.64Z"/><path class="cls-1" d="M206.87,45.44l-.56-.08,5.84-3.62.12.13A7.43,7.43,0,0,1,206.87,45.44Z"/><path class="cls-1" d="M213.2,109c0-2-1.87-3.75-.91-5.91C213.17,105,214.37,106.84,213.2,109Z"/><path class="cls-1" d="M237.14,85.32c.61-1.75.27-3.92,2.18-5.12C238.59,81.91,239,84.09,237.14,85.32Z"/><path class="cls-1" d="M212.29,102.27c-.91-.66-.42-1.27.13-1.76s.83-1.46,1.64-.38Z"/><path class="cls-1" d="M256.82,131.58c1.12.43,1.77,1,.88,2.25C257.41,133.08,257.12,132.33,256.82,131.58Z"/><path class="cls-1" d="M205.45,45.44l.43.91c-.58-.22-1.57,1.07-1.77-.49Z"/><path class="cls-1" d="M257.88,135.15c.79.4,1.56.8.73,1.84A2,2,0,0,1,257.88,135.15Z"/><path class="cls-1" d="M251.86,127.52a1.23,1.23,0,0,1,1.36,1.37A1.43,1.43,0,0,1,251.86,127.52Z"/><path class="cls-1" d="M254.08,129.35c.69,0,1.37-.09,1.39.89A1.7,1.7,0,0,1,254.08,129.35Z"/><path class="cls-1" d="M251,126.15c.92.06.91.71.88,1.38A1.38,1.38,0,0,1,251,126.15Z"/><path class="cls-1" d="M564.24,89.17a.88.88,0,0,1,.39.92c-.35,2.16,1,3.56,2.26,5,0,.6,0,1.19.1,1.78.12.87.56,1.16,1.37.63,2.19-1.45,4.81-1.86,7.17-2.9a5.07,5.07,0,0,1,1.33,3.63c-.23.19-.57.32-.68.56-2,4.15-5.49,6.3-9.62,7.8a7.45,7.45,0,0,0-3.71,3.47,12.78,12.78,0,0,1-5.37,4.91c-.49-2.16.67-3.54,2.25-4.71.65-.48,1.38-.86,2-1.35,2.65-2,2.78-4.72.46-7.06-1.22-1.22-2.86-1.54-4.31-2.26.11-1.05,1.42-2.07.09-3.17l-.57-1.29c-1.05-1.34-.26-3.37-1.69-4.57,0-.44-.07-.89-.11-1.33.84-1.27-.12-2.29-.44-3.42-.57-2-1.51-4-.42-6.09a4.32,4.32,0,0,0,3,2.11,37.9,37.9,0,0,0,4.65.18,19.77,19.77,0,0,0,0,3.08C562.69,86.54,562.6,88.25,564.24,89.17Z"/><path class="cls-1" d="M542.57,119.81a4.4,4.4,0,0,1,1.82-1.78c1.23-.12,2.5-.19,2.67-1.85h0c1.09.17,1.45-.38,1.39-1.39-.07-1.36.68-1.82,1.94-1.68a7.24,7.24,0,0,1-.39.79c-.44.62-1,1.32-.24,2,.92.8,1-.43,1.4-.78a3.66,3.66,0,0,1,4.41.22c-3.62,1.42-5.75,4.27-5.75,7.72h0c-2.35,1.3-4.1,3.06-4.54,5.84h0a1,1,0,0,0-1,.73c-.69,2-2.28,2.12-4,2-.62,0-1.24-.07-1.54-.7a1.19,1.19,0,0,1,.54-1.57c3.38-2.28,4.35-5.41,3.33-9.27A.81.81,0,0,1,542.57,119.81Z"/><path class="cls-1" d="M552.85,68.42c2.16-2.07,1.3-4.71,1.32-7.17,0-.67-.71-1.59.47-1.83,1-.21,1.11.77,1.44,1.41,2,3.9,2.42,8.32,4.08,12.33a10.45,10.45,0,0,0,2.31,3.8c-1.49.3-2.22,1.71-3.45,2.4-.57.32-1,1-1.75.61a2.22,2.22,0,0,1-1.09-2.09,12.26,12.26,0,0,1,.32-1.53C557.26,71.51,556.34,69.52,552.85,68.42Z"/><path class="cls-1" d="M519.15,146a9.21,9.21,0,0,1,2.74-2.68c1,0,1.73-.22,1.76-1.39h0c1,.08,1.73-.17,1.82-1.32a.93.93,0,0,1,.88-.5c1.14.79,1.54.08,1.81-.9l.51-.4H529l.07,0c.16.23.31.22.47,0,3.59-.24,4.09-.81,4.05-4.56,1.12,0,1.57-1,2.31-1.63s3.63.06,4.08.93-.65,1.3-1.09,1.89c-1.21,1.64-3.3,2.55-3.94,4.69h0c-1.66.37-3.34.63-5,1.14-1,.31-2.29.17-2.75,1.49a.86.86,0,0,1-.39.09c-.68-.05-1.35-.08-1.39.88h0c-1-.06-1.78.17-1.79,1.39l-.47.41c-1.29,0-2.11.48-2.23,1.85a2,2,0,0,1-2.31.92Z"/><path class="cls-1" d="M550.39,113.12c-1.26-.14-2,.32-1.94,1.68.06,1-.3,1.56-1.39,1.39,0-3.73,2.85-4.43,5.53-5.21,2.29-.66,3.33-2,3-4.38-.23-2,.85-3.75,1.08-5.66a5.56,5.56,0,0,1,4.2,1.78c2.19,2,2.11,3.29-.35,5-1.29.89-2.95,1.62-3.54,3-1.16,2.74-3.29,2.5-5.51,2.4C551.14,113.08,550.76,113.11,550.39,113.12Z"/><path class="cls-1" d="M577.69,93.65a88,88,0,0,0,9.54-6.26,16.47,16.47,0,0,1,5-2.54c.52-.18,1.12-.86,1.61-.23s-.06,1.38-.6,1.92a22.86,22.86,0,0,1-4.66,4.19c-3.56,2-6.44,5.13-10.32,6.65Z"/><path class="cls-1" d="M550.39,113.12c.37,0,.75,0,1.12,0,2.22.1,4.35.34,5.51-2.4.59-1.39,2.25-2.12,3.54-3,2.46-1.68,2.54-2.93.35-5a5.56,5.56,0,0,0-4.2-1.78,1.12,1.12,0,0,1,.63-1.41h.58c1.45.72,3.09,1,4.31,2.26,2.32,2.34,2.19,5.1-.46,7.06-.66.49-1.39.87-2,1.35-1.58,1.17-2.74,2.55-2.25,4.71a2.32,2.32,0,0,1-1.82,1.36l-.09-1a3.66,3.66,0,0,0-4.41-.22c-.41.35-.48,1.58-1.4.78-.74-.63-.2-1.33.24-2A7.24,7.24,0,0,0,550.39,113.12Z"/><path class="cls-1" d="M534.94,140.16c.64-2.14,2.73-3,3.94-4.69.44-.59,1.63-.87,1.09-1.89s-3.43-1.45-4.08-.93-1.19,1.59-2.31,1.63l-.48-.52c2.83-2.7,5.66-5.39,8.47-8.11a2.34,2.34,0,0,0,.35-2.69c-.38-1.14-.7-2.34.65-3.15a.81.81,0,0,0,0,.22c1,3.86,0,7-3.33,9.27a1.19,1.19,0,0,0-.54,1.57c.3.63.92.66,1.54.7,1.74.14,3.33,0,4-2a1,1,0,0,1,1-.73,9.77,9.77,0,0,1-3.39,5.1,63.09,63.09,0,0,0-5,4.82C536.33,139.34,535.89,140.12,534.94,140.16Z"/><path class="cls-1" d="M552.85,68.42c3.49,1.1,4.41,3.09,3.65,7.93a12.26,12.26,0,0,0-.32,1.53A2.22,2.22,0,0,0,557.27,80c.75.43,1.18-.29,1.75-.61,1.23-.69,2-2.1,3.45-2.4a1.25,1.25,0,0,1,.85,1.41c-.91.12-2,.6-1.93,1.4s1.21.8,2,.79a.94.94,0,0,1,0,1.47l-1-.07a37.9,37.9,0,0,1-4.65-.18,4.32,4.32,0,0,1-3-2.11c-.29-2.25.4-4.45.41-6.69,0-1.54-.41-2.88-2.41-2.74C552.38,69.62,552.22,69,552.85,68.42Z"/><path class="cls-1" d="M552.78,70.24c2-.14,2.41,1.2,2.41,2.74,0,2.24-.7,4.44-.41,6.69-1.09,2.12-.15,4.1.42,6.09.32,1.13,1.28,2.15.44,3.42a19.93,19.93,0,0,1-2.24-10.51C553.68,75.84,553,73.05,552.78,70.24Z"/><path class="cls-1" d="M533.1,133.76l.48.52c0,3.75-.46,4.32-4.05,4.56h-.47l-.07,0a1.5,1.5,0,0,0,0-.42C531.3,137.66,531.41,135,533.1,133.76Z"/><path class="cls-1" d="M555.57,115.3l.09,1c-2.9,1.42-4.34,4.11-5.84,6.74C549.82,119.57,552,116.72,555.57,115.3Z"/><path class="cls-1" d="M577.69,93.65l.54,3.73a1.49,1.49,0,0,1-1.37.8,5.07,5.07,0,0,0-1.33-3.63C576,93.61,576.84,93.63,577.69,93.65Z"/><path class="cls-1" d="M562.42,82l1,.07a23.89,23.89,0,0,0,.8,7.14c-1.64-.92-1.55-2.63-1.79-4.13A19.77,19.77,0,0,1,562.42,82Z"/><path class="cls-1" d="M545.29,128.86c.44-2.78,2.19-4.54,4.54-5.84C548.71,125.27,546.89,127,545.29,128.86Z"/><path class="cls-1" d="M527.25,142.78c.46-1.32,1.78-1.18,2.75-1.49,1.61-.51,3.29-.77,5-1.14C532.74,142.08,529.85,142,527.25,142.78Z"/><path class="cls-1" d="M566.89,95c-1.31-1.39-2.61-2.79-2.26-5C565.3,91.78,566.91,93,566.89,95Z"/><path class="cls-1" d="M555.75,90.51c1.43,1.2.64,3.23,1.69,4.57C555.09,94.22,555.72,92.25,555.75,90.51Z"/><path class="cls-1" d="M563.4,80.56c-.8,0-2,0-2-.79s1-1.28,1.93-1.4Z"/><path class="cls-1" d="M557.92,99.54h-.58c.23-1,.45-2.11.67-3.16C559.34,97.47,558,98.49,557.92,99.54Z"/><path class="cls-1" d="M547.06,116.18c-.17,1.66-1.44,1.73-2.67,1.85A5,5,0,0,1,547.06,116.18Z"/><path class="cls-1" d="M521,147.4c.12-1.37.94-1.88,2.23-1.85A3.73,3.73,0,0,1,521,147.4Z"/><path class="cls-1" d="M519.15,146l-.48,2.33C517.72,147.54,517.78,147.24,519.15,146Z"/><path class="cls-1" d="M528.16,139.21c-.27,1-.67,1.69-1.81.9A1.74,1.74,0,0,1,528.16,139.21Z"/><path class="cls-1" d="M525.47,140.61c-.09,1.15-.84,1.4-1.82,1.32A2.14,2.14,0,0,1,525.47,140.61Z"/><path class="cls-1" d="M523.65,141.92c0,1.17-.79,1.41-1.76,1.39A2.22,2.22,0,0,1,523.65,141.92Z"/><path class="cls-1" d="M523.68,145.14c0-1.22.79-1.45,1.79-1.39A2.51,2.51,0,0,1,523.68,145.14Z"/><path class="cls-1" d="M525.47,143.75c0-1,.71-.93,1.39-.88A1.59,1.59,0,0,1,525.47,143.75Z"/><path class="cls-1" d="M529,138.4a1.5,1.5,0,0,1,0,.42h-.32Z"/><path class="cls-1" d="M295,84.16c.47-4.26,2.4-8.16,3-12.39.29-1.87.18-3.73.34-5.59,1.67-.24,3.23.51,4.87.53a45.87,45.87,0,0,0,.64,5.77,9.4,9.4,0,0,1-.32,5.7c-.45,1.19-.57,2.46.36,3.37s2.09,0,3.09-.35a4.84,4.84,0,0,0,1.56-.86c2.21-2.08,5-3.09,7.69-4.31a1.18,1.18,0,0,1-.85,1.41c-3.7,1.07-6.09,4.51-9.91,5.38a2.39,2.39,0,0,0-1.82,3.42c.59,1.56,1.68,2.75,3.59,1.24a5.09,5.09,0,0,1,2.06-.85c3.3-.72,5.08-3,6-6s3.18-4.14,6-4.5A2.29,2.29,0,0,1,320,77.21a7.05,7.05,0,0,0-4.29,4.85,7.2,7.2,0,0,1-4.95,5c-.57.18-1.1.47-1.65.7-3.15,1.3-3.75,2.75-2,5.66,1.32,2.24,2.9,4.33,4.37,6.49-1,1.36-1.86,2.9-3.35,3.86A11.31,11.31,0,0,1,307,103c-.71-.67-.64-2.65-2.14-1.88s-4.14.94-4,3.74a7.57,7.57,0,0,1-4,.52c.4-1.85.75-3.68-.25-5.47a1.88,1.88,0,0,1,.19-1.73,21.13,21.13,0,0,0,1.49-7.66c2.57-2.86,1.85-5.37-1.82-6.24A11.32,11.32,0,0,0,295,84.16Z"/><path class="cls-1" d="M320.31,112.19c0,.3.05.59.07.89-.62.87-.89,1.69.36,2.27l.09.89c-.69.67-.53,1.11.36,1.36,0,.3.09.59.13.88-.71.6-.27.79.33.93.7,2.12,1.5,4.23,2.1,6.39.55,2,.68,3.93-1.5,5.31-1.08.68-1.69.66-1.94-.56-1-4.93-4.17-9-5.44-13.83.28-.15.58-.42.4-.69-1.2-1.83-.51-3,1.21-4,.91-.49.73-1.38.76-2.19h.89C318.84,110.68,319,112,320.31,112.19Z"/><path class="cls-1" d="M321.37,76.14c-2.85.36-5.09,1.48-6,4.5s-2.71,5.27-6,6a5.09,5.09,0,0,0-2.06.85c-1.91,1.51-3,.32-3.59-1.24a2.39,2.39,0,0,1,1.82-3.42c3.82-.87,6.21-4.31,9.91-5.38a1.18,1.18,0,0,0,.85-1.41h0a2.38,2.38,0,0,0,2.7-2.29l.45-.39c1.31.08,2.14-.43,2.27-1.81h0c1,.08,1.8-.12,1.8-1.37h0c.81.1,1.87.09.78,1.3a2.19,2.19,0,0,0-.71,1.93h0c-1,0-1,.69-.9,1.38A3,3,0,0,1,321.37,76.14Z"/><path class="cls-1" d="M317.24,109.89c0,.81.15,1.7-.76,2.19-1.72.92-2.41,2.12-1.21,4,.18.27-.12.54-.4.69-3.16-2.74-4.18-6.49-4.88-10.4,1.17.79,2.33,1.66,3.84,1.35C315.75,107.27,316.7,108.23,317.24,109.89Z"/><path class="cls-1" d="M320.31,112.19c-1.33-.19-1.47-1.51-2.18-2.3-.5-3.12-1.26-4-3.34-3.72-1.4.19-2.66.34-3.41-1.3s0-2.68,1.32-3.51c3.64.92,5.26,3.53,6.05,7C319.05,109.67,320.31,110.69,320.31,112.19Z"/><path class="cls-1" d="M298.36,64.37c-.05-3.89.25-4.34,3.29-5,1.68-.33,2.56.19,2.54,2.07a20.54,20.54,0,0,1-.55,3.76Z"/><path class="cls-1" d="M312.7,101.36c-1.35.83-2.1,1.81-1.32,3.51s2,1.49,3.41,1.3c2.08-.27,2.84.6,3.34,3.72h-.89c-.54-1.66-1.49-2.62-3.41-2.22-1.51.31-2.67-.56-3.84-1.35l0,0c-.06-.49,0-1.14-.24-1.42s-.53.29-.73.57a2,2,0,0,1-1-1.68c1.49-1,2.32-2.5,3.35-3.86A3,3,0,0,1,312.7,101.36Z"/><path class="cls-1" d="M298.38,114.89c-.43,1.1-.84,2.22-1.28,3.32-.29.73-.74,1.32-1.65,1.2s-1.21-1-1.22-1.82a12.67,12.67,0,0,1,1-5C296.72,112.76,297.48,113.91,298.38,114.89Z"/><path class="cls-1" d="M295.94,110.77l.57-3.54h3.62a23.84,23.84,0,0,1-1.31,6.36C298.14,112.35,296.92,111.69,295.94,110.77Z"/><path class="cls-1" d="M298.27,88.37c-1.56-.25-2.06,1.19-3,1.92-.41.31-.76.76-1.35.45a1.16,1.16,0,0,1-.55-1.34c.29-1.29.66-2.56,1-3.84C296.28,85.63,298.26,85.62,298.27,88.37Z"/><path class="cls-1" d="M298.27,88.37c0-2.75-2-2.74-3.91-2.81.21-.46.41-.93.62-1.4a11.32,11.32,0,0,1,1.54.16c3.67.87,4.39,3.38,1.82,6.24C298.31,89.83,298.29,89.1,298.27,88.37Z"/><path class="cls-1" d="M323.58,73.42a2.19,2.19,0,0,1,.71-1.93c1.09-1.21,0-1.2-.78-1.3,0-.06.05-.15.1-.19,1.15-.87,2.64-2.39,3.75-1.17.94,1-1.13,1.87-1.85,2.79A16.51,16.51,0,0,1,323.58,73.42Z"/><path class="cls-1" d="M300.13,107.22h-3.62c-.05-.64-.23-1.32.4-1.81a7.57,7.57,0,0,0,4-.52,2.55,2.55,0,0,1-.45,1.91l-.38.42Z"/><path class="cls-1" d="M298.36,64.37l5.28.88a2.17,2.17,0,0,1-.4,1.46c-1.64,0-3.2-.77-4.87-.53C298.37,65.58,298.36,65,298.36,64.37Z"/><path class="cls-1" d="M295.94,110.77c1,.92,2.2,1.58,2.88,2.81,0,.48,0,1-.44,1.31-.9-1-1.66-2.13-3.16-2.27A2.52,2.52,0,0,1,295.94,110.77Z"/><path class="cls-1" d="M319,73.75a2.38,2.38,0,0,1-2.7,2.29A5.36,5.36,0,0,1,319,73.75Z"/><path class="cls-1" d="M321.71,71.55c-.13,1.38-1,1.89-2.27,1.81A3.7,3.7,0,0,1,321.71,71.55Z"/><path class="cls-1" d="M320.74,115.35c-1.25-.58-1-1.4-.36-2.27C321.05,113.75,320.78,114.57,320.74,115.35Z"/><path class="cls-1" d="M323.51,70.18c0,1.25-.79,1.45-1.8,1.37A2.4,2.4,0,0,1,323.51,70.18Z"/><path class="cls-1" d="M309,105.49c.2-.28.46-.86.73-.57s.18.93.24,1.42C309.37,106.42,309.19,106,309,105.49Z"/><path class="cls-1" d="M321.19,117.6c-.89-.25-1.05-.69-.36-1.36C321.35,116.59,321.28,117.09,321.19,117.6Z"/><path class="cls-1" d="M322.69,74.81c-.06-.69-.11-1.39.9-1.38A1.5,1.5,0,0,1,322.69,74.81Z"/><path class="cls-1" d="M321.65,119.41c-.6-.14-1-.33-.33-.93A.78.78,0,0,1,321.65,119.41Z"/><path class="cls-1" d="M300.1,107.23l.38-.42Z"/><path class="cls-1" d="M378.66,110.93c-2.37-.51-4.69-1.08-5.54-3.82-.27-.88-.85-1.11-1.38-.21-1.3,2.24-2,1.13-2.87-.37A47.24,47.24,0,0,0,365,100c.22-5.69.26-7.43-5.29-8.64a9.86,9.86,0,0,0,.41-3.54c0-.6,0-1.25.85-1.33a1.24,1.24,0,0,1,1.38.9c.29.77.49,1.56.73,2.34.39,1.31.73,2.62,2.49,2.74.36,0,.77.45,1,.79,1.38,1.8,1.61,1.8,2.58-.36.83-1.84,1.51-3.74,2.26-5.61,2-.59,2.41.76,2.65,2.27-.57,2.93-1.18,5.85-1.69,8.78-.16.93-.49,2.19.46,2.7s1.44-.75,2-1.31a33.24,33.24,0,0,1,4.33-3.87,5.6,5.6,0,0,0,2.46-3.61c1.73-.13,3.38.84,5.13.4a36.43,36.43,0,0,0-.53,8.21c-1.72,1-1.9,2.71-2.33,4.37-.52,2-3.62,2.93-5.34,1.59a5.56,5.56,0,0,0,4.38-6.7c-.17-.66-.27-1.72-1.42-1-2.07,1.23-4.24,2.42-4.09,5.36C376.66,106.85,377.36,109,378.66,110.93Z"/><path class="cls-1" d="M353.25,84.65c.63,3.31,1.25,6.62,1.88,9.92a18.7,18.7,0,0,0,.28,4.41c.55,2.31-.52,3.82-3,4.61a6.22,6.22,0,0,0-.17-.88c-.52-1.49-1.46-2.92-3-2.89s-1.92,1.64-2.32,2.94a9.53,9.53,0,0,1-1.67,3.61c-.27-1.6-2.19-2.11-2.46-3.71,1-3.08,2.17-6,1.58-9.5a6,6,0,0,1,3.51-6.81,2.88,2.88,0,0,0,1.44-2.15ZM350,95.89c.75-.15,2.25.14,1.77-1.7a17.49,17.49,0,0,1-.87-4.35.86.86,0,0,0-.79-.92.88.88,0,0,0-.83.64,37,37,0,0,0-1.58,3.68C347,95.38,347.5,95.93,350,95.89Z"/><path class="cls-1" d="M363.61,99c-1.35,0-1.5.9-1.2,1.84a10.4,10.4,0,0,1,0,5.11c-.15.85-.21,1.79-1.35,1.66-.93-.1-1.35-.83-1.41-1.77s.17-1.68-.44-2.38c-.39-.43-.74-1.08-1.42-.93s-.77.91-.76,1.48c0,1.72.21,3.44.26,5.15,0,.8.23,1.82-.89,2s-1.31-.85-1.62-1.55a15.53,15.53,0,0,1-1.64-4.65c3-.93,3.69-1.91,3.84-5.45,2.28-.41,2.67-2.27,3-4.08a10.34,10.34,0,0,0,0-2.22C363.14,93.68,363.69,94.55,363.61,99Z"/><path class="cls-1" d="M382,90.51a94.22,94.22,0,0,0,3-10.58,8.69,8.69,0,0,1,.83-2.08c.35-.63.76-1.44,1.71-1a1.52,1.52,0,0,1,.85,1.89c-.3,1.24-.64,2.47-1,3.69a4.57,4.57,0,0,0,.13,3.5,5.06,5.06,0,0,1,.05,4.55C385.71,91.43,383.87,90.86,382,90.51Z"/><path class="cls-1" d="M386.53,103.18c.31,2.61,1.86,4.85,2.17,7.49.14,1.24.22,2.32-1.12,2.76s-1.85-.52-2.44-1.45-.51-2.39-1.65-3.1a8.25,8.25,0,0,0,2.18-4C385.76,104.21,385.83,103.54,386.53,103.18Z"/><path class="cls-1" d="M386.53,103.18c-.7.36-.77,1-.86,1.7a8.25,8.25,0,0,1-2.18,4,2,2,0,0,1-.43.08,3.14,3.14,0,0,0-3.33-.12c-.87.63.45,1.33.64,2-.56.67-1.13.34-1.71,0-1.3-2-2-4.08-1.22-6.46.21.87.15,1.87,1.13,2.37,1.72,1.34,4.82.45,5.34-1.59.43-1.66.61-3.42,2.33-4.37C386.89,101.58,386.57,102.4,386.53,103.18Z"/><path class="cls-1" d="M344.74,109.88c-.48.68-.53,2-1.68,1.74-1-.18-.71-1.36-.87-2.08-.2-.89-.8-1.6-.94-2.45s-.47-1.81.67-2.29C343.61,106.08,345.09,107.47,344.74,109.88Z"/><path class="cls-1" d="M363.61,99c.08-4.45-.47-5.32-3.67-5.76-.56-.55-.4-1.21-.28-1.86,5.55,1.21,5.51,3,5.29,8.64Z"/><path class="cls-1" d="M357,99.54c-.15,3.54-.83,4.52-3.84,5.45-.82-.18-.75-.79-.67-1.4,2.44-.79,3.51-2.3,3-4.61a18.7,18.7,0,0,1-.28-4.41Z"/><path class="cls-1" d="M382,90.51c1.85.35,3.69.92,5.52-.06a2.73,2.73,0,0,1-.77,2.22c-1.75.44-3.4-.53-5.13-.4C381.22,91.56,381.21,91,382,90.51Z"/><path class="cls-1" d="M344.74,109.88c.35-2.41-1.13-3.8-2.82-5.08,0-.84.06-1.65.88-2.14.27,1.6,2.19,2.11,2.46,3.71C345,107.52,346.54,109,344.74,109.88Z"/><path class="cls-1" d="M374,89.58c-.24-1.51-.61-2.86-2.65-2.27,0-1.32.46-2.66,1.88-2.38s1.75,1.7,1.46,3.07A2.29,2.29,0,0,1,374,89.58Z"/><path class="cls-1" d="M350,82.41c.45-1,.69-2.66,2.07-2.41s.6,1.87.9,2.85A5.07,5.07,0,0,1,350,82.41Z"/><path class="cls-1" d="M350,82.41a5.07,5.07,0,0,0,3,.44c.54.53.33,1.18.29,1.8l-3.92-.45A1.53,1.53,0,0,1,350,82.41Z"/><path class="cls-1" d="M380.37,110.89c-.19-.72-1.51-1.42-.64-2a3.14,3.14,0,0,1,3.33.12C382.16,109.61,381.57,110.68,380.37,110.89Z"/><path class="cls-1" d="M358.6,108.22l-.13-.33.27.19Z"/><path class="cls-1" d="M525.25,111.34c-.39-4.16-.8-8.34.78-12.37.56-1.41.11-2-1.21-2.45-1.67-.62-3.18-1.69-5-2-.67-.09-1.15-.42-1.13-1.14a1.07,1.07,0,0,1,1-1l.44-.08c3.37-.87,6.67-1.81,6.12-6.42,2.54,1.18,3.75,2.82,3.17,5.64a9.82,9.82,0,0,0,1.48,7.15c0,2.24-.67,4.53-.63,6.64.1,6.13-2.66,11.74-2.63,17.82,0,1.82-.81,3.64-1.27,5.45-.13.52-.31,1.09-1,1s-.73-.64-.85-1.17a10.33,10.33,0,0,1-.18-4.46c.65-.42,1.39,1.81,2-.07.41-.3.41-.75.47-1.2.5-4.2.81-8.39,2.23-12.48,1-2.77.17-6,.85-8.92.25-1.06-.91-1.42-1.77-1.69-.66-.19-1.4.06-1.42.72-.07,2.39-2.05,4.57-.7,7.13C526.75,108.88,526.12,110.17,525.25,111.34Z"/><path class="cls-1" d="M533.19,71.15c0,.37-.1.88.1,1.09,2.23,2.4,1.35,4.87.43,7.5-1.06,3-1,6.35-2.78,9.16-.68-2.23-2.41-3.51-4.19-4.76a82.51,82.51,0,0,1,2.63-11.5,24.87,24.87,0,0,1,1-2.47Z"/><path class="cls-1" d="M525.25,111.34c.87-1.17,1.5-2.46.76-3.87-1.35-2.56.63-4.74.7-7.13,0-.66.76-.91,1.42-.72.86.27,2,.63,1.77,1.69-.68,3,.12,6.15-.85,8.92-1.42,4.09-1.73,8.28-2.23,12.48-.06.45-.06.9-.47,1.2a3.69,3.69,0,0,1-.93-2.25c1.35-3.2,1.58-6.38-.16-9.53Z"/><path class="cls-1" d="M538.09,98.24c-1.51.91-2.8,0-4.1-.56-.73-.31-1.33-.91-2.21-.83-1.47-2-1.14-3.72.94-5.09a18,18,0,0,1,9.95,2.78,25.06,25.06,0,0,0-5.26-.41c-1.17.09-1.44.88-1.56,1.8s.29,1.4,1.24,1.37A.9.9,0,0,1,538.09,98.24Z"/><path class="cls-1" d="M538.09,98.24a.9.9,0,0,0-1-.94c-1,0-1.36-.44-1.24-1.37s.39-1.71,1.56-1.8a25.06,25.06,0,0,1,5.26.41.88.88,0,0,1,.36.1c.13.93.89,1.19,1.62,1.25,1.31.09,1.56.91,1.61,2l-.54.78c-1.61.57-3.14.77-4.6-.46-.49-.42-1.19-.74-1.71.1Z"/><path class="cls-1" d="M532.72,91.76c-2.08,1.37-2.41,3.07-.94,5.09l-.87,1.83a9.82,9.82,0,0,1-1.48-7.15c.58-2.82-.63-4.46-3.17-5.64a1.19,1.19,0,0,1,.49-1.75c1.78,1.25,3.51,2.53,4.19,4.76A2.18,2.18,0,0,0,532.72,91.76Z"/><path class="cls-1" d="M531.18,68.4c.63-1.26,1.17-2.57,1.92-3.76.45-.73,1.19-1.49,2.22-.92s1,1.52.5,2.5c-.63,1.18-1.25,2.36-1.87,3.55A5.71,5.71,0,0,1,531.18,68.4Z"/><path class="cls-1" d="M525.26,112.13c1.74,3.15,1.51,6.33.17,9.53l-.52-.5a15.05,15.05,0,0,0,.12-7.77A1.24,1.24,0,0,1,525.26,112.13Z"/><path class="cls-1" d="M539.41,98.28c.52-.84,1.22-.52,1.71-.1,1.46,1.23,3,1,4.6.46-.45,1.74-1.79,1.54-3,1.19A24.55,24.55,0,0,1,539.41,98.28Z"/><path class="cls-1" d="M531.18,68.4A5.71,5.71,0,0,0,534,69.77a2.35,2.35,0,0,1-.76,1.38l-2.83-1A1.77,1.77,0,0,1,531.18,68.4Z"/><path class="cls-1" d="M524.91,121.16l.52.5a3.62,3.62,0,0,0,.92,2.25c-.6,1.88-1.34-.35-2,.07C524.11,123,523.89,121.94,524.91,121.16Z"/><path class="cls-1" d="M546.26,97.86c0-1.06-.3-1.88-1.61-2-.73-.06-1.49-.32-1.62-1.25a16.14,16.14,0,0,1,3,.8C547.22,96,547.74,96.88,546.26,97.86Z"/><path class="cls-1" d="M496.68,85.13l.12-1.79c.84-.3.94-.76.29-1.37,0-1,.08-2.1.11-3.15,1.16-.33.56-1.34.8-2,.45-1.26,0-3.12,2.07-3.37.29,1.24.19,2.71,1.9,3.08a1.29,1.29,0,0,0,2-.43c.51-.72,1.11-1.39,1.55-2.14,1.05-1.82,2.49-2.39,4.45-1.58-.81.85.1,1.57.18,2.35-1.81.25-3.71.23-4.51,2.43-.67,1.83-1.49,3.6-2.24,5.4-.09.4-.19.8-.28,1.2-1.49,1.71,0,1.88,1.15,2.26h0c-.15,1.4.49,2,1.86,1.79l.82,0a1.65,1.65,0,0,0,2.18-.24,2.41,2.41,0,0,1,2-.63c-.75,1.12-2.34,1.91-1.41,3.67-2.41,1.75-2.4,2.06-.21,4.13,1.65,1.56,3.07,3.25,2.91,5.79a5.92,5.92,0,0,0,1.32,3.75,9.78,9.78,0,0,1,1.72,6.16,19,19,0,0,0,1.2,8.13c.44,1.08,1,2.83-.56,3.3-1.44.41-2.1-1.11-2.38-2.41-.52-2.48-1.09-5-1.59-7.42-1-4.84-4.21-8.45-7.91-11.57-1-.86-1.61-.25-1.85.86-1.56.68-.95,2.29-1.47,3.41-.31.69-.09,2.12-1.45,1.73-1-.28-1.19-1.16-.77-2.19a1.64,1.64,0,0,0-.29-2c0-.45,0-.9,0-1.36.54-.4.35-.88.21-1.4a7.93,7.93,0,0,1,.19-4.6c.91-2.77.24-4.2-2.55-5.74a7.94,7.94,0,0,1,0-3.11C496.86,85.89,497.28,85.7,496.68,85.13Z"/><path class="cls-1" d="M509.75,90.62c-.93-1.76.66-2.55,1.41-3.67,1.08-.1,2.26-.31,2.46-1.52a3,3,0,0,0-1-3c-1.52-1-1.43-2.5-1.07-3.82a3.22,3.22,0,0,0-1.4-3.87c-.08-.78-1-1.5-.18-2.35l1,.63h.46c.7,1.7,2.29,3,2.28,5.1l.93-1.48.88-.47.49,1.26c-1.83,1.22-1.63,3.15-1.31,4.82a14.13,14.13,0,0,1-.08,5.65h0a.8.8,0,0,0-.93.46l0,0c-.39,0-.75,0-.92.47l0,0a.81.81,0,0,0-.93.46l0,0-.47.48,0,0-.45.43Z"/><path class="cls-1" d="M514.65,87.84a14.13,14.13,0,0,0,.08-5.65c-.32-1.67-.52-3.6,1.31-4.82a14.7,14.7,0,0,1,2.41,4C519.42,84.54,517.85,87.23,514.65,87.84Z"/><path class="cls-1" d="M515.55,76.11l-.88.47c-.07-3.67-.07-3.67-3.21-3.62h0c-.17-.39-.33-.26-.48,0l-1-.63c-2-.81-3.4-.24-4.45,1.58-.44.75-1,1.42-1.55,2.14a1.29,1.29,0,0,1-2,.43c1.2-1.42,2.39-2.85,3.61-4.26a2.48,2.48,0,0,1,2.28-1.17c2,.28,4.05.62,6.09.87C516.59,72.25,515.32,74.58,515.55,76.11Z"/><path class="cls-1" d="M498.42,102.25a1.64,1.64,0,0,1,.29,2c-.42,1-.18,1.91.77,2.19,1.36.39,1.14-1,1.45-1.73.52-1.12-.09-2.73,1.47-3.41q-1.11,4.95-2.23,9.91c-.9-.73.36-3.18-2.11-2.66A7.79,7.79,0,0,1,498.42,102.25Z"/><path class="cls-1" d="M500.07,73.42c-2.1.25-1.62,2.11-2.07,3.37-.24.69.36,1.7-.8,2-.42-2.95.74-5.77.78-8.68a.7.7,0,0,1,.68-.75.94.94,0,0,1,1,.74A5.64,5.64,0,0,1,500.07,73.42Z"/><path class="cls-1" d="M496.29,89.15c2.79,1.54,3.46,3,2.55,5.74a7.93,7.93,0,0,0-.19,4.6c.14.52.33,1-.21,1.4a5.48,5.48,0,0,1-.54-5.52c1-2,.85-3.54-1-4.87A1.25,1.25,0,0,1,496.29,89.15Z"/><path class="cls-1" d="M498.06,108.59c2.47-.52,1.21,1.93,2.11,2.66a.77.77,0,0,1-.78,1l-1.27-.07A9.85,9.85,0,0,1,498.06,108.59Z"/><path class="cls-1" d="M497.09,82c.65.61.55,1.07-.29,1.37C496.66,82.83,496.57,82.33,497.09,82Z"/><path class="cls-1" d="M498.12,112.14l1.27.07c-.06.38-.19.75-.64.69A.74.74,0,0,1,498.12,112.14Z"/><path class="cls-1" d="M496.68,85.13c.6.57.18.76-.34.91A.67.67,0,0,1,496.68,85.13Z"/><path class="cls-1" d="M512.84,88.74c.17-.43.53-.48.92-.47A1,1,0,0,1,512.84,88.74Z"/><path class="cls-1" d="M511.93,89.18a.81.81,0,0,1,.93-.46C512.67,89.13,512.29,89.13,511.93,89.18Z"/><path class="cls-1" d="M513.73,88.29a.8.8,0,0,1,.93-.46C514.48,88.23,514.11,88.27,513.73,88.29Z"/><path class="cls-1" d="M511.06,90.05l.45-.43Z"/><path class="cls-1" d="M511.48,89.64l.47-.48Z"/><path class="cls-1" d="M283,108.05c-1.11.66-2.15,1.49-3.56,1.39-2.36-2.72-5.17-3.49-8.53-2a6,6,0,0,1-1.29.25,2.38,2.38,0,0,0-2.1-1.13c-2.11-.16-2.49-1.37-1.95-3.08.32-1,.41-1.67-.6-2.48a2.08,2.08,0,0,1,0-3c1.83-2,2.37-4.41,2.75-6.94.88.15,2.41-.62,2.5.68.19,2.87,1.88,3.83,4.3,4.24,0,1.61-1.26,2.66-1.85,4-.53,1.2-1,2.41.1,3.52s2.06.11,3-.34a10.8,10.8,0,0,1,7.22-.4C283,104.49,283,106.27,283,108.05Z"/><path class="cls-1" d="M268.59,89.16a18.56,18.56,0,0,0,.45-2c.29-2.45,1.27-4.27,3.94-4.75a3.44,3.44,0,0,0,2.57-2.3,4.68,4.68,0,0,1,2-2.34,3.3,3.3,0,0,1,1.09,1.36c1.09,1.82,2.52,2,3.84.33a11.76,11.76,0,0,0,1-1.74l4.48.09c.69,0,1.42,0,1.65.84s-.36,1.43-1,1.8a10,10,0,0,1-4.79,1,3.27,3.27,0,0,0-3.6,2.56c-.76,2.32-3.18,3.46-4.88,5.12A14.4,14.4,0,0,1,268.59,89.16Z"/><path class="cls-1" d="M277.65,109.57a18.61,18.61,0,0,0-2.93,4.73c-.34.73-.65,1.58-1.71,1.5s-1-1.07-1-1.7c-.1-1.83-2-2.78-2.08-4.59C272.49,108.07,275.08,107.5,277.65,109.57Z"/><path class="cls-1" d="M268.59,89.16a14.4,14.4,0,0,0,6.72,0A5.61,5.61,0,0,1,273.5,91c-.65.11-1.66-.35-1.72.8,0,.91.24,1.78,1.43,1.85.72.59,2.27.69,1.32,2.25-2.42-.41-4.11-1.37-4.3-4.24-.09-1.3-1.62-.53-2.5-.68A2.12,2.12,0,0,1,268.59,89.16Z"/><path class="cls-1" d="M284.36,103.58a3.52,3.52,0,0,0,3.6,0c.68-.35,1.41-.72,2,.09a1.89,1.89,0,0,1-.27,2.27c-1.24,1.82-3.19,1.2-4.89,1.4A9.87,9.87,0,0,1,284.36,103.58Z"/><path class="cls-1" d="M277.65,109.57c-2.57-2.07-5.16-1.5-7.76-.06-.62-.53-.33-1.2-.3-1.83a6,6,0,0,0,1.29-.25c3.36-1.48,6.17-.71,8.53,2Z"/><path class="cls-1" d="M283.47,77.76a11.76,11.76,0,0,1-1,1.74c-1.32,1.63-2.75,1.49-3.84-.33a3.3,3.3,0,0,0-1.09-1.36,1.56,1.56,0,0,1,1.78-.8c0,.95.28,2,1.24,2,1.18,0,1.25-1.19,1.5-2.08A1.73,1.73,0,0,1,283.47,77.76Z"/><path class="cls-1" d="M284.36,103.58a9.87,9.87,0,0,0,.42,3.74,2.78,2.78,0,0,1-1.81.73c0-1.78,0-3.56,0-5.34A1.45,1.45,0,0,1,284.36,103.58Z"/><path class="cls-1" d="M282.09,77c-.25.89-.32,2.13-1.5,2.08-1-.05-1.25-1.08-1.24-2Z"/><path class="cls-1" d="M273.21,93.67c-1.19-.07-1.47-.94-1.43-1.85.06-1.15,1.07-.69,1.72-.8A3,3,0,0,0,273.21,93.67Z"/><path class="cls-1" d="M475.42,109.51a25.07,25.07,0,0,0-4.5-2c-1.56-.35-2-1.89-1.73-3.25a13,13,0,0,0-1.56-9.47c-.76-1.29-.05-2.5.67-3.55a12.38,12.38,0,0,0,1.74-4.1c.6-2.4,8.18-10.34,10.49-10.91a6.1,6.1,0,0,1,5.81,1.52l-.13.14c-.8-.18-1.6-.33-2.39-.52-3.12-.75-4.78-.15-6.44,2.53-.73,1.18-2,2.63.6,3.32.75.21.53,1.2,1.07,1.63-1.14.6-2.4,1.23-2.26,2.74.19,2-.73,3.36-2,4.75-1.6,1.77-1.36,6,.46,6.87a9.76,9.76,0,0,1,3.89,3.86C476.31,104.33,475.44,106.67,475.42,109.51Z"/><path class="cls-1" d="M489.34,94.14a7.87,7.87,0,0,0,1.74,3.1,5.3,5.3,0,0,1,.06,6.47,31.4,31.4,0,0,1-5,5.72c-2,1.86-4.6,2-7.1,2.26-1.21.13-2.07-.73-2.76-1.67.54-1.68.62-3.55,2.23-4.77,1.89-1.43,3.37,0,5,.5,2.4.66,3.76-.51,3.65-3-.05-1.4-.92-2.52-1.23-3.83C485.14,95.59,486.19,94.09,489.34,94.14Z"/><path class="cls-1" d="M486.34,77.8c3.68,2.1,5.53,8.19,3.8,12.62a8.62,8.62,0,0,0-.85,2.75c-.37,0-.75,0-1.12,0-3,0-3.65.7-3.75,3.65a11.66,11.66,0,0,0,1,5c.33.77.71,1.54,0,2.27s-1.4.08-2.08-.09a2.49,2.49,0,0,1-1.53-.85c1.3-.73,1.07-1.91.71-3a6.93,6.93,0,0,1,0-5.2,2.5,2.5,0,0,0-.88-3.38c-2.16-1.2-2.39-3.07-2-5.19.09-.52.29-1-.12-1.47.07-.41-.1-1,.55-1a.81.81,0,0,1,.76.94c-.16,2.26,1.69,2.94,3.07,4A16.15,16.15,0,0,0,486.05,90c2.77,1.38,3.68.83,3.8-2.31a16.06,16.06,0,0,0-.34-3.09c-.43-2.59-1.87-4.6-3.3-6.65Z"/><path class="cls-1" d="M481.77,103.18a2.49,2.49,0,0,0,1.53.85c.68.17,1.39.8,2.08.09s.33-1.5,0-2.27a11.66,11.66,0,0,1-1-5c.1-3,.74-3.61,3.75-3.65.37,0,.75,0,1.12,0,0,.32,0,.64,0,1-3.15,0-4.2,1.45-3.4,4.76.31,1.31,1.18,2.43,1.23,3.83.11,2.51-1.25,3.68-3.65,3-1.66-.46-3.14-1.93-5-.5-1.61,1.22-1.69,3.09-2.23,4.77l-.84-.51c0-2.84.89-5.18,3.72-6.39Z"/><path class="cls-1" d="M251.29,65.27c.4-2,2-3.69.78-6-.43-.86.44-2,1.74-2.12a1.67,1.67,0,0,1,2,1.81,2,2,0,0,0,1.39,2.22c1.08.38,1,1.37.91,2.28s-.32,2.07-.48,3.1a3.36,3.36,0,0,0-4.2-1.46A8.21,8.21,0,0,1,251.29,65.27Z"/><path class="cls-1" d="M251.29,65.27a8.21,8.21,0,0,0,2.18-.17,3.36,3.36,0,0,1,4.2,1.46c0,1.23.42,2.61-1.23,3.2-.07-3.34-.07-3.33-3.4-2.77a16.36,16.36,0,0,1-2,.11C250.92,66.46,250.74,65.82,251.29,65.27Z"/><path class="cls-1" d="M251.05,67.1a16.36,16.36,0,0,0,2-.11c3.33-.56,3.33-.57,3.4,2.77C253.62,71,252.5,68.71,251.05,67.1Z"/><path class="cls-1" d="M253.59,102.75c-.89-2-.17-4-.33-6-.07-.89.11-1.85-.62-2.54-1.53-1.44-1.28-3-.51-4.72.85-1.86,1.72-3.61,0-5.57-.62-.7-.4-2,.2-3,4.07.44,5.46,2.15,4.23,5.21-2.16,5.36-2.16,5.36,3.22,8-.37.89-.7,1.81-1.13,2.67a3.16,3.16,0,0,0-.32,2.82c1.45,2.75.45,5.2-.57,7.72a26.68,26.68,0,0,0-.81,3c-1.09-1-.47-2.22,0-3.08,2-3.47.7-6.75-.35-10.06-.24-.75-.67-1.73-1.64-1.55s-.68,1.3-.8,2.07C253.88,99.43,254.72,101.19,253.59,102.75Z"/><path class="cls-1" d="M253.59,102.75c1.13-1.56.29-3.32.54-5,.12-.77-.28-1.86.8-2.07s1.4.8,1.64,1.55c1.05,3.31,2.34,6.59.35,10.06-.49.86-1.11,2.05,0,3.08,0,1.49-.07,3-.1,4.47-1,.07-1.35-.38-1.32-1.34a22.14,22.14,0,0,0,0-3.82c-.24-1.69-.18-3.55-1.77-4.75Z"/><path class="cls-1" d="M259.73,94.21c-5.38-2.66-5.38-2.66-3.22-8,1.23-3.06-.16-4.77-4.24-5.21,0-.45.07-.9.1-1.35A9.06,9.06,0,0,1,258.18,82c.21,2.21-.88,4.23-1,6.39-1.38,2.4-.92,3.26,1.88,3.53h0l.39.39C259.56,92.91,261.27,93.35,259.73,94.21Z"/><path class="cls-1" d="M258.18,82a9.06,9.06,0,0,0-5.81-2.34c-.07-1.38,0-2.59,1.6-3.26,2.5-1,3-.79,3.39,1.95C257.54,79.55,257.9,80.75,258.18,82Z"/><path class="cls-1" d="M253.68,105c1.59,1.2,1.53,3.06,1.77,4.75a22.14,22.14,0,0,1,0,3.82c0,1,.35,1.41,1.32,1.34.06.8-.24,1.38-1.1,1.32s-.92-.72-1-1.3a6.32,6.32,0,0,1-.08-1.79C254.89,110.32,254.24,107.65,253.68,105Z"/><path class="cls-1" d="M259.09,91.89c-2.8-.27-3.26-1.13-1.88-3.53A4.08,4.08,0,0,0,259.09,91.89Z"/><path class="cls-1" d="M259.47,92.27l-.39-.39Z"/><path class="cls-1" d="M461.17,33.51c.08,2.64-1.32,4.74-2.26,7a32.2,32.2,0,0,0-2.39,7.91c-.16,1.08-.59,2.17-1.73,1.85-1.29-.37-.62-1.37-.31-2.36.57-1.83.67-3.81,1.13-5.69C456.47,38.66,459.23,36.36,461.17,33.51Z"/><path class="cls-1" d="M232.52,65.77c-.13,1.5-2.14,3-.09,4.53a4.88,4.88,0,0,1-1.28,5.59,2.48,2.48,0,0,0-1,1.87l0,.06c-1.25.56-1.22,1.69-1.23,2.79,0,.29-.07.59-.11.88l-1,2.66-.38.43a24,24,0,0,0-9.44,4.77l-1.31-.25c-1.34-1.43-2.73-1-4.12-.09l-1.25,0a16.27,16.27,0,0,1,0-2.42c.15-.93.82-2,.15-2.76-1.32-1.51-1.13-3.27-1.24-5,.13-.67.15-1.3-.71-1.5a3.2,3.2,0,0,1-1.48-3.81A3.64,3.64,0,0,0,207,69.87a4.63,4.63,0,0,1-1.39-3.43,14.81,14.81,0,0,0-1.14-5.59,2.37,2.37,0,0,1,2.79-3.41,5.27,5.27,0,0,0,5.47-2.15c1.8-1.31,3.88-.71,5.86-.86,1.78-.14,3.31.1,4.33,1.92a3.13,3.13,0,0,0,3.36,1.29c1.57-.22,2.78.7,2.75,2C228.94,62.5,231,63.93,232.52,65.77Zm-20.28,22.1c2-1.65,3.47-1.36,4.79-.31.92.73,1.51.24,2.09-.39a9.37,9.37,0,0,1,5.69-2.93,2.44,2.44,0,0,0,2.4-2.47,10,10,0,0,1,3.2-7,3.35,3.35,0,0,0,.47-4.5c-.63-1-1-1.94-.21-2.91s.24-1.46-.44-2.2c-1.27-1.35-3.09-2.44-2.4-4.92.27-1-.64-1.74-1.75-1.13-2.16,1.2-3.26,0-4.21-1.68-.33-.58-.56-1.61-1.13-1.57-2.67.21-5.63-1.71-8,1.19a5.05,5.05,0,0,1-4.85,1.82c-.74-.11-1.67-.83-2.19.25a2.24,2.24,0,0,0,.62,2.67A3,3,0,0,1,207,64.9a4.45,4.45,0,0,0,1.25,4.52c1.35,1.19,1.51,2.86,1.17,4.58-.13.64-.44,1.34.35,1.8,1.77,1,1.91,2.72,1.86,4.51,0,.59-.08,1.5.24,1.71C214.05,83.48,213.35,85.31,212.24,87.87Z"/><path class="cls-1" d="M210.31,78.86c.11,1.74-.08,3.5,1.24,5,.67.78,0,1.83-.15,2.76a16.27,16.27,0,0,0,0,2.42c-1.21,1-1.37-.61-1.28-.78,1.63-3.14-1-5.73-1-8.63Z"/><path class="cls-1" d="M218.06,89.35a24,24,0,0,1,9.44-4.77c0,1.25-1.06,1.26-1.87,1.52a11.89,11.89,0,0,0-5.72,3.24C219.39,89.93,218.68,90.66,218.06,89.35Z"/><path class="cls-1" d="M212.63,89c1.39-.9,2.78-1.34,4.12.09A8.22,8.22,0,0,1,212.63,89Z"/><path class="cls-1" d="M228.94,80.61c0-1.1,0-2.23,1.23-2.79C229.81,78.78,230.32,80.11,228.94,80.61Z"/><path class="cls-1" d="M227.88,84.15l1-2.66C229.62,82.77,229.27,83.65,227.88,84.15Z"/><path class="cls-1" d="M212.72,55.29a5.27,5.27,0,0,1-5.47,2.15,2.37,2.37,0,0,0-2.79,3.41,14.81,14.81,0,0,1,1.14,5.59A4.63,4.63,0,0,0,207,69.87a3.64,3.64,0,0,1,1.13,3.68,3.2,3.2,0,0,0,1.48,3.81l-1,.52c-1.84-.51-2.13-1.8-1.6-3.39a3.41,3.41,0,0,0-.62-3.75c-1.61-1.63-1.79-3.6-1.59-5.71a2.53,2.53,0,0,0-.55-2.1c-1.61-1.66-1.08-3.55-.27-5.22s2.43-1.45,4-1.5c.84,0,2,.65,2.46-.79Z"/><path class="cls-1" d="M206.87,45.44a7.43,7.43,0,0,0,5.4-3.57c1.87-.2,3.33-1.49,5.52-1.27,3.42.34,6,2.07,8.74,3.67,1.45.85,2.77,1.78,4.53,1.61,1.37-.12,2.22.19,2.47,1.83A2.56,2.56,0,0,0,236.64,50a16.89,16.89,0,0,1,2.25,0,2,2,0,0,1,2.18,2.26c0,1.35,0,2.7,0,4.06,0,.59-.08,1.4.25,1.73,2.39,2.3.9,4.34-.3,6.43-2.47-1.21-4.87-1.39-7.16.41-1.87-.89-3.33-2-3.71-4.32-.25-1.47-.5-3.53-2.38-3.68-2.8-.22-1.94-1.24-1.08-2.76,1.28-2.26,1-4.59-.57-6,1.15.07,2.24,0,2.71-1.54a5.75,5.75,0,0,1-4.25-1.1c-2-1.36-3.89-1.37-5.64.45-3.07-1.07-5.44.74-7.93,2-1.4.7-3,1.34-2.14,3.47a4.1,4.1,0,0,1-.69.42Z"/><path class="cls-1" d="M226.13,48.06c1.55,1.42,1.85,3.75.57,6-.86,1.52-1.72,2.54,1.08,2.76,1.88.15,2.13,2.21,2.38,3.68.38,2.29,1.84,3.43,3.71,4.32a1.54,1.54,0,0,1-1.35.94c-1.54-1.84-3.58-3.27-3.5-6.17,0-1.26-1.18-2.18-2.75-2a3.13,3.13,0,0,1-3.36-1.29c-1-1.82-2.55-2.06-4.33-1.92-.26-.53-.75-1-.28-1.64A9.59,9.59,0,0,0,220,48c.25-1.81,1.59-2.4,3.26-1.59C224.22,46.91,225.16,47.51,226.13,48.06Z"/><path class="cls-1" d="M208.19,51.73a4.1,4.1,0,0,0,.69-.42c-.86-2.13.74-2.77,2.14-3.47,2.49-1.23,4.86-3,7.93-2-.28,1.54-1,3-.91,4.6a1.89,1.89,0,0,1-1.4,1.88c-2.11.42-4.1,1.47-6.35,1.26C209.08,53.5,208.32,53,208.19,51.73Z"/><path class="cls-1" d="M529.06,138.85h.47C529.37,139.07,529.22,139.08,529.06,138.85Z"/><path class="cls-1" d="M378.57,106.84c-1-.5-.92-1.5-1.13-2.37-.15-2.94,2-4.13,4.09-5.36,1.15-.69,1.25.37,1.42,1A5.56,5.56,0,0,1,378.57,106.84Zm.24-.62c1.6-1.9,3.57-2.94,2.83-5.45C379.21,101.54,378.33,103.18,378.81,106.22Z"/><path class="cls-1" d="M350,95.89c-2.54,0-3-.51-2.3-2.65a37,37,0,0,1,1.58-3.68.88.88,0,0,1,.83-.64.86.86,0,0,1,.79.92,17.49,17.49,0,0,0,.87,4.35C352.29,96,350.79,95.74,350,95.89Z"/><path class="cls-1" d="M510.2,74.7a3.22,3.22,0,0,1,1.4,3.87c-.36,1.32-.45,2.79,1.07,3.82a3,3,0,0,1,1,3c-.2,1.21-1.38,1.42-2.46,1.52a2.41,2.41,0,0,0-2,.63,1.65,1.65,0,0,1-2.18.24A6.25,6.25,0,0,0,509.25,82a2.21,2.21,0,0,1,.45-1.69c.3-.38,1-.72.57-1.3a2,2,0,0,0-1.82-.65,3.31,3.31,0,0,0-2.61,1.9,4.35,4.35,0,0,1-2.39,2.23c.75-1.8,1.57-3.57,2.24-5.4C506.49,74.93,508.39,75,510.2,74.7Z"/><path class="cls-1" d="M503.45,82.53a4.35,4.35,0,0,0,2.39-2.23,3.31,3.31,0,0,1,2.61-1.9,2,2,0,0,1,1.82.65c.4.58-.27.92-.57,1.3a2.21,2.21,0,0,0-.45,1.69A6.25,6.25,0,0,1,507,87.82l-.82,0A6.47,6.47,0,0,0,504.31,86h0l-1.15-2.26C503.26,83.33,503.36,82.93,503.45,82.53Zm5.11-2.88c-1.87.44-1.61,2.33-2.68,2.88-2,1-1,1.93,0,2.9.29.31.39.84.91.84C509.06,84.5,507,81.79,508.56,79.65Z"/><path class="cls-1" d="M503.17,83.73,504.32,86C503.2,85.61,501.68,85.44,503.17,83.73Z"/><path class="cls-1" d="M504.31,86a6.47,6.47,0,0,1,1.86,1.79C504.8,88,504.16,87.38,504.31,86Z"/><path class="cls-1" d="M511.46,73c3.14,0,3.14,0,3.21,3.62l-.93,1.48C513.75,76,512.16,74.66,511.46,73Z"/><path class="cls-1" d="M511,73c.15-.27.31-.4.48,0Z"/><path class="cls-1" d="M486.21,77.94c1.43,2,2.87,4.06,3.3,6.65a16.06,16.06,0,0,1,.34,3.09c-.12,3.14-1,3.69-3.8,2.31a16.15,16.15,0,0,1-2.19-1.13c-1.38-1-3.23-1.69-3.07-4A.81.81,0,0,0,480,84c-.65,0-.48.61-.55,1a3,3,0,0,1-.43-.09c-.54-.43-.32-1.42-1.07-1.63-2.57-.69-1.33-2.14-.6-3.32,1.66-2.68,3.32-3.28,6.44-2.53C484.61,77.61,485.41,77.76,486.21,77.94Z"/><path class="cls-1" d="M479.05,84.9a3,3,0,0,0,.43.09c.41.46.21,1,.12,1.47-.37,2.12-.14,4,2,5.19A2.5,2.5,0,0,1,482.5,95a6.93,6.93,0,0,0,0,5.2c.36,1,.59,2.22-.71,3l-2.63-.06a9.76,9.76,0,0,0-3.89-3.86c-1.82-.91-2.06-5.1-.46-6.87,1.27-1.39,2.19-2.74,2-4.75C476.65,86.13,477.91,85.5,479.05,84.9ZM477.87,90a7.41,7.41,0,0,1-1.93,2.83c-1,1.23-1.2,4.82-.12,5.18,1.93.64,2.84,2,3.79,3.57a1.1,1.1,0,0,0,1.57.37c.7-.32.36-.87.15-1.34a7,7,0,0,1-.84-3.22,11.94,11.94,0,0,0-2.25-7.32S478.1,90,477.87,90Z"/><text class="cls-2" transform="translate(230.31 179.43) scale(0.93 1)">Social NEtwork</text></g></g></svg>