<svg xmlns="http://www.w3.org/2000/svg" viewBox="0 0 527 527.17"><title>Recurso 1</title><g id="Capa_2" data-name="Capa 2"><g id="Capa_1-2" data-name="Capa 1"><path d="M0,287.11V242.6a29.58,29.58,0,0,0,.45-3.74c0-12.56,2.2-24.8,5.42-36.9,8-30,19.86-58.37,36.81-84.48C54.29,99.6,69,84.44,84.24,69.68a230.45,230.45,0,0,1,56.88-40.55A299.21,299.21,0,0,1,202.51,6.2C217.74,2.31,233.12-.61,249,.11c7.79.35,15.61,0,23.42.07C291.66.31,310.66,2,329.37,7.1c42.47,11.65,80.29,31.76,112.79,61.49,36.45,33.35,61.39,74,75.46,121.32,4,13.46,7.62,27,8.54,41.06.27,4.08.56,8.15.84,12.22v43.33c-.12.86-.28,1.72-.37,2.58-.73,7.07-1,14.23-2.27,21.19a271.94,271.94,0,0,1-32,86.37,262.22,262.22,0,0,1-79.6,85.95c-24.64,16.89-51.58,28.78-80.27,36.92-12.13,3.44-24.32,6.57-36.93,7-14.62.54-29.26.58-43.89.61-20.25,0-40.18-2.09-59.68-8.13-24.78-7.67-48.48-17.58-70.38-31.58A263.49,263.49,0,0,1,37,400.67c-12.62-20.86-22.54-43-28.75-66.54-3-11.54-5-23.37-7.24-35.12C.3,295.12.32,291.08,0,287.11Zm463,97c53.62-90.38,44.65-215.43-46.79-295.63C329,12,197.86,11.83,110.93,88.38c-89.65,79-102.19,199.68-47.07,295.86,2.59-2.41,5.1-4.84,7.71-7.16,13-11.61,28.07-19.95,43.43-27.83,20.56-10.56,42.16-18.68,63.71-26.9a4.72,4.72,0,0,1,5.44.9c7.37,6.06,14.63,12.35,22.5,17.71,13.73,9.34,28.45,16.73,45.54,17.18,9.73.25,19.55.39,29.2-.6,11.47-1.17,21.82-6.27,31.77-11.91,11-6.24,20.55-14.46,30.07-22.67,1.41-1.21,2.56-1.61,4.42-.86,13,5.21,26.23,9.9,39.07,15.47C414.21,349.52,441.27,362.27,463,384.13Z"/><path d="M367.21,201c.41,29.84-8.94,56.52-24.39,81.31-10.5,16.85-23.73,31.16-40.83,41.53-22.76,13.82-46.29,14.89-70.29,3.5-20.1-9.55-34.87-25-46.65-43.48-13.59-21.33-22.39-44.46-25-69.74-5.51-52.79,23.56-100,72.53-117.26a89.67,89.67,0,0,1,47.86-3.3c42.46,8.48,68.71,35,82.53,75.09C366.58,179.22,367.33,190.2,367.21,201Z"/></g></g></svg>